<?xml version="1.0" encoding="UTF-8"?>
<svg xmlns="http://www.w3.org/2000/svg" width="800" height="420" viewBox="0 0 800 420">
  <defs>
    <linearGradient id="bg" x1="0%" y1="0%" x2="100%" y2="100%">
      <stop offset="0%" stop-color="#fdf4ff"/>
      <stop offset="100%" stop-color="#ede9fe"/>
    </linearGradient>
  </defs>
  <rect width="800" height="420" fill="url(#bg)" rx="20"/>
  <line x1="80" y1="300" x2="720" y2="300" stroke="#d1d5db" stroke-width="1.5"/>
<line x1="120" y1="60" x2="120" y2="360" stroke="#d1d5db" stroke-width="1.5"/>
<path d="M 130,270 Q 230,100 370,110 Q 510,120 610,270 Q 650,330 680,310" fill="none" stroke="#7c3aed" stroke-width="3.5"/>
<circle cx="370" cy="110" r="9" fill="#dc2626"/>
<text x="370" y="98" text-anchor="middle" font-size="13" font-weight="800" font-family="sans-serif" fill="#dc2626">Maxima f'=0, f''&lt;0</text>
<line x1="290" y1="110" x2="450" y2="110" stroke="#dc2626" stroke-width="2" stroke-dasharray="5,3"/>
<circle cx="240" cy="220" r="8" fill="#059669"/>
<text x="195" y="218" text-anchor="end" font-size="12" font-weight="700" font-family="sans-serif" fill="#059669">Minima</text>
<line x1="175" y1="220" x2="305" y2="220" stroke="#059669" stroke-width="2" stroke-dasharray="5,3"/>
<rect x="80" y="58" width="680" height="48" rx="12" fill="#6d28d9"/>
<text x="400" y="87" text-anchor="middle" font-size="14" font-weight="800" font-family="monospace" fill="#fff">Applications of Derivatives</text>
<rect x="80" y="330" width="200" height="60" rx="10" fill="#ede9fe" stroke="#7c3aed" stroke-width="2"/>
<text x="180" y="353" text-anchor="middle" font-size="12" font-weight="700" font-family="sans-serif" fill="#5b21b6">Increasing/Decreasing</text>
<text x="180" y="376" text-anchor="middle" font-size="11" font-family="monospace" fill="#6b21a8">f'(x)&gt;0 or f'(x)&lt;0</text>
<rect x="300" y="330" width="200" height="60" rx="10" fill="#ede9fe" stroke="#7c3aed" stroke-width="2"/>
<text x="400" y="353" text-anchor="middle" font-size="12" font-weight="700" font-family="sans-serif" fill="#5b21b6">Tangents &amp; Normals</text>
<text x="400" y="376" text-anchor="middle" font-size="11" font-family="monospace" fill="#6b21a8">slope m = dy/dx at point</text>
<rect x="520" y="330" width="200" height="60" rx="10" fill="#ede9fe" stroke="#7c3aed" stroke-width="2"/>
<text x="620" y="353" text-anchor="middle" font-size="12" font-weight="700" font-family="sans-serif" fill="#5b21b6">Approximations</text>
<text x="620" y="376" text-anchor="middle" font-size="11" font-family="monospace" fill="#6b21a8">Δy ≈ f'(x)·Δx</text>
</svg>