<?xml version="1.0" encoding="UTF-8"?>
<svg xmlns="http://www.w3.org/2000/svg" width="800" height="420" viewBox="0 0 800 420">
  <defs>
    <linearGradient id="bg" x1="0%" y1="0%" x2="100%" y2="100%">
      <stop offset="0%" stop-color="#f0fdf4"/>
      <stop offset="100%" stop-color="#dcfce7"/>
    </linearGradient>
  </defs>
  <rect width="800" height="420" fill="url(#bg)" rx="20"/>
  <rect x="150" y="120" width="500" height="200" rx="0" fill="none" stroke="#374151" stroke-width="0"/>
<line x1="150" y1="150" x2="650" y2="150" stroke="#374151" stroke-width="2.5"/>
<line x1="650" y1="150" x2="650" y2="280" stroke="#374151" stroke-width="2.5"/>
<line x1="650" y1="280" x2="150" y2="280" stroke="#374151" stroke-width="2.5"/>
<line x1="150" y1="280" x2="150" y2="150" stroke="#374151" stroke-width="2.5"/>
<rect x="220" y="135" width="80" height="30" rx="4" fill="#fde68a" stroke="#d97706" stroke-width="2"/>
<text x="260" y="155" text-anchor="middle" font-size="11" font-weight="700" font-family="sans-serif" fill="#78350f">R₁ 5Ω</text>
<rect x="400" y="135" width="80" height="30" rx="4" fill="#fde68a" stroke="#d97706" stroke-width="2"/>
<text x="440" y="155" text-anchor="middle" font-size="11" font-weight="700" font-family="sans-serif" fill="#78350f">R₂ 10Ω</text>
<rect x="600" y="185" width="30" height="70" rx="4" fill="#60a5fa" stroke="#2563eb" stroke-width="2"/>
<text x="645" y="225" font-size="10" font-weight="700" font-family="sans-serif" fill="#1e40af">12V</text>
<polygon points="665,215 680,215 672,200" fill="#059669"/>
<text x="400" y="235" text-anchor="middle" font-size="16" font-weight="900" font-family="monospace" fill="#065f46">I = V/R</text>
<text x="400" y="265" text-anchor="middle" font-size="13" font-weight="700" font-family="monospace" fill="#047857">P = VI = I²R = V²/R</text>
<rect x="80" y="58" width="640" height="48" rx="12" fill="#065f46"/>
<text x="400" y="84" text-anchor="middle" font-size="14" font-weight="800" font-family="monospace" fill="#fff">Ohm's Law: V=IR · Series: R=R₁+R₂ · Parallel: 1/R=1/R₁+1/R₂</text>
<rect x="80" y="340" width="640" height="52" rx="10" fill="#dcfce7" stroke="#059669" stroke-width="2"/>
<text x="400" y="363" text-anchor="middle" font-size="13" font-weight="700" font-family="sans-serif" fill="#065f46">Kirchhoff's Laws: ΣI=0 (junction) · ΣV=0 (loop)</text>
<text x="400" y="384" text-anchor="middle" font-size="12" font-family="sans-serif" fill="#047857">Wheatstone Bridge · Meter Bridge · Potentiometer · Internal Resistance</text>
</svg>