<?xml version="1.0" encoding="UTF-8"?>
<svg xmlns="http://www.w3.org/2000/svg" width="800" height="420" viewBox="0 0 800 420">
  <defs>
    <linearGradient id="bg" x1="0%" y1="0%" x2="100%" y2="100%">
      <stop offset="0%" stop-color="#fff7ed"/>
      <stop offset="100%" stop-color="#ffedd5"/>
    </linearGradient>
  </defs>
  <rect width="800" height="420" fill="url(#bg)" rx="20"/>
  <rect x="150" y="100" width="500" height="230" rx="16" fill="#fef3c7" stroke="#d97706" stroke-width="2.5"/>
<rect x="170" y="130" width="180" height="170" rx="10" fill="#fde68a" stroke="#b45309" stroke-width="2"/>
<text x="260" y="160" text-anchor="middle" font-size="14" font-weight="800" font-family="sans-serif" fill="#78350f">Anode (−)</text>
<text x="260" y="183" text-anchor="middle" font-size="12" font-family="sans-serif" fill="#92400e">Oxidation occurs</text>
<text x="260" y="205" text-anchor="middle" font-size="12" font-family="monospace" fill="#92400e">Zn → Zn²⁺ + 2e⁻</text>
<text x="260" y="228" text-anchor="middle" font-size="12" font-family="sans-serif" fill="#92400e">ZnSO₄ (aq)</text>
<rect x="450" y="130" width="180" height="170" rx="10" fill="#dbeafe" stroke="#2563eb" stroke-width="2"/>
<text x="540" y="160" text-anchor="middle" font-size="14" font-weight="800" font-family="sans-serif" fill="#1e40af">Cathode (+)</text>
<text x="540" y="183" text-anchor="middle" font-size="12" font-family="sans-serif" fill="#1e40af">Reduction occurs</text>
<text x="540" y="205" text-anchor="middle" font-size="12" font-family="monospace" fill="#1e40af">Cu²⁺ + 2e⁻ → Cu</text>
<text x="540" y="228" text-anchor="middle" font-size="12" font-family="sans-serif" fill="#1e40af">CuSO₄ (aq)</text>
<line x1="350" y1="160" x2="450" y2="160" stroke="#374151" stroke-width="2.5"/>
<text x="400" y="153" text-anchor="middle" font-size="11" font-weight="700" font-family="sans-serif" fill="#374151">Salt Bridge</text>
<line x1="260" y1="130" x2="260" y2="100" stroke="#374151" stroke-width="2"/>
<line x1="540" y1="130" x2="540" y2="100" stroke="#374151" stroke-width="2"/>
<line x1="260" y1="100" x2="540" y2="100" stroke="#374151" stroke-width="2"/>
<text x="400" y="95" text-anchor="middle" font-size="12" font-weight="700" font-family="sans-serif" fill="#374151">e⁻ flow →</text>
<rect x="80" y="58" width="640" height="48" rx="12" fill="#b45309"/>
<text x="400" y="84" text-anchor="middle" font-size="14" font-weight="800" font-family="monospace" fill="#fff">Nernst: E = E° − (RT/nF)·lnQ · At 25°C: E = E°−0.0592/n·logQ</text>
<rect x="80" y="350" width="640" height="42" rx="10" fill="#fef3c7" stroke="#d97706" stroke-width="2"/>
<text x="400" y="376" text-anchor="middle" font-size="12" font-weight="700" font-family="sans-serif" fill="#78350f">Faraday's Laws · Conductance · Kohlrausch's Law · Electrolytic cells · ΔG° = −nFE°</text>
</svg>