<?xml version="1.0" encoding="UTF-8"?>
<svg xmlns="http://www.w3.org/2000/svg" width="800" height="420" viewBox="0 0 800 420">
  <defs>
    <linearGradient id="bg" x1="0%" y1="0%" x2="100%" y2="100%">
      <stop offset="0%" stop-color="#f0fdf4"/>
      <stop offset="100%" stop-color="#dcfce7"/>
    </linearGradient>
  </defs>
  <rect width="800" height="420" fill="url(#bg)" rx="20"/>
  <line x1="80" y1="310" x2="720" y2="310" stroke="#d1d5db" stroke-width="1.5"/>
<line x1="120" y1="60" x2="120" y2="350" stroke="#d1d5db" stroke-width="1.5"/>
<path d="M 150,300 Q 280,80 420,120 Q 520,145 640,90" fill="none" stroke="#16a34a" stroke-width="3"/>
<path d="M 260,300 Q 280,80 420,120 Q 430,124 440,310 Z" fill="#16a34a" opacity="0.2"/>
<line x1="260" y1="60" x2="260" y2="310" stroke="#374151" stroke-width="1.5" stroke-dasharray="4,3"/>
<line x1="440" y1="60" x2="440" y2="310" stroke="#374151" stroke-width="1.5" stroke-dasharray="4,3"/>
<text x="350" y="230" text-anchor="middle" font-size="28" font-weight="900" font-family="monospace" fill="#15803d">∫f(x)dx</text>
<text x="260" y="330" text-anchor="middle" font-size="13" font-weight="700" font-family="sans-serif" fill="#374151">a</text>
<text x="440" y="330" text-anchor="middle" font-size="13" font-weight="700" font-family="sans-serif" fill="#374151">b</text>
<rect x="80" y="58" width="680" height="48" rx="12" fill="#15803d"/>
<text x="400" y="87" text-anchor="middle" font-size="14" font-weight="800" font-family="monospace" fill="#fff">∫xⁿdx = xⁿ⁺¹/(n+1)+C · ∫eˣdx = eˣ+C · ∫sinx dx = −cosx+C</text>
<rect x="80" y="345" width="310" height="50" rx="10" fill="#dcfce7" stroke="#16a34a" stroke-width="2"/>
<text x="235" y="366" text-anchor="middle" font-size="12" font-weight="700" font-family="monospace" fill="#14532d">By Parts: ∫uv dx = u∫v dx − ∫(u'∫v dx)dx</text>
<text x="235" y="387" text-anchor="middle" font-size="11" font-family="sans-serif" fill="#047857">ILATE rule for u selection</text>
<rect x="410" y="345" width="310" height="50" rx="10" fill="#dcfce7" stroke="#16a34a" stroke-width="2"/>
<text x="565" y="366" text-anchor="middle" font-size="12" font-weight="700" font-family="monospace" fill="#14532d">Definite: ∫ₐᵇf(x)dx = F(b)−F(a)</text>
<text x="565" y="387" text-anchor="middle" font-size="11" font-family="sans-serif" fill="#047857">Fundamental Theorem of Calculus</text>
</svg>