<?xml version="1.0" encoding="UTF-8"?>
<svg xmlns="http://www.w3.org/2000/svg" width="800" height="420" viewBox="0 0 800 420">
  <defs>
    <linearGradient id="bg" x1="0%" y1="0%" x2="100%" y2="100%">
      <stop offset="0%" stop-color="#fff1f2"/>
      <stop offset="100%" stop-color="#ffe4e6"/>
    </linearGradient>
  </defs>
  <rect width="800" height="420" fill="url(#bg)" rx="20"/>
  <rect x="310" y="100" width="180" height="240" rx="8" fill="#fecdd3" stroke="#e11d48" stroke-width="2.5"/>
<text x="400" y="130" text-anchor="middle" font-size="14" font-weight="800" font-family="sans-serif" fill="#9f1239">Coil (N turns)</text>
<ellipse cx="400" cy="145" rx="70" ry="10" fill="none" stroke="#be123c" stroke-width="2" opacity="0.5"/><ellipse cx="400" cy="167" rx="70" ry="10" fill="none" stroke="#be123c" stroke-width="2" opacity="0.56"/><ellipse cx="400" cy="189" rx="70" ry="10" fill="none" stroke="#be123c" stroke-width="2" opacity="0.62"/><ellipse cx="400" cy="211" rx="70" ry="10" fill="none" stroke="#be123c" stroke-width="2" opacity="0.6799999999999999"/><ellipse cx="400" cy="233" rx="70" ry="10" fill="none" stroke="#be123c" stroke-width="2" opacity="0.74"/><ellipse cx="400" cy="255" rx="70" ry="10" fill="none" stroke="#be123c" stroke-width="2" opacity="0.8"/><ellipse cx="400" cy="277" rx="70" ry="10" fill="none" stroke="#be123c" stroke-width="2" opacity="0.86"/><ellipse cx="400" cy="299" rx="70" ry="10" fill="none" stroke="#be123c" stroke-width="2" opacity="0.9199999999999999"/>
<rect x="140" y="155" width="50" height="120" rx="6" fill="#ef4444"/>
<rect x="155" y="168" width="20" height="94" rx="3" fill="#991b1b"/>
<text x="165" y="220" text-anchor="middle" font-size="11" font-weight="800" font-family="sans-serif" fill="#fff">N</text>
<text x="165" y="245" text-anchor="middle" font-size="11" font-weight="800" font-family="sans-serif" fill="#fff">S</text>
<polygon points="140,210 110,210 126,200" fill="#f97316"/>
<polygon points="140,220 110,220 126,230" fill="#f97316"/>
<text x="95" y="215" text-anchor="middle" font-size="11" font-weight="700" font-family="sans-serif" fill="#c2410c">motion</text>
<rect x="80" y="58" width="640" height="48" rx="12" fill="#be123c"/>
<text x="400" y="84" text-anchor="middle" font-size="14" font-weight="800" font-family="monospace" fill="#fff">Faraday: EMF = −N·dΦ/dt · Φ = BAcosθ</text>
<rect x="80" y="355" width="300" height="50" rx="10" fill="#ffe4e6" stroke="#e11d48" stroke-width="2"/>
<text x="230" y="378" text-anchor="middle" font-size="12" font-weight="700" font-family="monospace" fill="#9f1239">F = qv×B · F = BIL·sinθ</text>
<rect x="420" y="355" width="300" height="50" rx="10" fill="#ffe4e6" stroke="#e11d48" stroke-width="2"/>
<text x="570" y="372" text-anchor="middle" font-size="12" font-weight="700" font-family="sans-serif" fill="#9f1239">Lenz's Law · Self Induction</text>
<text x="570" y="394" text-anchor="middle" font-size="11" font-family="monospace" fill="#be123c">EMF = −L·dI/dt · L = μ₀n²V</text>
</svg>