<?xml version="1.0" encoding="UTF-8"?>
<svg xmlns="http://www.w3.org/2000/svg" width="800" height="420" viewBox="0 0 800 420">
  <defs>
    <linearGradient id="bg" x1="0%" y1="0%" x2="100%" y2="100%">
      <stop offset="0%" stop-color="#eff6ff"/>
      <stop offset="100%" stop-color="#dbeafe"/>
    </linearGradient>
  </defs>
  <rect width="800" height="420" fill="url(#bg)" rx="20"/>
  <line x1="80" y1="215" x2="720" y2="215" stroke="#94a3b8" stroke-width="1.5" stroke-dasharray="5,4"/>
<path d="M 380,80 Q 380,80 380,360" fill="none" stroke="#374151" stroke-width="1.5"/>
<ellipse cx="380" cy="215" rx="12" ry="110" fill="#bfdbfe" stroke="#2563eb" stroke-width="2.5"/>
<line x1="120" y1="160" x2="380" y2="160" stroke="#fbbf24" stroke-width="2.5"/>
<line x1="380" y1="160" x2="600" y2="250" stroke="#fbbf24" stroke-width="2.5"/>
<line x1="120" y1="270" x2="380" y2="270" stroke="#f97316" stroke-width="2.5"/>
<line x1="380" y1="270" x2="600" y2="185" stroke="#f97316" stroke-width="2.5"/>
<circle cx="560" cy="218" r="7" fill="#dc2626"/>
<text x="565" y="210" font-size="11" font-weight="700" font-family="sans-serif" fill="#dc2626">Image</text>
<line x1="560" y1="90" x2="560" y2="350" stroke="#dc2626" stroke-width="1.5" stroke-dasharray="4,3" opacity="0.5"/>
<rect x="80" y="58" width="640" height="48" rx="12" fill="#1d4ed8"/>
<text x="400" y="84" text-anchor="middle" font-size="14" font-weight="800" font-family="monospace" fill="#fff">Snell's Law: n₁sinθ₁ = n₂sinθ₂ · Lens: 1/v−1/u = 1/f</text>
<rect x="80" y="345" width="300" height="52" rx="10" fill="#dbeafe" stroke="#2563eb" stroke-width="2"/>
<text x="230" y="367" text-anchor="middle" font-size="12" font-weight="700" font-family="sans-serif" fill="#1e40af">Mirror: 1/v+1/u = 1/f = 1/2R</text>
<text x="230" y="388" text-anchor="middle" font-size="11" font-family="sans-serif" fill="#1e40af">m = −v/u · f = R/2</text>
<rect x="420" y="345" width="300" height="52" rx="10" fill="#dbeafe" stroke="#2563eb" stroke-width="2"/>
<text x="570" y="367" text-anchor="middle" font-size="12" font-weight="700" font-family="sans-serif" fill="#1e40af">Wave Optics: d·sinθ = nλ</text>
<text x="570" y="388" text-anchor="middle" font-size="11" font-family="sans-serif" fill="#1e40af">Young's Double Slit · Diffraction</text>
</svg>