<?xml version="1.0" encoding="UTF-8"?>
<svg xmlns="http://www.w3.org/2000/svg" width="800" height="420" viewBox="0 0 800 420">
  <defs>
    <linearGradient id="bg" x1="0%" y1="0%" x2="100%" y2="100%">
      <stop offset="0%" stop-color="#1e1b4b"/>
      <stop offset="100%" stop-color="#312e81"/>
    </linearGradient>
  </defs>
  <rect width="800" height="420" fill="url(#bg)" rx="20"/>
  <line x1="200" y1="320" x2="680" y2="320" stroke="#6b7280" stroke-width="1.5"/>
<line x1="200" y1="320" x2="200" y2="80" stroke="#6b7280" stroke-width="1.5"/>
<line x1="200" y1="320" x2="80" y2="390" stroke="#6b7280" stroke-width="1.5"/>
<text x="695" y="325" font-size="14" font-weight="700" font-family="sans-serif" fill="#94a3b8">x</text>
<text x="195" y="72" font-size="14" font-weight="700" font-family="sans-serif" fill="#94a3b8">z</text>
<text x="68" y="398" font-size="14" font-weight="700" font-family="sans-serif" fill="#94a3b8">y</text>
<line x1="200" y1="320" x2="480" y2="160" stroke="#818cf8" stroke-width="3"/>
<polygon points="480,160 465,175 490,168" fill="#818cf8"/>
<text x="492" y="155" font-size="13" font-weight="800" font-family="sans-serif" fill="#a5b4fc">v⃗ = aî+bĵ+ck̂</text>
<line x1="200" y1="320" x2="380" y2="230" stroke="#34d399" stroke-width="2.5"/>
<polygon points="380,230 366,240 375,226" fill="#34d399"/>
<text x="390" y="225" font-size="12" font-weight="700" font-family="sans-serif" fill="#6ee7b7">u⃗</text>
<rect x="490" y="80" width="250" height="140" rx="12" fill="#312e81" stroke="#818cf8" stroke-width="2"/>
<text x="615" y="107" text-anchor="middle" font-size="13" font-weight="800" font-family="sans-serif" fill="#c7d2fe">Dot Product</text>
<text x="615" y="130" text-anchor="middle" font-size="12" font-family="monospace" fill="#a5b4fc">a⃗·b⃗ = |a||b|cosθ</text>
<text x="615" y="160" text-anchor="middle" font-size="13" font-weight="800" font-family="sans-serif" fill="#c7d2fe">Cross Product</text>
<text x="615" y="183" text-anchor="middle" font-size="12" font-family="monospace" fill="#a5b4fc">|a⃗×b⃗| = |a||b|sinθ</text>
<text x="615" y="208" text-anchor="middle" font-size="11" font-family="sans-serif" fill="#818cf8">perpendicular to both</text>
<rect x="80" y="80" width="370" height="60" rx="12" fill="#4338ca"/>
<text x="265" y="105" text-anchor="middle" font-size="13" font-weight="800" font-family="monospace" fill="#e0e7ff">3D: distance = √(x²+y²+z²)</text>
<text x="265" y="132" text-anchor="middle" font-size="12" font-weight="700" font-family="monospace" fill="#c7d2fe">Direction cosines: l²+m²+n²=1</text>
<rect x="80" y="355" width="660" height="40" rx="10" fill="#4338ca"/>
<text x="400" y="380" text-anchor="middle" font-size="12" font-weight="800" font-family="monospace" fill="#e0e7ff">Plane: ax+by+cz=d · Line: (x−x₁)/l = (y−y₁)/m = (z−z₁)/n</text>
</svg>