<svg xmlns="http://www.w3.org/2000/svg" width="800" height="420" viewBox="0 0 800 420">
  <defs>
    <linearGradient id="bg" x1="0%" y1="0%" x2="100%" y2="100%">
      <stop offset="0%" style="stop-color:#fef2f2"/>
      <stop offset="100%" style="stop-color:#fecaca"/>
    </linearGradient>
  </defs>
  <rect width="800" height="420" fill="url(#bg)"/>
  <line x1="60" y1="200" x2="740" y2="200" stroke="#374151" stroke-width="3"/>
<polygon points="740,192 760,200 740,208" fill="#374151"/>
<polygon points="60,192 40,200 60,208" fill="#374151"/>
<line x1="110" y1="192" x2="110" y2="208" stroke="#dc2626" stroke-width="2.5"/>
<text x="110" y="228" text-anchor="middle" font-size="17" font-family="sans-serif" font-weight="700" fill="#dc2626">-6</text><line x1="159" y1="192" x2="159" y2="208" stroke="#dc2626" stroke-width="2.5"/>
<text x="159" y="228" text-anchor="middle" font-size="17" font-family="sans-serif" font-weight="700" fill="#dc2626">-5</text><line x1="208" y1="192" x2="208" y2="208" stroke="#dc2626" stroke-width="2.5"/>
<text x="208" y="228" text-anchor="middle" font-size="17" font-family="sans-serif" font-weight="700" fill="#dc2626">-4</text><line x1="257" y1="192" x2="257" y2="208" stroke="#dc2626" stroke-width="2.5"/>
<text x="257" y="228" text-anchor="middle" font-size="17" font-family="sans-serif" font-weight="700" fill="#dc2626">-3</text><line x1="306" y1="192" x2="306" y2="208" stroke="#dc2626" stroke-width="2.5"/>
<text x="306" y="228" text-anchor="middle" font-size="17" font-family="sans-serif" font-weight="700" fill="#dc2626">-2</text><line x1="355" y1="192" x2="355" y2="208" stroke="#dc2626" stroke-width="2.5"/>
<text x="355" y="228" text-anchor="middle" font-size="17" font-family="sans-serif" font-weight="700" fill="#dc2626">-1</text><line x1="404" y1="192" x2="404" y2="208" stroke="#374151" stroke-width="2.5"/>
<text x="404" y="228" text-anchor="middle" font-size="17" font-family="sans-serif" font-weight="700" fill="#374151">0</text><line x1="453" y1="192" x2="453" y2="208" stroke="#16a34a" stroke-width="2.5"/>
<text x="453" y="228" text-anchor="middle" font-size="17" font-family="sans-serif" font-weight="700" fill="#16a34a">1</text><line x1="502" y1="192" x2="502" y2="208" stroke="#16a34a" stroke-width="2.5"/>
<text x="502" y="228" text-anchor="middle" font-size="17" font-family="sans-serif" font-weight="700" fill="#16a34a">2</text><line x1="551" y1="192" x2="551" y2="208" stroke="#16a34a" stroke-width="2.5"/>
<text x="551" y="228" text-anchor="middle" font-size="17" font-family="sans-serif" font-weight="700" fill="#16a34a">3</text><line x1="600" y1="192" x2="600" y2="208" stroke="#16a34a" stroke-width="2.5"/>
<text x="600" y="228" text-anchor="middle" font-size="17" font-family="sans-serif" font-weight="700" fill="#16a34a">4</text><line x1="649" y1="192" x2="649" y2="208" stroke="#16a34a" stroke-width="2.5"/>
<text x="649" y="228" text-anchor="middle" font-size="17" font-family="sans-serif" font-weight="700" fill="#16a34a">5</text><line x1="698" y1="192" x2="698" y2="208" stroke="#16a34a" stroke-width="2.5"/>
<text x="698" y="228" text-anchor="middle" font-size="17" font-family="sans-serif" font-weight="700" fill="#16a34a">6</text>
<text x="270" y="165" text-anchor="middle" font-size="17" font-family="sans-serif" font-weight="700" fill="#dc2626">Negative</text>
<text x="400" y="155" text-anchor="middle" font-size="17" font-family="sans-serif" font-weight="700" fill="#374151">0</text>
<text x="530" y="165" text-anchor="middle" font-size="17" font-family="sans-serif" font-weight="700" fill="#16a34a">Positive</text>
<rect x="100" y="265" width="600" height="60" rx="12" fill="#fee2e2"/>
<text x="400" y="293" text-anchor="middle" font-size="15" font-family="sans-serif" font-weight="700" fill="#7f1d1d">Operations: (+)+(−) · (−)×(−)=+ · Division rules</text>
<text x="400" y="315" text-anchor="middle" font-size="13" font-family="sans-serif" fill="#991b1b">Commutative · Associative · Distributive properties</text>
<text x="400" y="380" text-anchor="middle" font-size="28" font-family="sans-serif" font-weight="800" fill="#7f1d1d">Integers</text>
</svg>