<svg xmlns="http://www.w3.org/2000/svg" width="800" height="420" viewBox="0 0 800 420">
  <defs>
    <linearGradient id="bg" x1="0%" y1="0%" x2="100%" y2="100%">
      <stop offset="0%" style="stop-color:#0f172a"/>
      <stop offset="100%" style="stop-color:#1e293b"/>
    </linearGradient>
  </defs>
  <rect width="800" height="420" fill="url(#bg)"/>
  <circle cx="140" cy="210" r="50" fill="#fbbf24" opacity=".8"/>
<line x1="195" y1="210" x2="220" y2="210" stroke="#fbbf24" stroke-width="2.5"/><line x1="187.63139720814414" y1="237.5" x2="209.2820323027551" y2="250" stroke="#fbbf24" stroke-width="2.5"/><line x1="167.5" y1="257.6313972081441" x2="180" y2="279.28203230275506" stroke="#fbbf24" stroke-width="2.5"/><line x1="140" y1="265" x2="140" y2="290" stroke="#fbbf24" stroke-width="2.5"/><line x1="112.50000000000001" y1="257.6313972081441" x2="100.00000000000001" y2="279.2820323027551" stroke="#fbbf24" stroke-width="2.5"/><line x1="92.36860279185586" y1="237.5" x2="70.7179676972449" y2="250" stroke="#fbbf24" stroke-width="2.5"/><line x1="85" y1="210" x2="60" y2="210" stroke="#fbbf24" stroke-width="2.5"/><line x1="92.36860279185588" y1="182.5" x2="70.71796769724492" y2="170" stroke="#fbbf24" stroke-width="2.5"/><line x1="112.49999999999997" y1="162.3686027918559" x2="99.99999999999997" y2="140.71796769724492" stroke="#fbbf24" stroke-width="2.5"/><line x1="140" y1="155" x2="139.99999999999997" y2="130" stroke="#fbbf24" stroke-width="2.5"/><line x1="167.5" y1="162.3686027918559" x2="180" y2="140.71796769724492" stroke="#fbbf24" stroke-width="2.5"/><line x1="187.6313972081441" y1="182.49999999999997" x2="209.28203230275506" y2="169.99999999999997" stroke="#fbbf24" stroke-width="2.5"/>
<line x1="220" y1="210" x2="400" y2="210" stroke="#fbbf24" stroke-width="3"/>
<rect x="400" y="160" width="12" height="100" rx="4" fill="#94a3b8"/>
<line x1="412" y1="210" x2="560" y2="140" stroke="#fbbf24" stroke-width="2.5"/>
<line x1="400" y1="130" x2="400" y2="290" stroke="#475569" stroke-width="1.5" stroke-dasharray="5,4"/>
<path d="M400,210 A40,40 0 0,1 430,175" fill="none" stroke="#60a5fa" stroke-width="2"/>
<text x="450" y="185" font-size="13" fill="#60a5fa">r</text>
<path d="M400,210 A40,40 0 0,0 430,175" fill="none" stroke="#f87171" stroke-width="2"/>
<text x="365" y="185" font-size="13" fill="#f87171">i</text>
<text x="560" y="140" font-size="13" fill="#fbbf24">Reflected ray</text>
<rect x="480" y="250" width="240" height="90" rx="12" fill="rgba(255,255,255,0.07)" stroke="#818cf8" stroke-width="2"/>
<text x="600" y="278" text-anchor="middle" font-size="13" fill="#a5b4fc">Laws of Reflection</text>
<text x="600" y="298" text-anchor="middle" font-size="12" fill="#94a3b8">∠i = ∠r</text>
<text x="600" y="318" text-anchor="middle" font-size="12" fill="#94a3b8">All 3 rays coplanar</text>
<text x="400" y="395" text-anchor="middle" font-size="26" font-family="sans-serif" font-weight="800" fill="#fbbf24">Light</text>
</svg>