<svg xmlns="http://www.w3.org/2000/svg" width="800" height="420" viewBox="0 0 800 420">
  <defs>
    <linearGradient id="bg" x1="0%" y1="0%" x2="100%" y2="100%">
      <stop offset="0%" style="stop-color:#eff6ff"/>
      <stop offset="100%" style="stop-color:#bfdbfe"/>
    </linearGradient>
  </defs>
  <rect width="800" height="420" fill="url(#bg)"/>
  <line x1="80" y1="280" x2="720" y2="280" stroke="#374151" stroke-width="2.5"/>
<line x1="80" y1="280" x2="80" y2="100" stroke="#374151" stroke-width="2.5"/>
<polygon points="720,272 740,280 720,288" fill="#374151"/>
<polygon points="72,100 80,80 88,100" fill="#374151"/>
<text x="730" y="298" font-size="13" fill="#374151">Time</text>
<text x="60" y="95" text-anchor="middle" font-size="13" fill="#374151">Dist</text>
<path d="M80,280 Q250,150 400,200 Q550,250 720,120" fill="none" stroke="#2563eb" stroke-width="3"/>
<text x="400" y="180" font-size="13" fill="#1d4ed8" font-weight="700">non-uniform</text>
<line x1="80" y1="280" x2="720" y2="120" stroke="#dc2626" stroke-width="2.5" stroke-dasharray="8,5"/>
<text x="550" y="175" font-size="13" fill="#dc2626" font-weight="700">uniform</text>
<rect x="80" y="310" width="640" height="50" rx="10" fill="#dbeafe" stroke="#2563eb" stroke-width="2"/>
<text x="400" y="335" text-anchor="middle" font-size="15" font-family="monospace" font-weight="700" fill="#1d4ed8">Speed = Distance / Time</text>
<text x="400" y="355" text-anchor="middle" font-size="13" fill="#1e3a8a">m/s · km/h · Odometer · Speedometer</text>
<text x="400" y="400" text-anchor="middle" font-size="26" font-family="sans-serif" font-weight="800" fill="#1e3a8a">Motion and Time</text>
</svg>