<svg xmlns="http://www.w3.org/2000/svg" width="800" height="420" viewBox="0 0 800 420">
  <defs>
    <linearGradient id="bg" x1="0%" y1="0%" x2="100%" y2="100%">
      <stop offset="0%" style="stop-color:#fdf4ff"/>
      <stop offset="100%" style="stop-color:#e9d5ff"/>
    </linearGradient>
  </defs>
  <rect width="800" height="420" fill="url(#bg)"/>
  <path d="M400,80 Q480,60 500,100 Q510,140 480,160 Q460,170 400,180 Q340,170 320,160 Q290,140 300,100 Q320,60 400,80 Z" fill="#fbbf24" stroke="#ca8a04" stroke-width="2.5"/>
<circle cx="400" cy="130" r="18" fill="#ca8a04"/>
<circle cx="120" cy="220" r="42" fill="white" stroke="#b45309" stroke-width="2.5"/>
<text x="120" y="215" text-anchor="middle" font-size="13" font-family="sans-serif" font-weight="700" fill="#b45309">Babur</text><text x="120" y="233" text-anchor="middle" font-size="11" font-family="sans-serif" font-weight="400" fill="#b45309">1526</text><circle cx="240" cy="260" r="42" fill="white" stroke="#92400e" stroke-width="2.5"/>
<text x="240" y="255" text-anchor="middle" font-size="13" font-family="sans-serif" font-weight="700" fill="#92400e">Humayun</text><text x="240" y="273" text-anchor="middle" font-size="11" font-family="sans-serif" font-weight="400" fill="#92400e">1530</text><circle cx="400" cy="200" r="42" fill="white" stroke="#7c3aed" stroke-width="2.5"/>
<text x="400" y="195" text-anchor="middle" font-size="13" font-family="sans-serif" font-weight="700" fill="#7c3aed">Akbar</text><text x="400" y="213" text-anchor="middle" font-size="11" font-family="sans-serif" font-weight="400" fill="#7c3aed">1556</text><circle cx="560" cy="260" r="42" fill="white" stroke="#1d4ed8" stroke-width="2.5"/>
<text x="560" y="255" text-anchor="middle" font-size="13" font-family="sans-serif" font-weight="700" fill="#1d4ed8">Jahangir</text><text x="560" y="273" text-anchor="middle" font-size="11" font-family="sans-serif" font-weight="400" fill="#1d4ed8">1605</text><circle cx="680" cy="220" r="42" fill="white" stroke="#059669" stroke-width="2.5"/>
<text x="680" y="215" text-anchor="middle" font-size="13" font-family="sans-serif" font-weight="700" fill="#059669">Shah Jahan</text><text x="680" y="233" text-anchor="middle" font-size="11" font-family="sans-serif" font-weight="400" fill="#059669">1628</text>
<text x="400" y="345" text-anchor="middle" font-size="14" fill="#374151">Taj Mahal · Fatehpur Sikri · Mansabdari · Din-i-Ilahi</text>
<text x="400" y="395" text-anchor="middle" font-size="26" font-family="sans-serif" font-weight="800" fill="#3b0764">The Mughal Empire</text>
</svg>