<svg xmlns="http://www.w3.org/2000/svg" width="800" height="420" viewBox="0 0 800 420">
  <defs>
    <linearGradient id="bg" x1="0%" y1="0%" x2="100%" y2="100%">
      <stop offset="0%" style="stop-color:#fdf4ff"/>
      <stop offset="100%" style="stop-color:#e9d5ff"/>
    </linearGradient>
  </defs>
  <rect width="800" height="420" fill="url(#bg)"/>
  <path d="M220,100 Q260,80 300,100 Q310,140 300,180 Q290,220 260,240 Q240,250 220,240 Q190,220 180,180 Q170,140 180,100 Z" fill="#e9d5ff" stroke="#7c3aed" stroke-width="2.5"/>
<text x="240" y="155" text-anchor="middle" font-size="13" font-family="sans-serif" font-weight="700" fill="#5b21b6">Mouth</text>
<rect x="230" y="250" width="20" height="60" rx="6" fill="#c4b5fd"/>
<rect x="190" y="310" width="100" height="80" rx="12" fill="#ddd6fe" stroke="#7c3aed" stroke-width="2"/>
<text x="240" y="358" text-anchor="middle" font-size="13" fill="#5b21b6">Stomach</text>
<rect x="200" y="390" width="80" height="50" rx="10" fill="#c4b5fd" stroke="#7c3aed" stroke-width="1.5"/>
<text x="240" y="420" text-anchor="middle" font-size="11" fill="#4c1d95">Intestine</text>
<rect x="420" y="100" width="320" height="300" rx="14" fill="#f5f3ff" stroke="#7c3aed" stroke-width="2"/>
<text x="580" y="135" text-anchor="middle" font-size="14" font-weight="700" fill="#5b21b6">Digestion Steps</text>
<text x="435" y="245" font-size="12" font-family="sans-serif" fill="#374151">• Ingestion: Taking in food</text><text x="435" y="270" font-size="12" font-family="sans-serif" fill="#374151">• Digestion: Breaking down</text><text x="435" y="295" font-size="12" font-family="sans-serif" fill="#374151">• Absorption: Into blood</text><text x="435" y="320" font-size="12" font-family="sans-serif" fill="#374151">• Assimilation: Used by cells</text><text x="435" y="345" font-size="12" font-family="sans-serif" fill="#374151">• Egestion: Removing waste</text>
<text x="400" y="430" text-anchor="middle" font-size="24" font-family="sans-serif" font-weight="800" fill="#3b0764">Nutrition in Animals</text>
</svg>