<svg xmlns="http://www.w3.org/2000/svg" width="800" height="420" viewBox="0 0 800 420">
  <defs>
    <linearGradient id="bg" x1="0%" y1="0%" x2="100%" y2="100%">
      <stop offset="0%" style="stop-color:#fffbeb"/>
      <stop offset="100%" style="stop-color:#fde68a"/>
    </linearGradient>
  </defs>
  <rect width="800" height="420" fill="url(#bg)"/>
  <rect x="100" y="230" width="180" height="150" rx="6" fill="#fef3c7" stroke="#b45309" stroke-width="3"/>
<polygon points="100,230 190,100 280,230" fill="#d97706" opacity=".8"/>
<rect x="170" y="310" width="40" height="70" rx="4" fill="#92400e"/>
<rect x="360" y="200" width="80" height="180" rx="8" fill="#fef3c7" stroke="#b45309" stroke-width="3"/>
<ellipse cx="400" cy="198" rx="40" ry="50" fill="#d97706" opacity=".8"/>
<line x1="400" y1="148" x2="400" y2="110" stroke="#b45309" stroke-width="3"/>
<circle cx="400" cy="105" r="8" fill="#fbbf24"/>
<rect x="520" y="160" width="160" height="220" rx="6" fill="#fef3c7" stroke="#b45309" stroke-width="3"/>
<polygon points="520,160 600,90 680,160" fill="#92400e" opacity=".8"/>
<rect x="570" y="290" width="60" height="90" rx="4" fill="#d97706" opacity=".8"/>
<text x="400" y="80" text-anchor="middle" font-size="16" font-family="sans-serif" font-weight="700" fill="#78350f">Temples · Mosques · Forts · Palaces</text>
<text x="400" y="405" text-anchor="middle" font-size="24" font-family="sans-serif" font-weight="800" fill="#78350f">Rulers and Buildings</text>
</svg>