<svg xmlns="http://www.w3.org/2000/svg" width="800" height="420" viewBox="0 0 800 420">
  <defs>
    <linearGradient id="bg" x1="0%" y1="0%" x2="100%" y2="100%">
      <stop offset="0%" style="stop-color:#fdf4ff"/>
      <stop offset="100%" style="stop-color:#e9d5ff"/>
    </linearGradient>
  </defs>
  <rect width="800" height="420" fill="url(#bg)"/>
  <line x1="400" y1="60" x2="400" y2="340" stroke="#9333ea" stroke-width="3" stroke-dasharray="10,6"/>
<line x1="100" y1="200" x2="700" y2="200" stroke="#7c3aed" stroke-width="2" stroke-dasharray="8,5" opacity=".5"/>
<polygon points="200,120 300,100 320,200 280,280 200,280 120,200 140,120" fill="#f3e8ff" stroke="#9333ea" stroke-width="2.5" opacity=".7"/>
<polygon points="600,120 700,100 720,200 680,280 600,280 520,200 540,120" fill="#f3e8ff" stroke="#9333ea" stroke-width="2.5" opacity=".7"/>
<text x="200" y="340" text-anchor="middle" font-size="14" font-family="sans-serif" font-weight="700" fill="#7e22ce">Line symmetry</text>
<text x="600" y="340" text-anchor="middle" font-size="14" font-family="sans-serif" font-weight="700" fill="#7e22ce">Rotational symmetry</text>
<path d="M570,200 A30,30 0 1,1 600,170" fill="none" stroke="#9333ea" stroke-width="2.5"/>
<polygon points="600,168 610,158 602,172" fill="#9333ea"/>
<text x="640" y="198" font-size="13" fill="#7e22ce">Order 3</text>
<text x="400" y="390" text-anchor="middle" font-size="26" font-family="sans-serif" font-weight="800" fill="#581c87">Symmetry</text>
</svg>