<svg xmlns="http://www.w3.org/2000/svg" width="800" height="420" viewBox="0 0 800 420">
  <defs>
    <linearGradient id="bg" x1="0%" y1="0%" x2="100%" y2="100%">
      <stop offset="0%" style="stop-color:#fffbeb"/>
      <stop offset="100%" style="stop-color:#fde68a"/>
    </linearGradient>
  </defs>
  <rect width="800" height="420" fill="url(#bg)"/>
  <line x1="80" y1="215" x2="720" y2="215" stroke="#92400e" stroke-width="3"/>
<polygon points="720,207 740,215 720,223" fill="#92400e"/>
<circle cx="120" cy="215" r="10" fill="#b45309"/>
<line x1="120" y1="205" x2="120" y2="165" stroke="#92400e" stroke-width="2"/>
<text x="120" y="158" text-anchor="middle" font-size="12" font-family="sans-serif" font-weight="700" fill="#92400e">700 CE</text>
<text x="120" y="240" text-anchor="middle" font-size="11" font-family="sans-serif" fill="#78350f">Rajputs</text>
<circle cx="270" cy="215" r="10" fill="#b45309"/>
<line x1="270" y1="205" x2="270" y2="165" stroke="#92400e" stroke-width="2"/>
<text x="270" y="158" text-anchor="middle" font-size="12" font-family="sans-serif" font-weight="700" fill="#92400e">1100 CE</text>
<text x="270" y="240" text-anchor="middle" font-size="11" font-family="sans-serif" fill="#78350f">Delhi</text>
<text x="270" y="256" text-anchor="middle" font-size="11" fill="#78350f">Sultanate</text><circle cx="420" cy="215" r="10" fill="#b45309"/>
<line x1="420" y1="205" x2="420" y2="165" stroke="#92400e" stroke-width="2"/>
<text x="420" y="158" text-anchor="middle" font-size="12" font-family="sans-serif" font-weight="700" fill="#92400e">1500 CE</text>
<text x="420" y="240" text-anchor="middle" font-size="11" font-family="sans-serif" fill="#78350f">Mughal</text>
<text x="420" y="256" text-anchor="middle" font-size="11" fill="#78350f">Empire</text><circle cx="570" cy="215" r="10" fill="#b45309"/>
<line x1="570" y1="205" x2="570" y2="165" stroke="#92400e" stroke-width="2"/>
<text x="570" y="158" text-anchor="middle" font-size="12" font-family="sans-serif" font-weight="700" fill="#92400e">1700 CE</text>
<text x="570" y="240" text-anchor="middle" font-size="11" font-family="sans-serif" fill="#78350f">Maratha</text>
<circle cx="680" cy="215" r="10" fill="#b45309"/>
<line x1="680" y1="205" x2="680" y2="165" stroke="#92400e" stroke-width="2"/>
<text x="680" y="158" text-anchor="middle" font-size="12" font-family="sans-serif" font-weight="700" fill="#92400e">1857</text>
<text x="680" y="240" text-anchor="middle" font-size="11" font-family="sans-serif" fill="#78350f">British</text>

<text x="400" y="110" text-anchor="middle" font-size="18" font-family="sans-serif" fill="#92400e" opacity=".4">📜 📖 🏺 🏯</text>
<rect x="80" y="290" width="640" height="60" rx="12" fill="#fef3c7" stroke="#92400e" stroke-width="2"/>
<text x="400" y="318" text-anchor="middle" font-size="14" fill="#78350f">Sources: Coins · Inscriptions · Manuscripts · Architecture</text>
<text x="400" y="338" text-anchor="middle" font-size="13" fill="#92400e">Maps · Chronicles · Archaeological finds</text>
<text x="400" y="395" text-anchor="middle" font-size="22" font-family="sans-serif" font-weight="800" fill="#78350f">Tracing Changes Through 1000 Years</text>
</svg>