<svg xmlns="http://www.w3.org/2000/svg" width="800" height="420" viewBox="0 0 800 420">
  <defs>
    <linearGradient id="bg" x1="0%" y1="0%" x2="100%" y2="100%">
      <stop offset="0%" style="stop-color:#fdf4ff"/>
      <stop offset="100%" style="stop-color:#e9d5ff"/>
    </linearGradient>
  </defs>
  <rect width="800" height="420" fill="url(#bg)"/>
  <rect x="80" y="130" width="120" height="120" rx="6" fill="#ede9fe" stroke="#7c3aed" stroke-width="3"/>
<polygon points="80,130 150,90 200,90 200,210 130,250 80,250" fill="none" stroke="#7c3aed" stroke-width="2" stroke-dasharray="5,4"/>
<line x1="80" y1="130" x2="150" y2="90" stroke="#7c3aed" stroke-width="2"/>
<line x1="200" y1="130" x2="200" y2="90" stroke="#7c3aed" stroke-width="2"/>
<text x="140" y="275" text-anchor="middle" font-size="14" font-weight="700" fill="#5b21b6">Cube</text>
<circle cx="380" cy="185" r="70" fill="#e9d5ff" stroke="#7c3aed" stroke-width="3"/>
<ellipse cx="380" cy="185" rx="70" ry="22" fill="none" stroke="#7c3aed" stroke-width="2" stroke-dasharray="5,4"/>
<text x="380" y="275" text-anchor="middle" font-size="14" font-weight="700" fill="#5b21b6">Sphere</text>
<ellipse cx="580" cy="235" rx="70" ry="25" fill="#ede9fe" stroke="#7c3aed" stroke-width="3"/>
<line x1="510" y1="235" x2="580" y2="110" stroke="#7c3aed" stroke-width="3"/>
<line x1="650" y1="235" x2="580" y2="110" stroke="#7c3aed" stroke-width="3"/>
<text x="580" y="275" text-anchor="middle" font-size="14" font-weight="700" fill="#5b21b6">Cone</text>
<text x="150" y="320" font-size="13" font-family="sans-serif" fill="#4c1d95">Euler: V − E + F = 2</text>
<text x="400" y="390" text-anchor="middle" font-size="22" font-family="sans-serif" font-weight="800" fill="#3b0764">Visualising Solid Shapes</text>
</svg>