<svg xmlns="http://www.w3.org/2000/svg" width="800" height="420" viewBox="0 0 800 420">
  <defs>
    <linearGradient id="bg" x1="0%" y1="0%" x2="100%" y2="100%">
      <stop offset="0%" style="stop-color:#eff6ff"/>
      <stop offset="100%" style="stop-color:#bfdbfe"/>
    </linearGradient>
  </defs>
  <rect width="800" height="420" fill="url(#bg)"/>
  <circle cx="200" cy="165" r="65" fill="#fbbf24" opacity=".7"/>
<circle cx="330" cy="155" r="80" fill="#f3f4f6" opacity=".9" stroke="#d1d5db" stroke-width="2"/>
<circle cx="430" cy="135" r="70" fill="#f3f4f6" opacity=".9" stroke="#d1d5db" stroke-width="2"/>
<path d="M250,230 L265,270 M295,230 L310,270 M340,220 L355,260" stroke="#60a5fa" stroke-width="3"/>
<text x="300" y="310" text-anchor="middle" font-size="14" font-weight="700" fill="#0369a1">Weather (daily)</text>
<rect x="440" y="100" width="280" height="230" rx="14" fill="#e0f2fe" stroke="#0891b2" stroke-width="2.5"/>
<text x="580" y="135" text-anchor="middle" font-size="14" font-weight="700" fill="#0369a1">Climate Zones</text>
<rect x="455" y="150" width="250" height="42" rx="8" fill="#fde68a"/>
<text x="580" y="176" text-anchor="middle" font-size="13" fill="#92400e">☀️ Tropical (hot, wet)</text>
<rect x="455" y="200" width="250" height="42" rx="8" fill="#bfdbfe"/>
<text x="580" y="226" text-anchor="middle" font-size="13" fill="#1d4ed8">🌤 Temperate</text>
<rect x="455" y="250" width="250" height="42" rx="8" fill="#dbeafe"/>
<text x="580" y="276" text-anchor="middle" font-size="13" fill="#0369a1">❄️ Polar (cold)</text>
<text x="400" y="395" text-anchor="middle" font-size="22" font-family="sans-serif" font-weight="800" fill="#0c4a6e">Weather, Climate &amp; Adaptations</text>
</svg>