<?xml version="1.0" encoding="UTF-8"?>
<svg xmlns="http://www.w3.org/2000/svg" width="800" height="420" viewBox="0 0 800 420">
  <defs>
    <linearGradient id="bg" x1="0%" y1="0%" x2="100%" y2="100%">
      <stop offset="0%" stop-color="#fef2f2"/>
      <stop offset="100%" stop-color="#fee2e2"/>
    </linearGradient>
  </defs>
  <rect width="800" height="420" fill="url(#bg)" rx="20"/>
  <!-- pH scale -->
<rect x="60" y="80" width="680" height="52" rx="26" fill="linear-gradient(90deg,#dc2626,#f97316,#fbbf24,#4ade80,#22c55e,#3b82f6,#7c3aed)"/>
<rect x="60" y="80" width="48" height="52" fill="#dc2626" opacity=".85"/><text x="84" y="112" text-anchor="middle" font-size="13" font-weight="700" font-family="sans-serif" fill="#fff">0</text><rect x="108" y="80" width="48" height="52" fill="#ef4444" opacity=".85"/><text x="132" y="112" text-anchor="middle" font-size="13" font-weight="700" font-family="sans-serif" fill="#fff">1</text><rect x="156" y="80" width="48" height="52" fill="#f97316" opacity=".85"/><text x="180" y="112" text-anchor="middle" font-size="13" font-weight="700" font-family="sans-serif" fill="#fff">2</text><rect x="204" y="80" width="48" height="52" fill="#fbbf24" opacity=".85"/><text x="228" y="112" text-anchor="middle" font-size="13" font-weight="700" font-family="sans-serif" fill="#fff">3</text><rect x="252" y="80" width="48" height="52" fill="#a3e635" opacity=".85"/><text x="276" y="112" text-anchor="middle" font-size="13" font-weight="700" font-family="sans-serif" fill="#fff">4</text><rect x="300" y="80" width="48" height="52" fill="#4ade80" opacity=".85"/><text x="324" y="112" text-anchor="middle" font-size="13" font-weight="700" font-family="sans-serif" fill="#fff">5</text><rect x="348" y="80" width="48" height="52" fill="#22c55e" opacity=".85"/><text x="372" y="112" text-anchor="middle" font-size="13" font-weight="700" font-family="sans-serif" fill="#fff">6</text><rect x="396" y="80" width="48" height="52" fill="#0891b2" opacity=".85"/><text x="420" y="112" text-anchor="middle" font-size="13" font-weight="700" font-family="sans-serif" fill="#fff">7</text><rect x="444" y="80" width="48" height="52" fill="#3b82f6" opacity=".85"/><text x="468" y="112" text-anchor="middle" font-size="13" font-weight="700" font-family="sans-serif" fill="#fff">8</text><rect x="492" y="80" width="48" height="52" fill="#6366f1" opacity=".85"/><text x="516" y="112" text-anchor="middle" font-size="13" font-weight="700" font-family="sans-serif" fill="#fff">9</text><rect x="540" y="80" width="48" height="52" fill="#7c3aed" opacity=".85"/><text x="564" y="112" text-anchor="middle" font-size="13" font-weight="700" font-family="sans-serif" fill="#fff">10</text><rect x="588" y="80" width="48" height="52" fill="#8b5cf6" opacity=".85"/><text x="612" y="112" text-anchor="middle" font-size="13" font-weight="700" font-family="sans-serif" fill="#fff">11</text><rect x="636" y="80" width="48" height="52" fill="#6d28d9" opacity=".85"/><text x="660" y="112" text-anchor="middle" font-size="13" font-weight="700" font-family="sans-serif" fill="#fff">12</text><rect x="684" y="80" width="48" height="52" fill="#4c1d95" opacity=".85"/><text x="708" y="112" text-anchor="middle" font-size="13" font-weight="700" font-family="sans-serif" fill="#fff">13</text>
<text x="60" y="150" font-size="13" font-weight="700" font-family="sans-serif" fill="#dc2626">Acidic ◄</text>
<text x="400" y="150" text-anchor="middle" font-size="13" font-weight="700" font-family="sans-serif" fill="#374151">pH 7 = Neutral</text>
<text x="740" y="150" text-anchor="end" font-size="13" font-weight="700" font-family="sans-serif" fill="#7c3aed">► Basic</text>
<!-- Indicators -->
<rect x="80" y="170" width="640" height="75" rx="12" fill="#fef2f2" stroke="#dc2626" stroke-width="1.5"/>
<text x="400" y="197" text-anchor="middle" font-size="14" font-weight="800" font-family="sans-serif" fill="#7f1d1d">Indicators</text>
<text x="400" y="220" text-anchor="middle" font-size="13" font-family="sans-serif" fill="#991b1b">Litmus: acid→red, base→blue  ·  Phenolphthalein  ·  Methyl orange</text>
<text x="400" y="238" text-anchor="middle" font-size="12" font-family="sans-serif" fill="#b91c1c">Neutralisation: Acid + Base → Salt + Water</text>
<!-- Salts -->
<rect x="80" y="265" width="640" height="80" rx="12" fill="#fff7ed" stroke="#f97316" stroke-width="1.5"/>
<text x="400" y="292" text-anchor="middle" font-size="14" font-weight="800" font-family="sans-serif" fill="#7c2d12">Common Salts</text>
<text x="400" y="316" text-anchor="middle" font-size="13" font-family="sans-serif" fill="#9a3412">NaCl · NaOH · Ca(OH)₂ · Baking soda NaHCO₃ · Washing soda Na₂CO₃</text>
<text x="400" y="338" text-anchor="middle" font-size="12" font-family="sans-serif" fill="#9a3412">Plaster of Paris: CaSO₄·½H₂O</text>
<text x="400" y="385" text-anchor="middle" font-size="24" font-family="sans-serif" font-weight="800" fill="#7f1d1d">Acids, Bases and Salts</text>
</svg>