<?xml version="1.0" encoding="UTF-8"?>
<svg xmlns="http://www.w3.org/2000/svg" width="800" height="420" viewBox="0 0 800 420">
  <defs>
    <linearGradient id="bg" x1="0%" y1="0%" x2="100%" y2="100%">
      <stop offset="0%" stop-color="#1c1917"/>
      <stop offset="100%" stop-color="#292524"/>
    </linearGradient>
  </defs>
  <rect width="800" height="420" fill="url(#bg)" rx="20"/>
  <rect x="0" y="0" width="800" height="420" fill="#1c1917"/>
<!-- Factory -->
<rect x="100" y="200" width="580" height="180" rx="4" fill="#292524" stroke="#57534e" stroke-width="2"/>
<!-- Chimneys with smoke -->

<rect x="160" y="120" width="40" height="82" rx="3" fill="#44403c" stroke="#57534e" stroke-width="1.5"/>
<ellipse cx="180" cy="120" rx="24" ry="10" fill="#57534e" stroke="#78716c" stroke-width="1.5"/>
<ellipse cx="188" cy="95" rx="20" ry="10" fill="#44403c" opacity=".8"/>
<ellipse cx="180" cy="72" rx="16" ry="8" fill="#57534e" opacity=".6"/>
<rect x="280" y="120" width="40" height="82" rx="3" fill="#44403c" stroke="#57534e" stroke-width="1.5"/>
<ellipse cx="300" cy="120" rx="24" ry="10" fill="#57534e" stroke="#78716c" stroke-width="1.5"/>
<ellipse cx="308" cy="95" rx="20" ry="10" fill="#44403c" opacity=".8"/>
<ellipse cx="300" cy="72" rx="16" ry="8" fill="#57534e" opacity=".6"/>
<rect x="400" y="120" width="40" height="82" rx="3" fill="#44403c" stroke="#57534e" stroke-width="1.5"/>
<ellipse cx="420" cy="120" rx="24" ry="10" fill="#57534e" stroke="#78716c" stroke-width="1.5"/>
<ellipse cx="428" cy="95" rx="20" ry="10" fill="#44403c" opacity=".8"/>
<ellipse cx="420" cy="72" rx="16" ry="8" fill="#57534e" opacity=".6"/>
<rect x="520" y="120" width="40" height="82" rx="3" fill="#44403c" stroke="#57534e" stroke-width="1.5"/>
<ellipse cx="540" cy="120" rx="24" ry="10" fill="#57534e" stroke="#78716c" stroke-width="1.5"/>
<ellipse cx="548" cy="95" rx="20" ry="10" fill="#44403c" opacity=".8"/>
<ellipse cx="540" cy="72" rx="16" ry="8" fill="#57534e" opacity=".6"/>
<!-- Windows -->
<rect x="130" y="225" width="40" height="50" rx="3" fill="#0f172a" stroke="#57534e" stroke-width="1"/><rect x="195" y="225" width="40" height="50" rx="3" fill="#0f172a" stroke="#57534e" stroke-width="1"/><rect x="260" y="225" width="40" height="50" rx="3" fill="#0f172a" stroke="#57534e" stroke-width="1"/><rect x="325" y="225" width="40" height="50" rx="3" fill="#0f172a" stroke="#57534e" stroke-width="1"/><rect x="450" y="225" width="40" height="50" rx="3" fill="#0f172a" stroke="#57534e" stroke-width="1"/><rect x="515" y="225" width="40" height="50" rx="3" fill="#0f172a" stroke="#57534e" stroke-width="1"/><rect x="580" y="225" width="40" height="50" rx="3" fill="#0f172a" stroke="#57534e" stroke-width="1"/><rect x="645" y="225" width="40" height="50" rx="3" fill="#0f172a" stroke="#57534e" stroke-width="1"/>
<!-- Era labels -->
<rect x="80" y="55" width="640" height="52" rx="12" fill="rgba(245,158,11,0.12)" stroke="#f59e0b" stroke-width="1.5"/>
<text x="400" y="80" text-anchor="middle" font-size="14" font-weight="800" font-family="sans-serif" fill="#f59e0b">Age of Industrialisation — 18th–19th Century Britain</text>
<text x="400" y="100" text-anchor="middle" font-size="13" font-family="sans-serif" fill="#d97706">Steam engine · Cotton mills · Railroads · Proto-industrialisation</text>
<text x="400" y="395" text-anchor="middle" font-size="22" font-family="sans-serif" font-weight="800" fill="#f59e0b">The Age of Industrialisation</text>
</svg>