<?xml version="1.0" encoding="UTF-8"?>
<svg xmlns="http://www.w3.org/2000/svg" width="800" height="420" viewBox="0 0 800 420">
  <defs>
    <linearGradient id="bg" x1="0%" y1="0%" x2="100%" y2="100%">
      <stop offset="0%" stop-color="#f0fdf4"/>
      <stop offset="100%" stop-color="#dcfce7"/>
    </linearGradient>
  </defs>
  <rect width="800" height="420" fill="url(#bg)" rx="20"/>
  <!-- Crop type wheel -->
<circle cx="250" cy="220" r="140" fill="#dcfce7" stroke="#16a34a" stroke-width="3"/>
<path d="M250,220 L250,80 A140,140 0 0,1 371,290 Z" fill="#16a34a" opacity=".6" stroke="#fff" stroke-width="2"/>
<text x="319" y="180" text-anchor="middle" font-size="12" font-weight="700" font-family="sans-serif" fill="#fff">Kharif</text>
<text x="319" y="196" text-anchor="middle" font-size="11" font-family="sans-serif" fill="#fff">Jun–Sep</text><path d="M250,220 L371,290 A140,140 0 0,1 129,290 Z" fill="#0284c7" opacity=".6" stroke="#fff" stroke-width="2"/>
<text x="250" y="300" text-anchor="middle" font-size="12" font-weight="700" font-family="sans-serif" fill="#fff">Rabi</text>
<text x="250" y="316" text-anchor="middle" font-size="11" font-family="sans-serif" fill="#fff">Oct–Mar</text><path d="M250,220 L129,290 A140,140 0 0,1 250,80 Z" fill="#f59e0b" opacity=".6" stroke="#fff" stroke-width="2"/>
<text x="181" y="180" text-anchor="middle" font-size="12" font-weight="700" font-family="sans-serif" fill="#fff">Zaid</text>
<text x="181" y="196" text-anchor="middle" font-size="11" font-family="sans-serif" fill="#fff">Summer</text>
<!-- Agriculture types -->
<rect x="430" y="80" width="320" height="270" rx="14" fill="#dcfce7" stroke="#16a34a" stroke-width="2"/>
<text x="590" y="112" text-anchor="middle" font-size="15" font-weight="900" font-family="sans-serif" fill="#14532d">Farming Types</text>
<text x="590" y="140" text-anchor="middle" font-size="13" font-family="sans-serif" fill="#15803d">Subsistence · Commercial</text>
<text x="590" y="163" text-anchor="middle" font-size="13" font-family="sans-serif" fill="#15803d">Plantation · Mixed</text>
<text x="590" y="192" text-anchor="middle" font-size="13" font-weight="700" font-family="sans-serif" fill="#14532d">Major Crops</text>
<text x="590" y="215" text-anchor="middle" font-size="13" font-family="sans-serif" fill="#15803d">Rice · Wheat · Cotton</text>
<text x="590" y="238" text-anchor="middle" font-size="13" font-family="sans-serif" fill="#15803d">Sugarcane · Tea · Coffee</text>
<text x="590" y="261" text-anchor="middle" font-size="13" font-family="sans-serif" fill="#15803d">Jute · Rubber · Oilseeds</text>
<text x="590" y="290" text-anchor="middle" font-size="12" font-family="sans-serif" fill="#14532d">Green Revolution (1960s)</text>
<text x="400" y="385" text-anchor="middle" font-size="26" font-family="sans-serif" font-weight="800" fill="#14532d">Agriculture</text>
</svg>