<?xml version="1.0" encoding="UTF-8"?>
<svg xmlns="http://www.w3.org/2000/svg" width="800" height="420" viewBox="0 0 800 420">
  <defs>
    <linearGradient id="bg" x1="0%" y1="0%" x2="100%" y2="100%">
      <stop offset="0%" stop-color="#f0fdf4"/>
      <stop offset="100%" stop-color="#dcfce7"/>
    </linearGradient>
  </defs>
  <rect width="800" height="420" fill="url(#bg)" rx="20"/>
  <rect x="80" y="260" width="70" height="60" rx="8" fill="#16a34a" opacity="0.5"/>
<text x="115" y="250" text-anchor="middle" font-size="14" font-weight="700" font-family="sans-serif" fill="#14532d">a+0d</text><rect x="170" y="230" width="70" height="90" rx="8" fill="#16a34a" opacity="0.5700000000000001"/>
<text x="205" y="220" text-anchor="middle" font-size="14" font-weight="700" font-family="sans-serif" fill="#14532d">a+1d</text><rect x="260" y="200" width="70" height="120" rx="8" fill="#16a34a" opacity="0.64"/>
<text x="295" y="190" text-anchor="middle" font-size="14" font-weight="700" font-family="sans-serif" fill="#14532d">a+2d</text><rect x="350" y="170" width="70" height="150" rx="8" fill="#16a34a" opacity="0.71"/>
<text x="385" y="160" text-anchor="middle" font-size="14" font-weight="700" font-family="sans-serif" fill="#14532d">a+3d</text><rect x="440" y="140" width="70" height="180" rx="8" fill="#16a34a" opacity="0.78"/>
<text x="475" y="130" text-anchor="middle" font-size="14" font-weight="700" font-family="sans-serif" fill="#14532d">a+4d</text><rect x="530" y="110" width="70" height="210" rx="8" fill="#16a34a" opacity="0.8500000000000001"/>
<text x="565" y="100" text-anchor="middle" font-size="14" font-weight="700" font-family="sans-serif" fill="#14532d">a+5d</text><rect x="620" y="80" width="70" height="240" rx="8" fill="#16a34a" opacity="0.92"/>
<text x="655" y="70" text-anchor="middle" font-size="14" font-weight="700" font-family="sans-serif" fill="#14532d">a+6d</text><rect x="710" y="50" width="70" height="270" rx="8" fill="#16a34a" opacity="0.99"/>
<text x="745" y="40" text-anchor="middle" font-size="14" font-weight="700" font-family="sans-serif" fill="#14532d">a+7d</text>
<rect x="60" y="60" width="680" height="80" rx="14" fill="#dcfce7" stroke="#16a34a" stroke-width="2"/>
<text x="400" y="93" text-anchor="middle" font-size="17" font-family="monospace" font-weight="900" fill="#14532d">aₙ = a + (n−1)d</text>
<text x="400" y="128" text-anchor="middle" font-size="17" font-family="monospace" font-weight="800" fill="#15803d">Sₙ = n/2 [2a + (n−1)d]</text>
<text x="400" y="385" text-anchor="middle" font-size="26" font-family="sans-serif" font-weight="800" fill="#14532d">Arithmetic Progressions</text>
</svg>