<?xml version="1.0" encoding="UTF-8"?>
<svg xmlns="http://www.w3.org/2000/svg" width="800" height="420" viewBox="0 0 800 420">
  <defs>
    <linearGradient id="bg" x1="0%" y1="0%" x2="100%" y2="100%">
      <stop offset="0%" stop-color="#eff6ff"/>
      <stop offset="100%" stop-color="#dbeafe"/>
    </linearGradient>
  </defs>
  <rect width="800" height="420" fill="url(#bg)" rx="20"/>
  <!-- Grid and axes -->
<line x1="120" y1="60" x2="120" y2="360" stroke="#dbeafe" stroke-width="1.2"/><line x1="205" y1="60" x2="205" y2="360" stroke="#dbeafe" stroke-width="1.2"/><line x1="290" y1="60" x2="290" y2="360" stroke="#dbeafe" stroke-width="1.2"/><line x1="375" y1="60" x2="375" y2="360" stroke="#dbeafe" stroke-width="1.2"/><line x1="460" y1="60" x2="460" y2="360" stroke="#dbeafe" stroke-width="1.2"/><line x1="545" y1="60" x2="545" y2="360" stroke="#dbeafe" stroke-width="1.2"/><line x1="630" y1="60" x2="630" y2="360" stroke="#dbeafe" stroke-width="1.2"/>
<line x1="80" y1="80" x2="720" y2="80" stroke="#dbeafe" stroke-width="1.2"/><line x1="80" y1="150" x2="720" y2="150" stroke="#dbeafe" stroke-width="1.2"/><line x1="80" y1="220" x2="720" y2="220" stroke="#dbeafe" stroke-width="1.2"/><line x1="80" y1="290" x2="720" y2="290" stroke="#dbeafe" stroke-width="1.2"/><line x1="80" y1="360" x2="720" y2="360" stroke="#dbeafe" stroke-width="1.2"/>
<line x1="80" y1="220" x2="720" y2="220" stroke="#374151" stroke-width="2.5"/>
<line x1="400" y1="60" x2="400" y2="360" stroke="#374151" stroke-width="2.5"/>
<circle cx="230" cy="290" r="8" fill="#dc2626"/>
<circle cx="570" cy="150" r="8" fill="#dc2626"/>
<line x1="230" y1="290" x2="570" y2="150" stroke="#3b82f6" stroke-width="2.5"/>
<circle cx="400" cy="220" r="8" fill="#7c3aed"/>
<text x="210" y="312" font-size="13" font-weight="700" font-family="sans-serif" fill="#dc2626">A(x₁,y₁)</text>
<text x="575" y="145" font-size="13" font-weight="700" font-family="sans-serif" fill="#dc2626">B(x₂,y₂)</text>
<text x="375" y="212" font-size="13" font-weight="700" font-family="sans-serif" fill="#5b21b6">M</text>
<rect x="60" y="362" width="680" height="42" rx="10" fill="#2563eb"/>
<text x="400" y="388" text-anchor="middle" font-size="14" font-family="monospace" font-weight="800" fill="#fff">d=√[(x₂−x₁)²+(y₂−y₁)²]  · Midpoint=((x₁+x₂)/2,(y₁+y₂)/2)  · Section formula</text>
</svg>