<?xml version="1.0" encoding="UTF-8"?>
<svg xmlns="http://www.w3.org/2000/svg" width="800" height="420" viewBox="0 0 800 420">
  <defs>
    <linearGradient id="bg" x1="0%" y1="0%" x2="100%" y2="100%">
      <stop offset="0%" stop-color="#0f172a"/>
      <stop offset="100%" stop-color="#1e293b"/>
    </linearGradient>
  </defs>
  <rect width="800" height="420" fill="url(#bg)" rx="20"/>
  <rect x="0" y="0" width="800" height="420" fill="#0f172a"/>
<!-- Circuit diagram -->
<!-- Battery -->
<line x1="120" y1="160" x2="120" y2="280" stroke="#fbbf24" stroke-width="3"/>
<line x1="120" y1="200" x2="160" y2="200" stroke="#fbbf24" stroke-width="5"/>
<line x1="120" y1="240" x2="155" y2="240" stroke="#fbbf24" stroke-width="2.5"/>
<text x="90" y="225" font-size="12" font-family="sans-serif" fill="#fbbf24">EMF</text>
<!-- Wires -->
<line x1="120" y1="160" x2="550" y2="160" stroke="#34d399" stroke-width="3"/>
<line x1="120" y1="280" x2="550" y2="280" stroke="#34d399" stroke-width="3"/>
<!-- Resistor -->
<rect x="300" y="148" width="120" height="24" rx="4" fill="#374151" stroke="#fbbf24" stroke-width="2"/>
<text x="360" y="165" text-anchor="middle" font-size="12" font-family="sans-serif" fill="#fbbf24">R</text>
<!-- Bulb -->
<circle cx="490" cy="220" r="30" fill="none" stroke="#fbbf24" stroke-width="2.5"/>
<line x1="490" y1="190" x2="490" y2="160" stroke="#fbbf24" stroke-width="2.5"/>
<line x1="490" y1="250" x2="490" y2="280" stroke="#fbbf24" stroke-width="2.5"/>
<!-- Arrows for current -->
<polygon points="218,155 235,160 218,165" fill="#34d399"/>
<polygon points="218,275 235,280 218,285" fill="#34d399"/>
<!-- Formulas -->
<rect x="550" y="100" width="210" height="200" rx="14" fill="rgba(251,191,36,0.1)" stroke="#fbbf24" stroke-width="1.5"/>
<text x="655" y="130" text-anchor="middle" font-size="14" font-weight="800" font-family="sans-serif" fill="#fbbf24">Ohm's Law</text>
<text x="655" y="160" text-anchor="middle" font-size="18" font-family="monospace" font-weight="900" fill="#fde68a">V = IR</text>
<text x="655" y="195" text-anchor="middle" font-size="13" font-family="monospace" fill="#fbbf24">P = VI = I²R</text>
<text x="655" y="220" text-anchor="middle" font-size="13" font-family="monospace" fill="#fbbf24">R=ρL/A</text>
<text x="655" y="248" text-anchor="middle" font-size="12" font-family="sans-serif" fill="#fbbf24">Series: R=R₁+R₂</text>
<text x="655" y="272" text-anchor="middle" font-size="12" font-family="sans-serif" fill="#fbbf24">Parallel: 1/R=1/R₁+1/R₂</text>
<text x="400" y="390" text-anchor="middle" font-size="26" font-family="sans-serif" font-weight="800" fill="#fbbf24">Electricity</text>
</svg>