<?xml version="1.0" encoding="UTF-8"?>
<svg xmlns="http://www.w3.org/2000/svg" width="800" height="420" viewBox="0 0 800 420">
  <defs>
    <linearGradient id="bg" x1="0%" y1="0%" x2="100%" y2="100%">
      <stop offset="0%" stop-color="#0f172a"/>
      <stop offset="100%" stop-color="#1e293b"/>
    </linearGradient>
  </defs>
  <rect width="800" height="420" fill="url(#bg)" rx="20"/>
  <rect x="0" y="0" width="800" height="420" fill="#0f172a"/>
<!-- Globe connections -->
<circle cx="400" cy="200" r="140" fill="none" stroke="#1e40af" stroke-width="2" stroke-dasharray="5,4"/>
<circle cx="400" cy="200" r="100" fill="none" stroke="#1e3a8a" stroke-width="1.5" stroke-dasharray="4,4"/>

<circle cx="200" cy="130" r="28" fill="#1e3a8a" stroke="#38bdf8" stroke-width="1.5"/>
<text x="200" y="138" text-anchor="middle" font-size="22" font-family="sans-serif">🇮🇳</text>
<line x1="200" y1="130" x2="400" y2="200" stroke="#38bdf8" stroke-width="1.5" opacity=".5"/>
<circle cx="580" cy="120" r="28" fill="#1e3a8a" stroke="#38bdf8" stroke-width="1.5"/>
<text x="580" y="128" text-anchor="middle" font-size="22" font-family="sans-serif">🇺🇸</text>
<line x1="580" y1="120" x2="400" y2="200" stroke="#38bdf8" stroke-width="1.5" opacity=".5"/>
<circle cx="180" cy="290" r="28" fill="#1e3a8a" stroke="#38bdf8" stroke-width="1.5"/>
<text x="180" y="298" text-anchor="middle" font-size="22" font-family="sans-serif">🇬🇧</text>
<line x1="180" y1="290" x2="400" y2="200" stroke="#38bdf8" stroke-width="1.5" opacity=".5"/>
<circle cx="600" cy="280" r="28" fill="#1e3a8a" stroke="#38bdf8" stroke-width="1.5"/>
<text x="600" y="288" text-anchor="middle" font-size="22" font-family="sans-serif">🇨🇳</text>
<line x1="600" y1="280" x2="400" y2="200" stroke="#38bdf8" stroke-width="1.5" opacity=".5"/>
<circle cx="400" cy="80" r="28" fill="#1e3a8a" stroke="#38bdf8" stroke-width="1.5"/>
<text x="400" y="88" text-anchor="middle" font-size="22" font-family="sans-serif">🇩🇪</text>
<line x1="400" y1="80" x2="400" y2="200" stroke="#38bdf8" stroke-width="1.5" opacity=".5"/>
<circle cx="400" cy="200" r="35" fill="#1d4ed8" stroke="#38bdf8" stroke-width="2.5"/>
<text x="400" y="205" text-anchor="middle" font-size="13" font-weight="800" font-family="sans-serif" fill="#fff">MNCs</text>
<rect x="80" y="350" width="640" height="48" rx="12" fill="rgba(56,189,248,0.1)" stroke="#38bdf8" stroke-width="1.5"/>
<text x="400" y="374" text-anchor="middle" font-size="13" font-family="sans-serif" fill="#7dd3fc">WTO · FDI · Outsourcing · SEZ · Fair globalisation</text>
<text x="400" y="63" text-anchor="middle" font-size="24" font-family="sans-serif" font-weight="800" fill="#38bdf8">Globalisation and the Indian Economy</text>
</svg>