<?xml version="1.0" encoding="UTF-8"?>
<svg xmlns="http://www.w3.org/2000/svg" width="800" height="420" viewBox="0 0 800 420">
  <defs>
    <linearGradient id="bg" x1="0%" y1="0%" x2="100%" y2="100%">
      <stop offset="0%" stop-color="#fdf4ff"/>
      <stop offset="100%" stop-color="#f3e8ff"/>
    </linearGradient>
  </defs>
  <rect width="800" height="420" fill="url(#bg)" rx="20"/>
  <!-- DNA double helix -->
<ellipse cx="80" cy="89" rx="80" ry="8" fill="none" stroke="#e9d5ff" stroke-width="1.5"/>
<circle cx="80" cy="70" r="12" fill="#9333ea" opacity=".7"/>
<circle cx="80" cy="70" r="12" fill="#ec4899" opacity=".7"/>
<line x1="80" y1="70" x2="80" y2="70" stroke="#c4b5fd" stroke-width="2" stroke-dasharray="4,3"/><ellipse cx="80" cy="127" rx="80" ry="8" fill="none" stroke="#e9d5ff" stroke-width="1.5"/>
<circle cx="137" cy="108" r="12" fill="#9333ea" opacity=".7"/>
<circle cx="23" cy="108" r="12" fill="#ec4899" opacity=".7"/>
<line x1="137" y1="108" x2="23" y2="108" stroke="#c4b5fd" stroke-width="2" stroke-dasharray="4,3"/><ellipse cx="80" cy="165" rx="80" ry="8" fill="none" stroke="#e9d5ff" stroke-width="1.5"/>
<circle cx="160" cy="146" r="12" fill="#9333ea" opacity=".7"/>
<circle cx="0" cy="146" r="12" fill="#ec4899" opacity=".7"/>
<line x1="160" y1="146" x2="0" y2="146" stroke="#c4b5fd" stroke-width="2" stroke-dasharray="4,3"/><ellipse cx="80" cy="203" rx="80" ry="8" fill="none" stroke="#e9d5ff" stroke-width="1.5"/>
<circle cx="134" cy="184" r="12" fill="#9333ea" opacity=".7"/>
<circle cx="26" cy="184" r="12" fill="#ec4899" opacity=".7"/>
<line x1="134" y1="184" x2="26" y2="184" stroke="#c4b5fd" stroke-width="2" stroke-dasharray="4,3"/><ellipse cx="80" cy="241" rx="80" ry="8" fill="none" stroke="#e9d5ff" stroke-width="1.5"/>
<circle cx="75" cy="222" r="12" fill="#9333ea" opacity=".7"/>
<circle cx="85" cy="222" r="12" fill="#ec4899" opacity=".7"/>
<line x1="75" y1="222" x2="85" y2="222" stroke="#c4b5fd" stroke-width="2" stroke-dasharray="4,3"/><ellipse cx="80" cy="279" rx="80" ry="8" fill="none" stroke="#e9d5ff" stroke-width="1.5"/>
<circle cx="19" cy="260" r="12" fill="#9333ea" opacity=".7"/>
<circle cx="141" cy="260" r="12" fill="#ec4899" opacity=".7"/>
<line x1="19" y1="260" x2="141" y2="260" stroke="#c4b5fd" stroke-width="2" stroke-dasharray="4,3"/><ellipse cx="80" cy="317" rx="80" ry="8" fill="none" stroke="#e9d5ff" stroke-width="1.5"/>
<circle cx="0" cy="298" r="12" fill="#9333ea" opacity=".7"/>
<circle cx="160" cy="298" r="12" fill="#ec4899" opacity=".7"/>
<line x1="0" y1="298" x2="160" y2="298" stroke="#c4b5fd" stroke-width="2" stroke-dasharray="4,3"/><ellipse cx="80" cy="355" rx="80" ry="8" fill="none" stroke="#e9d5ff" stroke-width="1.5"/>
<circle cx="29" cy="336" r="12" fill="#9333ea" opacity=".7"/>
<circle cx="131" cy="336" r="12" fill="#ec4899" opacity=".7"/>
<line x1="29" y1="336" x2="131" y2="336" stroke="#c4b5fd" stroke-width="2" stroke-dasharray="4,3"/>
<!-- Mendel's laws -->
<rect x="220" y="70" width="540" height="245" rx="16" fill="#f3e8ff" stroke="#9333ea" stroke-width="2"/>
<text x="490" y="104" text-anchor="middle" font-size="16" font-weight="900" font-family="sans-serif" fill="#6b21a8">Mendel's Laws</text>
<text x="490" y="134" text-anchor="middle" font-size="13" font-weight="700" font-family="sans-serif" fill="#7e22ce">Law of Dominance</text>
<text x="490" y="155" text-anchor="middle" font-size="12" font-family="sans-serif" fill="#374151">Dominant trait masks recessive</text>
<text x="490" y="185" text-anchor="middle" font-size="13" font-weight="700" font-family="sans-serif" fill="#7e22ce">Law of Segregation</text>
<text x="490" y="206" text-anchor="middle" font-size="12" font-family="sans-serif" fill="#374151">Alleles separate during gamete formation</text>
<text x="490" y="236" text-anchor="middle" font-size="13" font-weight="700" font-family="sans-serif" fill="#7e22ce">Evolution (Darwin)</text>
<text x="490" y="257" text-anchor="middle" font-size="12" font-family="sans-serif" fill="#374151">Natural selection · Inherited variation</text>
<text x="490" y="282" text-anchor="middle" font-size="12" font-family="sans-serif" fill="#374151">Homologous · Analogous organs</text>
<text x="400" y="350" text-anchor="middle" font-size="24" font-family="sans-serif" font-weight="800" fill="#581c87">Heredity and Evolution</text>
</svg>