<?xml version="1.0" encoding="UTF-8"?>
<svg xmlns="http://www.w3.org/2000/svg" width="800" height="420" viewBox="0 0 800 420">
  <defs>
    <linearGradient id="bg" x1="0%" y1="0%" x2="100%" y2="100%">
      <stop offset="0%" stop-color="#f0fdf4"/>
      <stop offset="100%" stop-color="#dcfce7"/>
    </linearGradient>
  </defs>
  <rect width="800" height="420" fill="url(#bg)" rx="20"/>
  <!-- Scales of democracy outcomes -->
<line x1="400" y1="80" x2="400" y2="200" stroke="#374151" stroke-width="3.5"/>
<line x1="180" y1="160" x2="620" y2="160" stroke="#16a34a" stroke-width="3.5"/>
<!-- Left pan: positive -->
<path d="M 180,160 Q 220,230 260,230 Q 300,230 340,160" fill="none" stroke="#16a34a" stroke-width="2.5"/>
<rect x="190" y="228" width="145" height="110" rx="12" fill="#dcfce7" stroke="#16a34a" stroke-width="2"/>
<text x="263" y="258" text-anchor="middle" font-size="13" font-weight="800" font-family="sans-serif" fill="#14532d">Positives</text>
<text x="263" y="280" text-anchor="middle" font-size="12" font-family="sans-serif" fill="#15803d">Accountability</text>
<text x="263" y="300" text-anchor="middle" font-size="12" font-family="sans-serif" fill="#15803d">Rights protected</text>
<text x="263" y="320" text-anchor="middle" font-size="12" font-family="sans-serif" fill="#15803d">Peaceful transfer</text>
<!-- Right pan: challenges -->
<path d="M 460,160 Q 500,240 540,240 Q 580,240 620,160" fill="none" stroke="#dc2626" stroke-width="2.5"/>
<rect x="465" y="238" width="150" height="110" rx="12" fill="#fef2f2" stroke="#dc2626" stroke-width="2"/>
<text x="540" y="268" text-anchor="middle" font-size="13" font-weight="800" font-family="sans-serif" fill="#991b1b">Challenges</text>
<text x="540" y="290" text-anchor="middle" font-size="12" font-family="sans-serif" fill="#dc2626">Slow decisions</text>
<text x="540" y="310" text-anchor="middle" font-size="12" font-family="sans-serif" fill="#dc2626">Corruption risk</text>
<text x="540" y="330" text-anchor="middle" font-size="12" font-family="sans-serif" fill="#dc2626">Inequality</text>
<text x="400" y="385" text-anchor="middle" font-size="24" font-family="sans-serif" font-weight="800" fill="#14532d">Outcomes of Democracy</text>
</svg>