<?xml version="1.0" encoding="UTF-8"?>
<svg xmlns="http://www.w3.org/2000/svg" width="800" height="420" viewBox="0 0 800 420">
  <defs>
    <linearGradient id="bg" x1="0%" y1="0%" x2="100%" y2="100%">
      <stop offset="0%" stop-color="#f0fdf4"/>
      <stop offset="100%" stop-color="#dcfce7"/>
    </linearGradient>
  </defs>
  <rect width="800" height="420" fill="url(#bg)" rx="20"/>
  <!-- Grid -->
<line x1="130" y1="60" x2="130" y2="360" stroke="#d1fae5" stroke-width="1.2"/><line x1="210" y1="60" x2="210" y2="360" stroke="#d1fae5" stroke-width="1.2"/><line x1="290" y1="60" x2="290" y2="360" stroke="#d1fae5" stroke-width="1.2"/><line x1="370" y1="60" x2="370" y2="360" stroke="#d1fae5" stroke-width="1.2"/><line x1="450" y1="60" x2="450" y2="360" stroke="#d1fae5" stroke-width="1.2"/><line x1="530" y1="60" x2="530" y2="360" stroke="#d1fae5" stroke-width="1.2"/><line x1="610" y1="60" x2="610" y2="360" stroke="#d1fae5" stroke-width="1.2"/>
<line x1="90" y1="80" x2="720" y2="80" stroke="#d1fae5" stroke-width="1.2"/><line x1="90" y1="150" x2="720" y2="150" stroke="#d1fae5" stroke-width="1.2"/><line x1="90" y1="220" x2="720" y2="220" stroke="#d1fae5" stroke-width="1.2"/><line x1="90" y1="290" x2="720" y2="290" stroke="#d1fae5" stroke-width="1.2"/><line x1="90" y1="360" x2="720" y2="360" stroke="#d1fae5" stroke-width="1.2"/>
<line x1="90" y1="220" x2="720" y2="220" stroke="#374151" stroke-width="2"/>
<line x1="400" y1="60" x2="400" y2="360" stroke="#374151" stroke-width="2"/>
<!-- Line 1 -->
<line x1="100" y1="320" x2="700" y2="80" stroke="#16a34a" stroke-width="3"/>
<text x="710" y="77" font-size="13" font-weight="700" font-family="sans-serif" fill="#15803d">L₁</text>
<!-- Line 2 -->
<line x1="100" y1="120" x2="700" y2="310" stroke="#dc2626" stroke-width="3"/>
<text x="710" y="318" font-size="13" font-weight="700" font-family="sans-serif" fill="#dc2626">L₂</text>
<circle cx="385" cy="198" r="10" fill="#7c3aed"/>
<text x="350" y="185" font-size="13" font-weight="700" font-family="sans-serif" fill="#5b21b6">Solution</text>
<rect x="80" y="362" width="640" height="38" rx="10" fill="#16a34a"/>
<text x="400" y="387" text-anchor="middle" font-size="14" font-family="sans-serif" font-weight="800" fill="#fff">Consistent (unique/infinite) · Inconsistent (parallel, no solution)</text>
</svg>