<?xml version="1.0" encoding="UTF-8"?>
<svg xmlns="http://www.w3.org/2000/svg" width="800" height="420" viewBox="0 0 800 420">
  <defs>
    <linearGradient id="bg" x1="0%" y1="0%" x2="100%" y2="100%">
      <stop offset="0%" stop-color="#1e1b4b"/>
      <stop offset="100%" stop-color="#312e81"/>
    </linearGradient>
  </defs>
  <rect width="800" height="420" fill="url(#bg)" rx="20"/>
  <rect x="0" y="0" width="800" height="420" fill="#1e1b4b"/>
<!-- Periodic table mini -->
<rect x="42" y="70" width="36" height="46" rx="4" fill="#818cf8" opacity=".6" stroke="#a78bfa" stroke-width="0.8"/><rect x="42" y="122" width="36" height="46" rx="4" fill="#6366f1" opacity=".6" stroke="#a78bfa" stroke-width="0.8"/><rect x="42" y="174" width="36" height="46" rx="4" fill="#4f46e5" opacity=".6" stroke="#a78bfa" stroke-width="0.8"/><rect x="42" y="226" width="36" height="46" rx="4" fill="#4338ca" opacity=".6" stroke="#a78bfa" stroke-width="0.8"/><rect x="82" y="70" width="36" height="46" rx="4" fill="#818cf8" opacity=".6" stroke="#a78bfa" stroke-width="0.8"/><rect x="82" y="122" width="36" height="46" rx="4" fill="#6366f1" opacity=".6" stroke="#a78bfa" stroke-width="0.8"/><rect x="82" y="174" width="36" height="46" rx="4" fill="#4f46e5" opacity=".6" stroke="#a78bfa" stroke-width="0.8"/><rect x="82" y="226" width="36" height="46" rx="4" fill="#4338ca" opacity=".6" stroke="#a78bfa" stroke-width="0.8"/><rect x="122" y="70" width="36" height="46" rx="4" fill="#818cf8" opacity=".6" stroke="#a78bfa" stroke-width="0.8"/><rect x="122" y="122" width="36" height="46" rx="4" fill="#6366f1" opacity=".6" stroke="#a78bfa" stroke-width="0.8"/><rect x="122" y="174" width="36" height="46" rx="4" fill="#4f46e5" opacity=".6" stroke="#a78bfa" stroke-width="0.8"/><rect x="122" y="226" width="36" height="46" rx="4" fill="#4338ca" opacity=".6" stroke="#a78bfa" stroke-width="0.8"/><rect x="162" y="70" width="36" height="46" rx="4" fill="#818cf8" opacity=".6" stroke="#a78bfa" stroke-width="0.8"/><rect x="162" y="122" width="36" height="46" rx="4" fill="#6366f1" opacity=".6" stroke="#a78bfa" stroke-width="0.8"/><rect x="162" y="174" width="36" height="46" rx="4" fill="#4f46e5" opacity=".6" stroke="#a78bfa" stroke-width="0.8"/><rect x="162" y="226" width="36" height="46" rx="4" fill="#4338ca" opacity=".6" stroke="#a78bfa" stroke-width="0.8"/><rect x="202" y="70" width="36" height="46" rx="4" fill="#818cf8" opacity=".6" stroke="#a78bfa" stroke-width="0.8"/><rect x="202" y="122" width="36" height="46" rx="4" fill="#6366f1" opacity=".6" stroke="#a78bfa" stroke-width="0.8"/><rect x="202" y="174" width="36" height="46" rx="4" fill="#4f46e5" opacity=".6" stroke="#a78bfa" stroke-width="0.8"/><rect x="202" y="226" width="36" height="46" rx="4" fill="#4338ca" opacity=".6" stroke="#a78bfa" stroke-width="0.8"/><rect x="242" y="70" width="36" height="46" rx="4" fill="#818cf8" opacity=".6" stroke="#a78bfa" stroke-width="0.8"/><rect x="242" y="122" width="36" height="46" rx="4" fill="#6366f1" opacity=".6" stroke="#a78bfa" stroke-width="0.8"/><rect x="242" y="174" width="36" height="46" rx="4" fill="#4f46e5" opacity=".6" stroke="#a78bfa" stroke-width="0.8"/><rect x="242" y="226" width="36" height="46" rx="4" fill="#4338ca" opacity=".6" stroke="#a78bfa" stroke-width="0.8"/><rect x="282" y="70" width="36" height="46" rx="4" fill="#818cf8" opacity=".6" stroke="#a78bfa" stroke-width="0.8"/><rect x="282" y="122" width="36" height="46" rx="4" fill="#6366f1" opacity=".6" stroke="#a78bfa" stroke-width="0.8"/><rect x="282" y="174" width="36" height="46" rx="4" fill="#4f46e5" opacity=".6" stroke="#a78bfa" stroke-width="0.8"/><rect x="282" y="226" width="36" height="46" rx="4" fill="#4338ca" opacity=".6" stroke="#a78bfa" stroke-width="0.8"/><rect x="322" y="70" width="36" height="46" rx="4" fill="#818cf8" opacity=".6" stroke="#a78bfa" stroke-width="0.8"/><rect x="322" y="122" width="36" height="46" rx="4" fill="#6366f1" opacity=".6" stroke="#a78bfa" stroke-width="0.8"/><rect x="322" y="174" width="36" height="46" rx="4" fill="#4f46e5" opacity=".6" stroke="#a78bfa" stroke-width="0.8"/><rect x="322" y="226" width="36" height="46" rx="4" fill="#4338ca" opacity=".6" stroke="#a78bfa" stroke-width="0.8"/><rect x="362" y="70" width="36" height="46" rx="4" fill="#818cf8" opacity=".6" stroke="#a78bfa" stroke-width="0.8"/><rect x="362" y="122" width="36" height="46" rx="4" fill="#6366f1" opacity=".6" stroke="#a78bfa" stroke-width="0.8"/><rect x="362" y="174" width="36" height="46" rx="4" fill="#4f46e5" opacity=".6" stroke="#a78bfa" stroke-width="0.8"/><rect x="362" y="226" width="36" height="46" rx="4" fill="#4338ca" opacity=".6" stroke="#a78bfa" stroke-width="0.8"/><rect x="402" y="70" width="36" height="46" rx="4" fill="#818cf8" opacity=".6" stroke="#a78bfa" stroke-width="0.8"/><rect x="402" y="122" width="36" height="46" rx="4" fill="#6366f1" opacity=".6" stroke="#a78bfa" stroke-width="0.8"/><rect x="402" y="174" width="36" height="46" rx="4" fill="#4f46e5" opacity=".6" stroke="#a78bfa" stroke-width="0.8"/><rect x="402" y="226" width="36" height="46" rx="4" fill="#4338ca" opacity=".6" stroke="#a78bfa" stroke-width="0.8"/><rect x="442" y="70" width="36" height="46" rx="4" fill="#818cf8" opacity=".6" stroke="#a78bfa" stroke-width="0.8"/><rect x="442" y="122" width="36" height="46" rx="4" fill="#6366f1" opacity=".6" stroke="#a78bfa" stroke-width="0.8"/><rect x="442" y="174" width="36" height="46" rx="4" fill="#4f46e5" opacity=".6" stroke="#a78bfa" stroke-width="0.8"/><rect x="442" y="226" width="36" height="46" rx="4" fill="#4338ca" opacity=".6" stroke="#a78bfa" stroke-width="0.8"/><rect x="482" y="70" width="36" height="46" rx="4" fill="#818cf8" opacity=".6" stroke="#a78bfa" stroke-width="0.8"/><rect x="482" y="122" width="36" height="46" rx="4" fill="#6366f1" opacity=".6" stroke="#a78bfa" stroke-width="0.8"/><rect x="482" y="174" width="36" height="46" rx="4" fill="#4f46e5" opacity=".6" stroke="#a78bfa" stroke-width="0.8"/><rect x="482" y="226" width="36" height="46" rx="4" fill="#4338ca" opacity=".6" stroke="#a78bfa" stroke-width="0.8"/><rect x="522" y="70" width="36" height="46" rx="4" fill="#818cf8" opacity=".6" stroke="#a78bfa" stroke-width="0.8"/><rect x="522" y="122" width="36" height="46" rx="4" fill="#6366f1" opacity=".6" stroke="#a78bfa" stroke-width="0.8"/><rect x="522" y="174" width="36" height="46" rx="4" fill="#4f46e5" opacity=".6" stroke="#a78bfa" stroke-width="0.8"/><rect x="522" y="226" width="36" height="46" rx="4" fill="#4338ca" opacity=".6" stroke="#a78bfa" stroke-width="0.8"/><rect x="562" y="70" width="36" height="46" rx="4" fill="#818cf8" opacity=".6" stroke="#a78bfa" stroke-width="0.8"/><rect x="562" y="122" width="36" height="46" rx="4" fill="#6366f1" opacity=".6" stroke="#a78bfa" stroke-width="0.8"/><rect x="562" y="174" width="36" height="46" rx="4" fill="#4f46e5" opacity=".6" stroke="#a78bfa" stroke-width="0.8"/><rect x="562" y="226" width="36" height="46" rx="4" fill="#4338ca" opacity=".6" stroke="#a78bfa" stroke-width="0.8"/><rect x="602" y="70" width="36" height="46" rx="4" fill="#818cf8" opacity=".6" stroke="#a78bfa" stroke-width="0.8"/><rect x="602" y="122" width="36" height="46" rx="4" fill="#6366f1" opacity=".6" stroke="#a78bfa" stroke-width="0.8"/><rect x="602" y="174" width="36" height="46" rx="4" fill="#4f46e5" opacity=".6" stroke="#a78bfa" stroke-width="0.8"/><rect x="602" y="226" width="36" height="46" rx="4" fill="#4338ca" opacity=".6" stroke="#a78bfa" stroke-width="0.8"/><rect x="642" y="70" width="36" height="46" rx="4" fill="#818cf8" opacity=".6" stroke="#a78bfa" stroke-width="0.8"/><rect x="642" y="122" width="36" height="46" rx="4" fill="#6366f1" opacity=".6" stroke="#a78bfa" stroke-width="0.8"/><rect x="642" y="174" width="36" height="46" rx="4" fill="#4f46e5" opacity=".6" stroke="#a78bfa" stroke-width="0.8"/><rect x="642" y="226" width="36" height="46" rx="4" fill="#4338ca" opacity=".6" stroke="#a78bfa" stroke-width="0.8"/><rect x="682" y="70" width="36" height="46" rx="4" fill="#818cf8" opacity=".6" stroke="#a78bfa" stroke-width="0.8"/><rect x="682" y="122" width="36" height="46" rx="4" fill="#6366f1" opacity=".6" stroke="#a78bfa" stroke-width="0.8"/><rect x="682" y="174" width="36" height="46" rx="4" fill="#4f46e5" opacity=".6" stroke="#a78bfa" stroke-width="0.8"/><rect x="682" y="226" width="36" height="46" rx="4" fill="#4338ca" opacity=".6" stroke="#a78bfa" stroke-width="0.8"/><rect x="722" y="70" width="36" height="46" rx="4" fill="#818cf8" opacity=".6" stroke="#a78bfa" stroke-width="0.8"/><rect x="722" y="122" width="36" height="46" rx="4" fill="#6366f1" opacity=".6" stroke="#a78bfa" stroke-width="0.8"/><rect x="722" y="174" width="36" height="46" rx="4" fill="#4f46e5" opacity=".6" stroke="#a78bfa" stroke-width="0.8"/><rect x="722" y="226" width="36" height="46" rx="4" fill="#4338ca" opacity=".6" stroke="#a78bfa" stroke-width="0.8"/>
<!-- Element highlight -->
<rect x="82" y="70" width="36" height="46" rx="4" fill="#fbbf24" stroke="#f59e0b" stroke-width="2"/>
<text x="100" y="98" text-anchor="middle" font-size="11" font-weight="800" font-family="monospace" fill="#78350f">H</text>
<!-- Key info boxes -->
<rect x="60" y="295" width="680" height="80" rx="12" fill="rgba(167,139,250,0.12)" stroke="#a78bfa" stroke-width="1.5"/>
<text x="400" y="322" text-anchor="middle" font-size="14" font-weight="800" font-family="sans-serif" fill="#a78bfa">Modern Periodic Law</text>
<text x="400" y="346" text-anchor="middle" font-size="13" font-family="sans-serif" fill="#c4b5fd">Properties are periodic functions of atomic number</text>
<text x="400" y="368" text-anchor="middle" font-size="13" font-family="sans-serif" fill="#c4b5fd">Periods: 7 · Groups: 18 · Döbereiner · Newlands · Mendeleev</text>
<text x="400" y="390" text-anchor="middle" font-size="22" font-family="sans-serif" font-weight="800" fill="#a78bfa">Periodic Classification of Elements</text>
</svg>