<?xml version="1.0" encoding="UTF-8"?>
<svg xmlns="http://www.w3.org/2000/svg" width="800" height="420" viewBox="0 0 800 420">
  <defs>
    <linearGradient id="bg" x1="0%" y1="0%" x2="100%" y2="100%">
      <stop offset="0%" stop-color="#fdf4ff"/>
      <stop offset="100%" stop-color="#f3e8ff"/>
    </linearGradient>
  </defs>
  <rect width="800" height="420" fill="url(#bg)" rx="20"/>
  <!-- Probability scale -->
<rect x="80" y="170" width="640" height="40" rx="20" fill="#e9d5ff" stroke="#a855f7" stroke-width="2"/>
<rect x="80" y="170" width="320" height="40" rx="20" fill="#a855f7"/>
<text x="80" y="240" text-anchor="middle" font-size="14" font-weight="700" font-family="sans-serif" fill="#6b21a8">0 (Impossible)</text>
<text x="400" y="240" text-anchor="middle" font-size="14" font-weight="700" font-family="sans-serif" fill="#7c3aed">½</text>
<text x="720" y="240" text-anchor="middle" font-size="14" font-weight="700" font-family="sans-serif" fill="#6b21a8">1 (Certain)</text>
<!-- Dice and coin -->
<rect x="110" y="270" width="100" height="100" rx="14" fill="#ede9fe" stroke="#7c3aed" stroke-width="2.5"/>
<circle cx="145" cy="305" r="9" fill="#6d28d9"/><circle cx="195" cy="305" r="9" fill="#6d28d9"/><circle cx="145" cy="345" r="9" fill="#6d28d9"/><circle cx="195" cy="345" r="9" fill="#6d28d9"/><circle cx="170" cy="325" r="9" fill="#6d28d9"/>
<text x="160" y="390" text-anchor="middle" font-size="13" font-weight="700" font-family="sans-serif" fill="#6b21a8">Die: P=1/6</text>
<circle cx="420" cy="320" r="55" fill="#fce7f3" stroke="#ec4899" stroke-width="2.5"/>
<text x="400" y="315" text-anchor="middle" font-size="16" font-family="sans-serif" fill="#9d174d">H</text>
<text x="440" y="315" text-anchor="middle" font-size="16" font-family="sans-serif" fill="#be185d">T</text>
<text x="420" y="390" text-anchor="middle" font-size="13" font-weight="700" font-family="sans-serif" fill="#9d174d">Coin: P=1/2</text>
<rect x="60" y="65" width="680" height="65" rx="14" fill="#a855f7"/>
<text x="400" y="95" text-anchor="middle" font-size="17" font-family="monospace" font-weight="900" fill="#fff">P(E) = Favourable outcomes / Total outcomes</text>
<text x="400" y="120" text-anchor="middle" font-size="14" font-family="sans-serif" fill="#f3e8ff">P(E) + P(Ē) = 1  ·  0 ≤ P(E) ≤ 1</text>
</svg>