<?xml version="1.0" encoding="UTF-8"?>
<svg xmlns="http://www.w3.org/2000/svg" width="800" height="420" viewBox="0 0 800 420">
  <defs>
    <linearGradient id="bg" x1="0%" y1="0%" x2="100%" y2="100%">
      <stop offset="0%" stop-color="#f0fdf4"/>
      <stop offset="100%" stop-color="#dcfce7"/>
    </linearGradient>
  </defs>
  <rect width="800" height="420" fill="url(#bg)" rx="20"/>
  <!-- Ogive curve -->
<line x1="80" y1="350" x2="720" y2="350" stroke="#374151" stroke-width="2"/>
<line x1="80" y1="80" x2="80" y2="350" stroke="#374151" stroke-width="2"/>
<path d="M 100,340 Q 200,310 300,260 Q 420,190 520,140 Q 620,110 700,95" fill="none" stroke="#16a34a" stroke-width="3.5"/>
<circle cx="130" cy="335" r="6" fill="#16a34a"/><circle cx="230" cy="305" r="6" fill="#16a34a"/><circle cx="340" cy="250" r="6" fill="#16a34a"/><circle cx="450" cy="175" r="6" fill="#16a34a"/><circle cx="570" cy="125" r="6" fill="#16a34a"/><circle cx="680" cy="98" r="6" fill="#16a34a"/>
<!-- Median line -->
<line x1="80" y1="220" x2="720" y2="220" stroke="#dc2626" stroke-width="2" stroke-dasharray="7,4"/>
<text x="730" y="224" font-size="13" font-weight="700" font-family="sans-serif" fill="#dc2626">50%</text>
<rect x="80" y="358" width="640" height="42" rx="10" fill="#15803d"/>
<text x="400" y="385" text-anchor="middle" font-size="14" font-family="sans-serif" font-weight="800" fill="#fff">Mean (direct/assumed) · Median (ogive) · Mode (histogram) · Cumulative frequency</text>
</svg>