<svg xmlns="http://www.w3.org/2000/svg" width="800" height="420" viewBox="0 0 800 420">
  <defs>
    <linearGradient id="bg" x1="0%" y1="0%" x2="100%" y2="100%">
      <stop offset="0%" style="stop-color:#fffbeb"/>
      <stop offset="100%" style="stop-color:#fde68a"/>
    </linearGradient>
  </defs>
  <rect width="800" height="420" fill="url(#bg)"/>
  <circle cx="400" cy="185" r="120" fill="#fef3c7" stroke="#b45309" stroke-width="3"/>
<circle cx="400" cy="185" r="60" fill="none" stroke="#1d4ed8" stroke-width="3"/>
<line x1="460" y1="185" x2="490" y2="185" stroke="#1d4ed8" stroke-width="2"/><line x1="457.9555495773441" y1="200.52914270615125" x2="486.93332436601617" y2="208.29371405922686" stroke="#1d4ed8" stroke-width="2"/><line x1="451.9615242270663" y1="215" x2="477.9422863405995" y2="230" stroke="#1d4ed8" stroke-width="2"/><line x1="442.42640687119285" y1="227.42640687119285" x2="463.6396103067893" y2="248.63961030678928" stroke="#1d4ed8" stroke-width="2"/><line x1="430" y1="236.96152422706632" x2="445" y2="262.9422863405995" stroke="#1d4ed8" stroke-width="2"/><line x1="415.5291427061512" y1="242.9555495773441" x2="423.2937140592269" y2="271.93332436601617" stroke="#1d4ed8" stroke-width="2"/><line x1="400" y1="245" x2="400" y2="275" stroke="#1d4ed8" stroke-width="2"/><line x1="384.4708572938487" y1="242.9555495773441" x2="376.7062859407731" y2="271.93332436601617" stroke="#1d4ed8" stroke-width="2"/><line x1="370" y1="236.96152422706632" x2="355" y2="262.9422863405995" stroke="#1d4ed8" stroke-width="2"/><line x1="357.57359312880715" y1="227.42640687119285" x2="336.3603896932107" y2="248.63961030678928" stroke="#1d4ed8" stroke-width="2"/><line x1="348.0384757729337" y1="215" x2="322.0577136594005" y2="230" stroke="#1d4ed8" stroke-width="2"/><line x1="342.0444504226559" y1="200.52914270615125" x2="313.0666756339839" y2="208.2937140592269" stroke="#1d4ed8" stroke-width="2"/><line x1="340" y1="185" x2="310" y2="185" stroke="#1d4ed8" stroke-width="2"/><line x1="342.04445042265587" y1="169.47085729384878" x2="313.06667563398383" y2="161.70628594077317" stroke="#1d4ed8" stroke-width="2"/><line x1="348.0384757729337" y1="155" x2="322.0577136594005" y2="140" stroke="#1d4ed8" stroke-width="2"/><line x1="357.57359312880715" y1="142.57359312880715" x2="336.3603896932107" y2="121.36038969321072" stroke="#1d4ed8" stroke-width="2"/><line x1="370" y1="133.03847577293368" x2="354.99999999999994" y2="107.05771365940053" stroke="#1d4ed8" stroke-width="2"/><line x1="384.4708572938488" y1="127.0444504226559" x2="376.7062859407731" y2="98.06667563398385" stroke="#1d4ed8" stroke-width="2"/><line x1="400" y1="125" x2="400" y2="95" stroke="#1d4ed8" stroke-width="2"/><line x1="415.5291427061513" y1="127.0444504226559" x2="423.2937140592269" y2="98.06667563398386" stroke="#1d4ed8" stroke-width="2"/><line x1="430" y1="133.03847577293368" x2="445" y2="107.05771365940052" stroke="#1d4ed8" stroke-width="2"/><line x1="442.42640687119285" y1="142.57359312880715" x2="463.6396103067893" y2="121.3603896932107" stroke="#1d4ed8" stroke-width="2"/><line x1="451.9615242270663" y1="154.99999999999997" x2="477.9422863405995" y2="139.99999999999994" stroke="#1d4ed8" stroke-width="2"/><line x1="457.9555495773441" y1="169.47085729384875" x2="486.93332436601617" y2="161.70628594077314" stroke="#1d4ed8" stroke-width="2"/>
<text x="400" y="190" text-anchor="middle" font-size="14" font-family="sans-serif" font-weight="700" fill="#1d4ed8">Ashoka Chakra</text>
<text x="400" y="350" text-anchor="middle" font-size="15" font-family="sans-serif" fill="#78350f">Maurya Empire • Edicts • Non-violence</text>
<text x="400" y="390" text-anchor="middle" font-size="22" font-family="sans-serif" font-weight="800" fill="#78350f">Ashoka: The Emperor</text>
</svg>