<svg xmlns="http://www.w3.org/2000/svg" width="800" height="420" viewBox="0 0 800 420">
  <defs>
    <linearGradient id="bg" x1="0%" y1="0%" x2="100%" y2="100%">
      <stop offset="0%" style="stop-color:#fef9c3"/>
      <stop offset="100%" style="stop-color:#fde68a"/>
    </linearGradient>
  </defs>
  <rect width="800" height="420" fill="url(#bg)"/>
  <circle cx="400" cy="190" r="130" fill="#fef08a" stroke="#ca8a04" stroke-width="3"/>
<path d="M400,190 L400,60 A130,130 0 0,1 513,255 Z" fill="#4ade80" opacity=".8"/>
<path d="M400,190 L513,255 A130,130 0 0,1 287,255 Z" fill="#f97316" opacity=".8"/>
<path d="M400,190 L287,255 A130,130 0 0,1 400,60 Z" fill="#60a5fa" opacity=".8"/>
<text x="448" y="168" text-anchor="middle" font-size="13" font-family="sans-serif" font-weight="700" fill="#fff">Carbs</text>
<text x="448" y="258" text-anchor="middle" font-size="13" font-family="sans-serif" font-weight="700" fill="#fff">Proteins</text>
<text x="345" y="218" text-anchor="middle" font-size="13" font-family="sans-serif" font-weight="700" fill="#fff">Fats</text>
<text x="200" y="130" font-size="16" font-family="sans-serif" font-weight="700" fill="#92400e">🥜 Proteins</text>
<text x="200" y="165" font-size="16" font-family="sans-serif" font-weight="700" fill="#92400e">🍞 Carbs</text>
<text x="200" y="200" font-size="16" font-family="sans-serif" font-weight="700" fill="#92400e">🫐 Vitamins</text>
<text x="200" y="235" font-size="16" font-family="sans-serif" font-weight="700" fill="#92400e">🥛 Minerals</text>
<text x="400" y="380" text-anchor="middle" font-size="24" font-family="sans-serif" font-weight="800" fill="#713f12">Components of Food</text>
</svg>