<svg xmlns="http://www.w3.org/2000/svg" width="800" height="420" viewBox="0 0 800 420">
  <defs>
    <linearGradient id="bg" x1="0%" y1="0%" x2="100%" y2="100%">
      <stop offset="0%" style="stop-color:#fef9c3"/>
      <stop offset="100%" style="stop-color:#fde68a"/>
    </linearGradient>
  </defs>
  <rect width="800" height="420" fill="url(#bg)"/>
  <rect x="100" y="100" width="220" height="260" rx="12" fill="#fff" stroke="#ca8a04" stroke-width="3"/>
<line x1="120" y1="130" x2="300" y2="130" stroke="#e5e7eb" stroke-width="2"/><line x1="120" y1="160" x2="300" y2="160" stroke="#e5e7eb" stroke-width="2"/><line x1="120" y1="190" x2="300" y2="190" stroke="#e5e7eb" stroke-width="2"/><line x1="120" y1="220" x2="300" y2="220" stroke="#e5e7eb" stroke-width="2"/><line x1="120" y1="250" x2="300" y2="250" stroke="#e5e7eb" stroke-width="2"/><line x1="120" y1="280" x2="300" y2="280" stroke="#e5e7eb" stroke-width="2"/><line x1="120" y1="310" x2="300" y2="310" stroke="#e5e7eb" stroke-width="2"/><line x1="120" y1="330" x2="300" y2="330" stroke="#e5e7eb" stroke-width="2"/>
<text x="210" y="130" text-anchor="middle" font-size="14" font-family="sans-serif" font-weight="700" fill="#92400e">📖 Read</text>
<circle cx="195" cy="155" r="3" fill="#ca8a04"/><line x1="205" y1="155" x2="290" y2="155" stroke="#ca8a04" stroke-width="1.5"/>
<circle cx="195" cy="175" r="3" fill="#ca8a04"/><line x1="205" y1="175" x2="270" y2="175" stroke="#ca8a04" stroke-width="1.5"/>
<circle cx="195" cy="195" r="3" fill="#ca8a04"/><line x1="205" y1="195" x2="285" y2="195" stroke="#ca8a04" stroke-width="1.5"/>
<rect x="440" y="100" width="220" height="260" rx="12" fill="#fef9c3" stroke="#ca8a04" stroke-width="3"/>
<text x="550" y="130" text-anchor="middle" font-size="14" font-family="sans-serif" font-weight="700" fill="#92400e">✍️ Write</text>
<line x1="460" y1="155" x2="645" y2="155" stroke="#ca8a04" stroke-width="1.5"/>
<line x1="460" y1="180" x2="645" y2="180" stroke="#ca8a04" stroke-width="1.5"/>
<line x1="460" y1="205" x2="600" y2="205" stroke="#ca8a04" stroke-width="1.5"/>
<polygon points="480,215 486,250 492,215" fill="#ca8a04"/>
<text x="400" y="380" text-anchor="middle" font-size="22" font-family="sans-serif" font-weight="800" fill="#713f12">Reading Comprehension & Writing</text>
</svg>