<svg xmlns="http://www.w3.org/2000/svg" width="800" height="420" viewBox="0 0 800 420">
  <defs>
    <linearGradient id="bg" x1="0%" y1="0%" x2="100%" y2="100%">
      <stop offset="0%" style="stop-color:#fdf4ff"/>
      <stop offset="100%" style="stop-color:#e9d5ff"/>
    </linearGradient>
  </defs>
  <rect width="800" height="420" fill="url(#bg)"/>
  <text x="150" y="200" text-anchor="middle" font-size="50">🌱</text>
<text x="280" y="185" text-anchor="middle" font-size="30">→</text>
<text x="400" y="200" text-anchor="middle" font-size="50">🧵</text>
<text x="520" y="185" text-anchor="middle" font-size="30">→</text>
<text x="640" y="200" text-anchor="middle" font-size="50">🧶</text>
<text x="150" y="250" text-anchor="middle" font-size="14" font-family="sans-serif" font-weight="700" fill="#7e22ce">Cotton Plant</text>
<text x="400" y="250" text-anchor="middle" font-size="14" font-family="sans-serif" font-weight="700" fill="#7e22ce">Yarn/Thread</text>
<text x="640" y="250" text-anchor="middle" font-size="14" font-family="sans-serif" font-weight="700" fill="#7e22ce">Fabric</text>
<rect x="100" y="280" width="65" height="10" rx="3" fill="#c084fc" opacity=".7"/><rect x="100" y="294" width="65" height="10" rx="3" fill="#e9d5ff" opacity=".7"/><rect x="100" y="308" width="65" height="10" rx="3" fill="#c084fc" opacity=".7"/><rect x="100" y="322" width="65" height="10" rx="3" fill="#e9d5ff" opacity=".7"/><rect x="100" y="336" width="65" height="10" rx="3" fill="#c084fc" opacity=".7"/><rect x="175" y="280" width="65" height="10" rx="3" fill="#c084fc" opacity=".7"/><rect x="175" y="294" width="65" height="10" rx="3" fill="#e9d5ff" opacity=".7"/><rect x="175" y="308" width="65" height="10" rx="3" fill="#c084fc" opacity=".7"/><rect x="175" y="322" width="65" height="10" rx="3" fill="#e9d5ff" opacity=".7"/><rect x="175" y="336" width="65" height="10" rx="3" fill="#c084fc" opacity=".7"/><rect x="250" y="280" width="65" height="10" rx="3" fill="#c084fc" opacity=".7"/><rect x="250" y="294" width="65" height="10" rx="3" fill="#e9d5ff" opacity=".7"/><rect x="250" y="308" width="65" height="10" rx="3" fill="#c084fc" opacity=".7"/><rect x="250" y="322" width="65" height="10" rx="3" fill="#e9d5ff" opacity=".7"/><rect x="250" y="336" width="65" height="10" rx="3" fill="#c084fc" opacity=".7"/><rect x="325" y="280" width="65" height="10" rx="3" fill="#c084fc" opacity=".7"/><rect x="325" y="294" width="65" height="10" rx="3" fill="#e9d5ff" opacity=".7"/><rect x="325" y="308" width="65" height="10" rx="3" fill="#c084fc" opacity=".7"/><rect x="325" y="322" width="65" height="10" rx="3" fill="#e9d5ff" opacity=".7"/><rect x="325" y="336" width="65" height="10" rx="3" fill="#c084fc" opacity=".7"/><rect x="400" y="280" width="65" height="10" rx="3" fill="#c084fc" opacity=".7"/><rect x="400" y="294" width="65" height="10" rx="3" fill="#e9d5ff" opacity=".7"/><rect x="400" y="308" width="65" height="10" rx="3" fill="#c084fc" opacity=".7"/><rect x="400" y="322" width="65" height="10" rx="3" fill="#e9d5ff" opacity=".7"/><rect x="400" y="336" width="65" height="10" rx="3" fill="#c084fc" opacity=".7"/><rect x="475" y="280" width="65" height="10" rx="3" fill="#c084fc" opacity=".7"/><rect x="475" y="294" width="65" height="10" rx="3" fill="#e9d5ff" opacity=".7"/><rect x="475" y="308" width="65" height="10" rx="3" fill="#c084fc" opacity=".7"/><rect x="475" y="322" width="65" height="10" rx="3" fill="#e9d5ff" opacity=".7"/><rect x="475" y="336" width="65" height="10" rx="3" fill="#c084fc" opacity=".7"/><rect x="550" y="280" width="65" height="10" rx="3" fill="#c084fc" opacity=".7"/><rect x="550" y="294" width="65" height="10" rx="3" fill="#e9d5ff" opacity=".7"/><rect x="550" y="308" width="65" height="10" rx="3" fill="#c084fc" opacity=".7"/><rect x="550" y="322" width="65" height="10" rx="3" fill="#e9d5ff" opacity=".7"/><rect x="550" y="336" width="65" height="10" rx="3" fill="#c084fc" opacity=".7"/><rect x="625" y="280" width="65" height="10" rx="3" fill="#c084fc" opacity=".7"/><rect x="625" y="294" width="65" height="10" rx="3" fill="#e9d5ff" opacity=".7"/><rect x="625" y="308" width="65" height="10" rx="3" fill="#c084fc" opacity=".7"/><rect x="625" y="322" width="65" height="10" rx="3" fill="#e9d5ff" opacity=".7"/><rect x="625" y="336" width="65" height="10" rx="3" fill="#c084fc" opacity=".7"/>
<text x="400" y="380" text-anchor="middle" font-size="24" font-family="sans-serif" font-weight="800" fill="#581c87">Fibre to Fabric</text>
</svg>