<svg xmlns="http://www.w3.org/2000/svg" width="800" height="420" viewBox="0 0 800 420">
  <defs>
    <linearGradient id="bg" x1="0%" y1="0%" x2="100%" y2="100%">
      <stop offset="0%" style="stop-color:#f0fdf4"/>
      <stop offset="100%" style="stop-color:#bbf7d0"/>
    </linearGradient>
  </defs>
  <rect width="800" height="420" fill="url(#bg)"/>
  <line x1="400" y1="360" x2="400" y2="120" stroke="#4ade80" stroke-width="8"/>
<ellipse cx="400" cy="110" rx="70" ry="80" fill="#22c55e"/>
<ellipse cx="320" cy="170" rx="55" ry="40" fill="#16a34a" transform="rotate(-30,320,170)"/>
<ellipse cx="480" cy="170" rx="55" ry="40" fill="#16a34a" transform="rotate(30,480,170)"/>
<ellipse cx="340" cy="230" rx="45" ry="32" fill="#4ade80" transform="rotate(-20,340,230)"/>
<ellipse cx="460" cy="230" rx="45" ry="32" fill="#4ade80" transform="rotate(20,460,230)"/>
<path d="M400,360 L340,380 L300,370 L280,390 M400,360 L340,370 L310,360 M400,360 L460,380 L500,370 L520,390 M400,360 L460,370 L490,360" stroke="#a16207" stroke-width="3" fill="none"/>
<circle cx="400" cy="108" r="15" fill="#f9a8d4" stroke="#ec4899" stroke-width="2"/>
<text x="150" y="150" text-anchor="middle" font-size="14" font-weight="700" fill="#15803d">Flower</text>
<text x="150" y="220" text-anchor="middle" font-size="14" font-weight="700" fill="#15803d">Leaves</text>
<text x="150" y="290" text-anchor="middle" font-size="14" font-weight="700" fill="#15803d">Stem</text>
<text x="150" y="360" text-anchor="middle" font-size="14" font-weight="700" fill="#92400e">Roots</text>
<text x="400" y="420" text-anchor="middle" font-size="24" font-family="sans-serif" font-weight="800" fill="#14532d">Getting to Know Plants</text>
</svg>