<svg xmlns="http://www.w3.org/2000/svg" width="800" height="420" viewBox="0 0 800 420">
  <defs>
    <linearGradient id="bg" x1="0%" y1="0%" x2="100%" y2="100%">
      <stop offset="0%" style="stop-color:#fef2f2"/>
      <stop offset="100%" style="stop-color:#fecaca"/>
    </linearGradient>
  </defs>
  <rect width="800" height="420" fill="url(#bg)"/>
  <line x1="60" y1="200" x2="740" y2="200" stroke="#374151" stroke-width="3"/>
<polygon points="740,192 760,200 740,208" fill="#374151"/>
<polygon points="60,192 40,200 60,208" fill="#374151"/>
<line x1="120" y1="192" x2="120" y2="208" stroke="#dc2626" stroke-width="2.5"/>
<text x="120" y="230" text-anchor="middle" font-size="18" font-family="sans-serif" font-weight="700" fill="#dc2626">-5</text><line x1="176" y1="192" x2="176" y2="208" stroke="#dc2626" stroke-width="2.5"/>
<text x="176" y="230" text-anchor="middle" font-size="18" font-family="sans-serif" font-weight="700" fill="#dc2626">-4</text><line x1="232" y1="192" x2="232" y2="208" stroke="#dc2626" stroke-width="2.5"/>
<text x="232" y="230" text-anchor="middle" font-size="18" font-family="sans-serif" font-weight="700" fill="#dc2626">-3</text><line x1="288" y1="192" x2="288" y2="208" stroke="#dc2626" stroke-width="2.5"/>
<text x="288" y="230" text-anchor="middle" font-size="18" font-family="sans-serif" font-weight="700" fill="#dc2626">-2</text><line x1="344" y1="192" x2="344" y2="208" stroke="#dc2626" stroke-width="2.5"/>
<text x="344" y="230" text-anchor="middle" font-size="18" font-family="sans-serif" font-weight="700" fill="#dc2626">-1</text><line x1="400" y1="192" x2="400" y2="208" stroke="#374151" stroke-width="2.5"/>
<text x="400" y="230" text-anchor="middle" font-size="18" font-family="sans-serif" font-weight="700" fill="#374151">0</text><line x1="456" y1="192" x2="456" y2="208" stroke="#16a34a" stroke-width="2.5"/>
<text x="456" y="230" text-anchor="middle" font-size="18" font-family="sans-serif" font-weight="700" fill="#16a34a">1</text><line x1="512" y1="192" x2="512" y2="208" stroke="#16a34a" stroke-width="2.5"/>
<text x="512" y="230" text-anchor="middle" font-size="18" font-family="sans-serif" font-weight="700" fill="#16a34a">2</text><line x1="568" y1="192" x2="568" y2="208" stroke="#16a34a" stroke-width="2.5"/>
<text x="568" y="230" text-anchor="middle" font-size="18" font-family="sans-serif" font-weight="700" fill="#16a34a">3</text><line x1="624" y1="192" x2="624" y2="208" stroke="#16a34a" stroke-width="2.5"/>
<text x="624" y="230" text-anchor="middle" font-size="18" font-family="sans-serif" font-weight="700" fill="#16a34a">4</text><line x1="680" y1="192" x2="680" y2="208" stroke="#16a34a" stroke-width="2.5"/>
<text x="680" y="230" text-anchor="middle" font-size="18" font-family="sans-serif" font-weight="700" fill="#16a34a">5</text>
<text x="280" y="170" text-anchor="middle" font-size="18" font-family="sans-serif" font-weight="700" fill="#dc2626">Negative</text>
<text x="400" y="155" text-anchor="middle" font-size="18" font-family="sans-serif" font-weight="700" fill="#374151">Zero</text>
<text x="520" y="170" text-anchor="middle" font-size="18" font-family="sans-serif" font-weight="700" fill="#16a34a">Positive</text>
<text x="400" y="370" text-anchor="middle" font-size="28" font-family="sans-serif" font-weight="800" fill="#7f1d1d">Integers</text>
</svg>