<svg xmlns="http://www.w3.org/2000/svg" width="800" height="420" viewBox="0 0 800 420">
  <defs>
    <linearGradient id="bg" x1="0%" y1="0%" x2="100%" y2="100%">
      <stop offset="0%" style="stop-color:#fefce8"/>
      <stop offset="100%" style="stop-color:#fef08a"/>
    </linearGradient>
  </defs>
  <rect width="800" height="420" fill="url(#bg)"/>
  <circle cx="160" cy="160" r="60" fill="#fbbf24" opacity=".9"/>
<line x1="225" y1="160" x2="250" y2="160" stroke="#fbbf24" stroke-width="3"/><line x1="216.29165124598853" y1="192.5" x2="237.94228634059948" y2="205" stroke="#fbbf24" stroke-width="3"/><line x1="192.5" y1="216.2916512459885" x2="205" y2="237.94228634059948" stroke="#fbbf24" stroke-width="3"/><line x1="160" y1="225" x2="160" y2="250" stroke="#fbbf24" stroke-width="3"/><line x1="127.50000000000001" y1="216.29165124598853" x2="115.00000000000003" y2="237.94228634059948" stroke="#fbbf24" stroke-width="3"/><line x1="103.70834875401148" y1="192.5" x2="82.05771365940052" y2="205" stroke="#fbbf24" stroke-width="3"/><line x1="95" y1="160" x2="70" y2="160" stroke="#fbbf24" stroke-width="3"/><line x1="103.7083487540115" y1="127.5" x2="82.05771365940052" y2="115" stroke="#fbbf24" stroke-width="3"/><line x1="127.49999999999997" y1="103.7083487540115" x2="114.99999999999996" y2="82.05771365940053" stroke="#fbbf24" stroke-width="3"/><line x1="160" y1="95" x2="159.99999999999997" y2="70" stroke="#fbbf24" stroke-width="3"/><line x1="192.5" y1="103.7083487540115" x2="205" y2="82.05771365940052" stroke="#fbbf24" stroke-width="3"/><line x1="216.2916512459885" y1="127.49999999999997" x2="237.94228634059945" y2="114.99999999999996" stroke="#fbbf24" stroke-width="3"/>
<rect x="340" y="100" width="40" height="220" rx="6" fill="#6b7280"/>
<polygon points="380,160 600,90 600,230" fill="#fef08a" opacity=".5"/>
<polygon points="380,220 600,140 660,280" fill="#d1d5db" opacity=".7"/>
<text x="620" y="300" text-anchor="middle" font-size="16" font-family="sans-serif" font-weight="700" fill="#374151">Shadow</text>
<line x1="500" y1="140" x2="500" y2="80" stroke="#ca8a04" stroke-width="2" stroke-dasharray="4,4"/>
<line x1="440" y1="140" x2="500" y2="80" stroke="#ca8a04" stroke-width="2.5"/>
<line x1="500" y1="80" x2="560" y2="140" stroke="#ca8a04" stroke-width="2.5"/>
<text x="500" y="60" text-anchor="middle" font-size="14" font-family="sans-serif" font-weight="700" fill="#92400e">Reflection</text>
<text x="400" y="380" text-anchor="middle" font-size="24" font-family="sans-serif" font-weight="800" fill="#78350f">Light, Shadows and Reflections</text>
</svg>