<svg xmlns="http://www.w3.org/2000/svg" width="800" height="420" viewBox="0 0 800 420">
  <defs>
    <linearGradient id="bg" x1="0%" y1="0%" x2="100%" y2="100%">
      <stop offset="0%" style="stop-color:#ecfdf5"/>
      <stop offset="100%" style="stop-color:#a7f3d0"/>
    </linearGradient>
  </defs>
  <rect width="800" height="420" fill="url(#bg)"/>
  <rect x="100" y="100" width="600" height="220" rx="16" fill="#d1fae5" stroke="#059669" stroke-width="3"/>
<path d="M150,200 Q250,150 350,180 Q450,210 550,160 Q620,140 660,180" fill="none" stroke="#0891b2" stroke-width="3"/>
<path d="M150,230 Q200,260 300,250 Q400,240 500,260 Q580,275 660,250" fill="#bfdbfe" opacity=".5"/>
<circle cx="300" cy="175" r="8" fill="#dc2626"/>
<circle cx="500" cy="165" r="8" fill="#dc2626"/>
<line x1="300" y1="175" x2="250" y2="130" stroke="#374151" stroke-width="1.5"/>
<text x="240" y="122" text-anchor="middle" font-size="12" font-family="sans-serif" fill="#374151">City A</text>
<line x1="500" y1="165" x2="560" y2="130" stroke="#374151" stroke-width="1.5"/>
<text x="570" y="122" text-anchor="middle" font-size="12" font-family="sans-serif" fill="#374151">City B</text>
<text x="650" y="120" text-anchor="middle" font-size="20">🧭</text>
<text x="400" y="370" text-anchor="middle" font-size="26" font-family="sans-serif" font-weight="800" fill="#064e3b">Maps: Types and Uses</text>
</svg>