<svg xmlns="http://www.w3.org/2000/svg" width="800" height="420" viewBox="0 0 800 420">
  <defs>
    <linearGradient id="bg" x1="0%" y1="0%" x2="100%" y2="100%">
      <stop offset="0%" style="stop-color:#f0fdf4"/>
      <stop offset="100%" style="stop-color:#bbf7d0"/>
    </linearGradient>
  </defs>
  <rect width="800" height="420" fill="url(#bg)"/>
  <ellipse cx="400" cy="180" rx="100" ry="60" fill="#d1fae5" stroke="#16a34a" stroke-width="3"/>
<text x="400" y="190" text-anchor="middle" font-size="16" font-family="sans-serif" font-weight="700" fill="#15803d">Gram Sabha</text>
<text x="400" y="100" text-anchor="middle" font-size="22">🏘️</text>
<circle cx="180" cy="290" r="35" fill="#bbf7d0" stroke="#16a34a" stroke-width="2"/>
<text x="180" y="295" text-anchor="middle" font-size="11" font-family="sans-serif" font-weight="700" fill="#065f46">Ward Panch</text>
<line x1="180" y1="255" x2="360" y2="210" stroke="#16a34a" stroke-width="1.5" stroke-dasharray="4,3"/><circle cx="320" cy="290" r="35" fill="#bbf7d0" stroke="#16a34a" stroke-width="2"/>
<text x="320" y="295" text-anchor="middle" font-size="11" font-family="sans-serif" font-weight="700" fill="#065f46">Panch</text>
<line x1="320" y1="255" x2="360" y2="210" stroke="#16a34a" stroke-width="1.5" stroke-dasharray="4,3"/><circle cx="400" cy="330" r="35" fill="#bbf7d0" stroke="#16a34a" stroke-width="2"/>
<text x="400" y="335" text-anchor="middle" font-size="11" font-family="sans-serif" font-weight="700" fill="#065f46">Sarpanch</text>
<line x1="400" y1="295" x2="440" y2="210" stroke="#16a34a" stroke-width="1.5" stroke-dasharray="4,3"/><circle cx="480" cy="290" r="35" fill="#bbf7d0" stroke="#16a34a" stroke-width="2"/>
<text x="480" y="295" text-anchor="middle" font-size="11" font-family="sans-serif" font-weight="700" fill="#065f46">Secretary</text>
<line x1="480" y1="255" x2="440" y2="210" stroke="#16a34a" stroke-width="1.5" stroke-dasharray="4,3"/><circle cx="620" cy="290" r="35" fill="#bbf7d0" stroke="#16a34a" stroke-width="2"/>
<text x="620" y="295" text-anchor="middle" font-size="11" font-family="sans-serif" font-weight="700" fill="#065f46">Gram Panchayat</text>
<line x1="620" y1="255" x2="440" y2="210" stroke="#16a34a" stroke-width="1.5" stroke-dasharray="4,3"/>
<text x="400" y="410" text-anchor="middle" font-size="22" font-family="sans-serif" font-weight="800" fill="#14532d">Panchayati Raj</text>
</svg>