<svg xmlns="http://www.w3.org/2000/svg" width="800" height="420" viewBox="0 0 800 420">
  <defs>
    <linearGradient id="bg" x1="0%" y1="0%" x2="100%" y2="100%">
      <stop offset="0%" style="stop-color:#ecfdf5"/>
      <stop offset="100%" style="stop-color:#a7f3d0"/>
    </linearGradient>
  </defs>
  <rect width="800" height="420" fill="url(#bg)"/>
  <rect x="310" y="100" width="180" height="40" rx="8" fill="#6b7280"/>
<path d="M310,140 L280,290 L420,290 L490,140 Z" fill="#d1fae5" stroke="#059669" stroke-width="3"/>
<circle cx="330" cy="195" r="6" fill="#059669"/>
<circle cx="370" cy="230" r="6" fill="#059669"/>
<circle cx="400" cy="200" r="6" fill="#059669"/>
<circle cx="440" cy="240" r="6" fill="#059669"/>
<circle cx="350" cy="260" r="5" fill="#34d399"/>
<path d="M350,290 L370,340 L410,340 L430,290" fill="#a7f3d0" stroke="#059669" stroke-width="2"/>
<rect x="80" y="150" width="160" height="160" rx="10" fill="#d1fae5" stroke="#059669" stroke-width="3"/>
<text x="160" y="195" text-anchor="middle" font-size="16" font-family="sans-serif" font-weight="700" fill="#065f46">Sieving</text>
<text x="160" y="245" text-anchor="middle" font-size="36">🪣</text>
<rect x="560" y="150" width="160" height="160" rx="10" fill="#d1fae5" stroke="#059669" stroke-width="3"/>
<text x="640" y="195" text-anchor="middle" font-size="16" font-family="sans-serif" font-weight="700" fill="#065f46">Evaporation</text>
<text x="640" y="245" text-anchor="middle" font-size="36">🧂</text>
<text x="400" y="390" text-anchor="middle" font-size="22" font-family="sans-serif" font-weight="800" fill="#064e3b">Separation of Substances</text>
</svg>