<svg xmlns="http://www.w3.org/2000/svg" width="800" height="420" viewBox="0 0 800 420">
  <defs>
    <linearGradient id="bg" x1="0%" y1="0%" x2="100%" y2="100%">
      <stop offset="0%" style="stop-color:#f0fdf4"/>
      <stop offset="100%" style="stop-color:#bbf7d0"/>
    </linearGradient>
  </defs>
  <rect width="800" height="420" fill="url(#bg)"/>
  <line x1="60" y1="220" x2="740" y2="220" stroke="#16a34a" stroke-width="4"/>
<polygon points="740,210 760,220 740,230" fill="#16a34a"/>
<line x1="120" y1="210" x2="120" y2="230" stroke="#16a34a" stroke-width="3"/>
<text x="120" y="255" text-anchor="middle" font-size="20" font-family="sans-serif" font-weight="700" fill="#15803d">0</text>
<circle cx="120" cy="220" r="8" fill="#16a34a"/><line x1="182" y1="210" x2="182" y2="230" stroke="#16a34a" stroke-width="3"/>
<text x="182" y="255" text-anchor="middle" font-size="20" font-family="sans-serif" font-weight="700" fill="#15803d">1</text>
<circle cx="182" cy="220" r="8" fill="#4ade80"/><line x1="244" y1="210" x2="244" y2="230" stroke="#16a34a" stroke-width="3"/>
<text x="244" y="255" text-anchor="middle" font-size="20" font-family="sans-serif" font-weight="700" fill="#15803d">2</text>
<circle cx="244" cy="220" r="8" fill="#4ade80"/><line x1="306" y1="210" x2="306" y2="230" stroke="#16a34a" stroke-width="3"/>
<text x="306" y="255" text-anchor="middle" font-size="20" font-family="sans-serif" font-weight="700" fill="#15803d">3</text>
<circle cx="306" cy="220" r="8" fill="#4ade80"/><line x1="368" y1="210" x2="368" y2="230" stroke="#16a34a" stroke-width="3"/>
<text x="368" y="255" text-anchor="middle" font-size="20" font-family="sans-serif" font-weight="700" fill="#15803d">4</text>
<circle cx="368" cy="220" r="8" fill="#4ade80"/><line x1="430" y1="210" x2="430" y2="230" stroke="#16a34a" stroke-width="3"/>
<text x="430" y="255" text-anchor="middle" font-size="20" font-family="sans-serif" font-weight="700" fill="#15803d">5</text>
<circle cx="430" cy="220" r="8" fill="#4ade80"/><line x1="492" y1="210" x2="492" y2="230" stroke="#16a34a" stroke-width="3"/>
<text x="492" y="255" text-anchor="middle" font-size="20" font-family="sans-serif" font-weight="700" fill="#15803d">6</text>
<circle cx="492" cy="220" r="8" fill="#4ade80"/><line x1="554" y1="210" x2="554" y2="230" stroke="#16a34a" stroke-width="3"/>
<text x="554" y="255" text-anchor="middle" font-size="20" font-family="sans-serif" font-weight="700" fill="#15803d">7</text>
<circle cx="554" cy="220" r="8" fill="#4ade80"/><line x1="616" y1="210" x2="616" y2="230" stroke="#16a34a" stroke-width="3"/>
<text x="616" y="255" text-anchor="middle" font-size="20" font-family="sans-serif" font-weight="700" fill="#15803d">8</text>
<circle cx="616" cy="220" r="8" fill="#4ade80"/><line x1="678" y1="210" x2="678" y2="230" stroke="#16a34a" stroke-width="3"/>
<text x="678" y="255" text-anchor="middle" font-size="20" font-family="sans-serif" font-weight="700" fill="#15803d">9</text>
<circle cx="678" cy="220" r="8" fill="#4ade80"/><line x1="740" y1="210" x2="740" y2="230" stroke="#16a34a" stroke-width="3"/>
<text x="740" y="255" text-anchor="middle" font-size="20" font-family="sans-serif" font-weight="700" fill="#15803d">10</text>
<circle cx="740" cy="220" r="8" fill="#4ade80"/>
<text x="400" y="150" text-anchor="middle" font-size="36" font-family="sans-serif" font-weight="800" fill="#15803d">0, 1, 2, 3, 4 … ∞</text>
<text x="400" y="360" text-anchor="middle" font-size="28" font-family="sans-serif" font-weight="800" fill="#14532d">Whole Numbers</text>
</svg>