<?xml version="1.0" encoding="UTF-8"?>
<svg xmlns="http://www.w3.org/2000/svg" width="800" height="420" viewBox="0 0 800 420">
  <defs>
    <linearGradient id="bg" x1="0%" y1="0%" x2="100%" y2="100%">
      <stop offset="0%" stop-color="#f0fdf4"/>
      <stop offset="100%" stop-color="#dcfce7"/>
    </linearGradient>
  </defs>
  <rect width="800" height="420" fill="url(#bg)" rx="20"/>
  <rect x="80" y="100" width="160" height="220" rx="14" fill="#dcfce7" stroke="#16a34a" stroke-width="2.5"/>
<rect x="560" y="100" width="160" height="220" rx="14" fill="#dcfce7" stroke="#16a34a" stroke-width="2.5"/>
<text x="160" y="85" text-anchor="middle" font-size="16" font-weight="800" font-family="sans-serif" fill="#14532d">Domain</text>
<text x="640" y="85" text-anchor="middle" font-size="16" font-weight="800" font-family="sans-serif" fill="#14532d">Range</text>
<circle cx="140" cy="140" r="8" fill="#16a34a"/>
<text x="160" cy="140" y="145" text-anchor="middle" font-size="14" font-weight="700" font-family="sans-serif" fill="#14532d">a</text><circle cx="140" cy="185" r="8" fill="#16a34a"/>
<text x="160" cy="185" y="190" text-anchor="middle" font-size="14" font-weight="700" font-family="sans-serif" fill="#14532d">b</text><circle cx="140" cy="230" r="8" fill="#16a34a"/>
<text x="160" cy="230" y="235" text-anchor="middle" font-size="14" font-weight="700" font-family="sans-serif" fill="#14532d">c</text><circle cx="140" cy="275" r="8" fill="#16a34a"/>
<text x="160" cy="275" y="280" text-anchor="middle" font-size="14" font-weight="700" font-family="sans-serif" fill="#14532d">d</text>
<circle cx="620" cy="155" r="8" fill="#15803d"/>
<text x="640" cy="155" y="160" text-anchor="middle" font-size="14" font-weight="700" font-family="sans-serif" fill="#14532d">1</text><circle cx="620" cy="200" r="8" fill="#15803d"/>
<text x="640" cy="200" y="205" text-anchor="middle" font-size="14" font-weight="700" font-family="sans-serif" fill="#14532d">4</text><circle cx="620" cy="245" r="8" fill="#15803d"/>
<text x="640" cy="245" y="250" text-anchor="middle" font-size="14" font-weight="700" font-family="sans-serif" fill="#14532d">9</text><circle cx="620" cy="290" r="8" fill="#15803d"/>
<text x="640" cy="290" y="295" text-anchor="middle" font-size="14" font-weight="700" font-family="sans-serif" fill="#14532d">16</text>
<line x1="148" y1="140" x2="612" y2="155" stroke="#4ade80" stroke-width="2" marker-end="url(#arr)"/>
<line x1="148" y1="185" x2="612" y2="200" stroke="#4ade80" stroke-width="2"/>
<line x1="148" y1="230" x2="612" y2="245" stroke="#4ade80" stroke-width="2"/>
<line x1="148" y1="275" x2="612" y2="290" stroke="#4ade80" stroke-width="2"/>
<rect x="240" y="175" width="320" height="60" rx="12" fill="#16a34a"/>
<text x="400" y="200" text-anchor="middle" font-size="14" font-weight="800" font-family="monospace" fill="#fff">f(x) = x²</text>
<text x="400" y="224" text-anchor="middle" font-size="12" font-weight="700" font-family="sans-serif" fill="#dcfce7">One-to-One · Onto · Bijective</text>
<rect x="80" y="360" width="640" height="38" rx="10" fill="#dcfce7" stroke="#16a34a" stroke-width="2"/>
<text x="400" y="384" text-anchor="middle" font-size="13" font-weight="700" font-family="sans-serif" fill="#14532d">Types: Constant · Identity · Polynomial · Modulus · Signum · Greatest Integer</text>
</svg>