<?xml version="1.0" encoding="UTF-8"?>
<svg xmlns="http://www.w3.org/2000/svg" width="800" height="420" viewBox="0 0 800 420">
  <defs>
    <linearGradient id="bg" x1="0%" y1="0%" x2="100%" y2="100%">
      <stop offset="0%" stop-color="#eff6ff"/>
      <stop offset="100%" stop-color="#dbeafe"/>
    </linearGradient>
  </defs>
  <rect width="800" height="420" fill="url(#bg)" rx="20"/>
  <rect x="70" y="280" width="72" height="50" rx="8" fill="#3b82f6" opacity="0.45"/>
<text x="106" y="272" text-anchor="middle" font-size="13" font-weight="700" font-family="monospace" fill="#1e3a8a">a</text><rect x="160" y="252" width="72" height="78" rx="8" fill="#3b82f6" opacity="0.52"/>
<text x="196" y="244" text-anchor="middle" font-size="13" font-weight="700" font-family="monospace" fill="#1e3a8a">a+1d</text><rect x="250" y="224" width="72" height="106" rx="8" fill="#3b82f6" opacity="0.5900000000000001"/>
<text x="286" y="216" text-anchor="middle" font-size="13" font-weight="700" font-family="monospace" fill="#1e3a8a">a+2d</text><rect x="340" y="196" width="72" height="134" rx="8" fill="#3b82f6" opacity="0.66"/>
<text x="376" y="188" text-anchor="middle" font-size="13" font-weight="700" font-family="monospace" fill="#1e3a8a">a+3d</text><rect x="430" y="168" width="72" height="162" rx="8" fill="#3b82f6" opacity="0.73"/>
<text x="466" y="160" text-anchor="middle" font-size="13" font-weight="700" font-family="monospace" fill="#1e3a8a">a+4d</text><rect x="520" y="140" width="72" height="190" rx="8" fill="#3b82f6" opacity="0.8"/>
<text x="556" y="132" text-anchor="middle" font-size="13" font-weight="700" font-family="monospace" fill="#1e3a8a">a+5d</text><rect x="610" y="112" width="72" height="218" rx="8" fill="#3b82f6" opacity="0.8700000000000001"/>
<text x="646" y="104" text-anchor="middle" font-size="13" font-weight="700" font-family="monospace" fill="#1e3a8a">a+6d</text><rect x="700" y="84" width="72" height="246" rx="8" fill="#3b82f6" opacity="0.9400000000000001"/>
<text x="736" y="76" text-anchor="middle" font-size="13" font-weight="700" font-family="monospace" fill="#1e3a8a">a+7d</text>
<rect x="60" y="60" width="680" height="80" rx="14" fill="#1d4ed8"/>
<text x="400" y="90" text-anchor="middle" font-size="15" font-weight="800" font-family="monospace" fill="#fff">AP: aₙ = a+(n−1)d · Sₙ = n/2[2a+(n−1)d]</text>
<text x="400" y="125" text-anchor="middle" font-size="15" font-weight="800" font-family="monospace" fill="#bfdbfe">GP: aₙ = arⁿ⁻¹ · Sₙ = a(rⁿ−1)/(r−1)</text>
<rect x="80" y="355" width="640" height="42" rx="10" fill="#dbeafe" stroke="#3b82f6" stroke-width="2"/>
<text x="400" y="381" text-anchor="middle" font-size="13" font-weight="700" font-family="monospace" fill="#1e40af">Sum of first n naturals: n(n+1)/2 · Squares: n(n+1)(2n+1)/6</text>
</svg>