<?xml version="1.0" encoding="UTF-8"?>
<svg xmlns="http://www.w3.org/2000/svg" width="800" height="420" viewBox="0 0 800 420">
  <defs>
    <linearGradient id="bg" x1="0%" y1="0%" x2="100%" y2="100%">
      <stop offset="0%" stop-color="#f0fdf4"/>
      <stop offset="100%" stop-color="#dcfce7"/>
    </linearGradient>
  </defs>
  <rect width="800" height="420" fill="url(#bg)" rx="20"/>
  <rect x="75" y="260" width="56" height="70" rx="7" fill="#16a34a" opacity="0.5"/><rect x="143" y="220" width="56" height="110" rx="7" fill="#16a34a" opacity="0.55"/><rect x="211" y="170" width="56" height="160" rx="7" fill="#16a34a" opacity="0.6"/><rect x="279" y="230" width="56" height="100" rx="7" fill="#16a34a" opacity="0.65"/><rect x="347" y="190" width="56" height="140" rx="7" fill="#16a34a" opacity="0.7"/><rect x="415" y="250" width="56" height="80" rx="7" fill="#16a34a" opacity="0.75"/><rect x="483" y="200" width="56" height="130" rx="7" fill="#16a34a" opacity="0.8"/><rect x="551" y="240" width="56" height="90" rx="7" fill="#16a34a" opacity="0.8500000000000001"/><rect x="619" y="180" width="56" height="150" rx="7" fill="#16a34a" opacity="0.9"/><rect x="687" y="270" width="56" height="60" rx="7" fill="#16a34a" opacity="0.95"/>
<line x1="60" y1="330" x2="740" y2="330" stroke="#374151" stroke-width="2"/>
<rect x="60" y="55" width="680" height="50" rx="12" fill="#16a34a"/>
<text x="400" y="80" text-anchor="middle" font-size="14" font-weight="800" font-family="monospace" fill="#fff">Mean · Median · Mode · Variance · Standard Deviation</text>
<text x="400" y="100" text-anchor="middle" font-size="12" font-weight="700" font-family="sans-serif" fill="#dcfce7">σ² = Σ(xᵢ−x̄)² / n</text>
<rect x="80" y="350" width="640" height="42" rx="10" fill="#dcfce7" stroke="#16a34a" stroke-width="2"/>
<text x="400" y="376" text-anchor="middle" font-size="13" font-weight="700" font-family="sans-serif" fill="#14532d">Probability: P(A∪B)=P(A)+P(B)−P(A∩B) · Sample Space · Events</text>
</svg>