<?xml version="1.0" encoding="UTF-8"?>
<svg xmlns="http://www.w3.org/2000/svg" width="800" height="420" viewBox="0 0 800 420">
  <defs>
    <linearGradient id="bg" x1="0%" y1="0%" x2="100%" y2="100%">
      <stop offset="0%" stop-color="#fff1f2"/>
      <stop offset="100%" stop-color="#ffe4e6"/>
    </linearGradient>
  </defs>
  <rect width="800" height="420" fill="url(#bg)" rx="20"/>
  <rect x="100" y="90" width="240" height="240" rx="16" fill="#ffe4e6" stroke="#e11d48" stroke-width="3"/>
<text x="220" y="185" text-anchor="middle" font-size="15" font-weight="800" font-family="sans-serif" fill="#9f1239">HOT</text>
<text x="220" y="215" text-anchor="middle" font-size="13" font-weight="700" font-family="sans-serif" fill="#be123c">T₁ (Source)</text>
<rect x="460" y="90" width="240" height="240" rx="16" fill="#e0f2fe" stroke="#0369a1" stroke-width="3"/>
<text x="580" y="185" text-anchor="middle" font-size="15" font-weight="800" font-family="sans-serif" fill="#075985">COLD</text>
<text x="580" y="215" text-anchor="middle" font-size="13" font-weight="700" font-family="sans-serif" fill="#0369a1">T₂ (Sink)</text>
<rect x="310" y="150" width="140" height="110" rx="12" fill="#fef9c3" stroke="#ca8a04" stroke-width="2.5"/>
<text x="380" y="185" text-anchor="middle" font-size="12" font-weight="800" font-family="sans-serif" fill="#713f12">Engine</text>
<text x="380" y="205" text-anchor="middle" font-size="11" font-weight="700" font-family="monospace" fill="#92400e">W=Q₁-Q₂</text>
<text x="380" y="225" text-anchor="middle" font-size="11" font-family="monospace" fill="#92400e">η=1-T₂/T₁</text>
<line x1="340" y1="210" x2="310" y2="210" stroke="#e11d48" stroke-width="2.5" marker-end="url(#arr)"/>
<line x1="450" y1="210" x2="460" y2="210" stroke="#0369a1" stroke-width="2.5"/>
<rect x="80" y="55" width="640" height="48" rx="12" fill="#e11d48"/>
<text x="400" y="84" text-anchor="middle" font-size="14" font-weight="800" font-family="monospace" fill="#fff">ΔU = Q − W · Zeroth, First, Second, Third Laws</text>
<rect x="80" y="355" width="640" height="40" rx="10" fill="#ffe4e6" stroke="#e11d48" stroke-width="2"/>
<text x="400" y="380" text-anchor="middle" font-size="13" font-weight="700" font-family="sans-serif" fill="#9f1239">Isothermal · Adiabatic · Isochoric · Isobaric · Entropy · Carnot Engine</text>
</svg>