<?xml version="1.0" encoding="UTF-8"?>
<svg xmlns="http://www.w3.org/2000/svg" width="800" height="420" viewBox="0 0 800 420">
  <defs>
    <linearGradient id="bg" x1="0%" y1="0%" x2="100%" y2="100%">
      <stop offset="0%" stop-color="#fdf4ff"/>
      <stop offset="100%" stop-color="#f3e8ff"/>
    </linearGradient>
  </defs>
  <rect width="800" height="420" fill="url(#bg)" rx="20"/>
  <circle cx="400" cy="210" r="150" fill="none" stroke="#9333ea" stroke-width="2.5" stroke-dasharray="6,3"/>
<line x1="250" y1="210" x2="550" y2="210" stroke="#374151" stroke-width="1.5"/>
<line x1="400" y1="60" x2="400" y2="360" stroke="#374151" stroke-width="1.5"/>
<line x1="400" y1="210" x2="514" y2="133" stroke="#9333ea" stroke-width="3"/>
<circle cx="514" cy="133" r="7" fill="#dc2626"/>
<line x1="514" y1="133" x2="514" y2="210" stroke="#dc2626" stroke-width="2.5" stroke-dasharray="5,3"/>
<line x1="400" y1="210" x2="514" y2="210" stroke="#16a34a" stroke-width="2.5" stroke-dasharray="5,3"/>
<text x="535" y="175" font-size="14" font-weight="800" font-family="sans-serif" fill="#dc2626">sin θ</text>
<text x="450" y="228" font-size="14" font-weight="800" font-family="sans-serif" fill="#16a34a">cos θ</text>
<path d="M 430,210 A 30,30 0 0,0 418,183" fill="none" stroke="#f97316" stroke-width="2"/>
<text x="448" y="198" font-size="13" font-weight="800" font-family="sans-serif" fill="#f97316">θ</text>
<rect x="50" y="55" width="700" height="50" rx="10" fill="#9333ea"/>
<text x="400" y="84" text-anchor="middle" font-size="13" font-weight="800" font-family="monospace" fill="#fff">sin²θ+cos²θ=1 · 1+tan²θ=sec²θ · 1+cot²θ=cosec²θ</text>
<rect x="80" y="340" width="640" height="40" rx="10" fill="#f3e8ff" stroke="#9333ea" stroke-width="2"/>
<text x="400" y="365" text-anchor="middle" font-size="13" font-weight="700" font-family="monospace" fill="#6b21a8">sin(A±B) · cos(A±B) · tan(A±B) · Double Angle · Half Angle</text>
</svg>