<?xml version="1.0" encoding="UTF-8"?>
<svg xmlns="http://www.w3.org/2000/svg" width="800" height="420" viewBox="0 0 800 420">
  <defs>
    <linearGradient id="bg" x1="0%" y1="0%" x2="100%" y2="100%">
      <stop offset="0%" stop-color="#f0f9ff"/>
      <stop offset="100%" stop-color="#e0f2fe"/>
    </linearGradient>
  </defs>
  <rect width="800" height="420" fill="url(#bg)" rx="20"/>
  <rect x="80" y="90" width="180" height="60" rx="12" fill="#0369a1"/>
<text x="170" y="126" text-anchor="middle" font-size="15" font-weight="800" font-family="sans-serif" fill="#fff">SI Units</text>
<rect x="80" y="170" width="180" height="40" rx="8" fill="#0ea5e9" opacity="0.8"/>
<text x="170" y="195" text-anchor="middle" font-size="12" font-weight="700" font-family="sans-serif" fill="#fff">Length — metre (m)</text>
<rect x="80" y="220" width="180" height="40" rx="8" fill="#0ea5e9" opacity="0.8"/>
<text x="170" y="245" text-anchor="middle" font-size="12" font-weight="700" font-family="sans-serif" fill="#fff">Mass — kilogram (kg)</text>
<rect x="80" y="270" width="180" height="40" rx="8" fill="#0ea5e9" opacity="0.8"/>
<text x="170" y="295" text-anchor="middle" font-size="12" font-weight="700" font-family="sans-serif" fill="#fff">Time — second (s)</text>
<rect x="80" y="320" width="180" height="40" rx="8" fill="#0ea5e9" opacity="0.8"/>
<text x="170" y="345" text-anchor="middle" font-size="12" font-weight="700" font-family="sans-serif" fill="#fff">Current — ampere (A)</text>
<rect x="300" y="90" width="420" height="200" rx="14" fill="#e0f2fe" stroke="#0369a1" stroke-width="2.5"/>
<text x="510" y="120" text-anchor="middle" font-size="16" font-weight="800" font-family="sans-serif" fill="#075985">Dimensional Analysis</text>
<text x="510" y="160" text-anchor="middle" font-size="22" font-family="monospace" font-weight="900" fill="#0369a1">[M¹L²T⁻²]</text>
<text x="510" y="195" text-anchor="middle" font-size="13" font-weight="700" font-family="sans-serif" fill="#075985">Energy / Work / Heat</text>
<text x="510" y="220" text-anchor="middle" font-size="13" font-family="sans-serif" fill="#0369a1">Significant Figures · Errors in Measurement</text>
<text x="510" y="250" text-anchor="middle" font-size="13" font-family="sans-serif" fill="#0369a1">Absolute · Relative · Percentage Error</text>
<rect x="80" y="370" width="640" height="38" rx="10" fill="#0369a1"/>
<text x="400" y="394" text-anchor="middle" font-size="13" font-weight="800" font-family="monospace" fill="#fff">Least Count · Vernier Calliper · Screw Gauge · Accuracy vs Precision</text>
</svg>