<?xml version="1.0" encoding="UTF-8"?>
<svg xmlns="http://www.w3.org/2000/svg" width="800" height="420" viewBox="0 0 800 420">
  <defs>
    <linearGradient id="bg" x1="0%" y1="0%" x2="100%" y2="100%">
      <stop offset="0%" stop-color="#eff6ff"/>
      <stop offset="100%" stop-color="#dbeafe"/>
    </linearGradient>
  </defs>
  <rect width="800" height="420" fill="url(#bg)" rx="20"/>
  <path d="M 60,215 C 110,100 190,100 250,215 S 390,330 450,215 S 590,100 650,215 S 750,330 780,215" fill="none" stroke="#3b82f6" stroke-width="3.5"/>
<path d="M 60,215 C 110,330 190,330 250,215 S 390,100 450,215 S 590,330 650,215" fill="none" stroke="#dc2626" stroke-width="2" stroke-dasharray="6,4" opacity="0.7"/>
<line x1="60" y1="215" x2="780" y2="215" stroke="#9ca3af" stroke-width="1.5" stroke-dasharray="4,4"/>
<line x1="250" y1="100" x2="250" y2="215" stroke="#374151" stroke-width="1.5" stroke-dasharray="3,3"/>
<line x1="450" y1="100" x2="450" y2="215" stroke="#374151" stroke-width="1.5" stroke-dasharray="3,3"/>
<text x="350" y="90" text-anchor="middle" font-size="13" font-weight="700" font-family="sans-serif" fill="#374151">λ (wavelength)</text>
<line x1="250" y1="88" x2="450" y2="88" stroke="#374151" stroke-width="1.5" marker-end="url(#arr)"/>
<text x="62" y="115" font-size="13" font-weight="700" font-family="sans-serif" fill="#374151">A</text>
<line x1="75" y1="120" x2="75" y2="215" stroke="#374151" stroke-width="1.5"/>
<rect x="80" y="55" width="640" height="48" rx="12" fill="#1d4ed8"/>
<text x="400" y="83" text-anchor="middle" font-size="14" font-weight="800" font-family="monospace" fill="#fff">v = fλ · y = A sin(ωt − kx) · v_sound = √(γP/ρ)</text>
<rect x="80" y="350" width="640" height="42" rx="10" fill="#dbeafe" stroke="#3b82f6" stroke-width="2"/>
<text x="400" y="376" text-anchor="middle" font-size="13" font-weight="700" font-family="sans-serif" fill="#1e40af">Transverse · Longitudinal · Superposition · Beats · Doppler Effect · Standing Waves</text>
</svg>