<?xml version="1.0" encoding="UTF-8"?>
<svg xmlns="http://www.w3.org/2000/svg" width="800" height="420" viewBox="0 0 800 420">
  <defs>
    <linearGradient id="bg" x1="0%" y1="0%" x2="100%" y2="100%">
      <stop offset="0%" stop-color="#f8fafc"/>
      <stop offset="100%" stop-color="#f1f5f9"/>
    </linearGradient>
  </defs>
  <rect width="800" height="420" fill="url(#bg)" rx="20"/>
  <!-- Compass arc -->
<path d="M 200,320 A 200,200 0 0,1 550,180" fill="none" stroke="#64748b" stroke-width="3"/>
<!-- Perpendicular bisector -->
<line x1="180" y1="200" x2="580" y2="200" stroke="#374151" stroke-width="2.5"/>
<line x1="380" y1="80" x2="380" y2="360" stroke="#dc2626" stroke-width="2.5" stroke-dasharray="6,4"/>
<!-- Points on base -->
<circle cx="180" cy="200" r="7" fill="#374151"/>
<circle cx="580" cy="200" r="7" fill="#374151"/>
<circle cx="380" cy="200" r="7" fill="#dc2626"/>
<text x="170" y="225" font-size="14" font-family="sans-serif" fill="#374151">A</text>
<text x="585" y="225" font-size="14" font-family="sans-serif" fill="#374151">B</text>
<!-- Angle bisector arc -->
<path d="M 560,290 A 60,60 0 0,1 620,200" fill="none" stroke="#2563eb" stroke-width="2.5"/>
<line x1="560" y1="330" x2="680" y2="160" stroke="#2563eb" stroke-width="2.5"/>
<line x1="560" y1="330" x2="680" y2="330" stroke="#2563eb" stroke-width="2.5"/>
<!-- Label box -->
<rect x="60" y="370" width="680" height="40" rx="10" fill="#64748b"/>
<text x="400" y="396" text-anchor="middle" font-size="15" font-family="sans-serif" font-weight="800" fill="#fff">Constructions: Bisectors · 60°· 90°· 45°· Triangles</text>
<text x="400" y="65" text-anchor="middle" font-size="26" font-family="sans-serif" font-weight="800" fill="#334155">Constructions</text>
</svg>