<?xml version="1.0" encoding="UTF-8"?>
<svg xmlns="http://www.w3.org/2000/svg" width="800" height="420" viewBox="0 0 800 420">
  <defs>
    <linearGradient id="bg" x1="0%" y1="0%" x2="100%" y2="100%">
      <stop offset="0%" stop-color="#f0fdf4"/>
      <stop offset="100%" stop-color="#dcfce7"/>
    </linearGradient>
  </defs>
  <rect width="800" height="420" fill="url(#bg)" rx="20"/>
  <!-- Grid -->
<line x1="160" y1="60" x2="160" y2="380" stroke="#d1fae5" stroke-width="1.2"/><line x1="220" y1="60" x2="220" y2="380" stroke="#d1fae5" stroke-width="1.2"/><line x1="280" y1="60" x2="280" y2="380" stroke="#d1fae5" stroke-width="1.2"/><line x1="340" y1="60" x2="340" y2="380" stroke="#d1fae5" stroke-width="1.2"/><line x1="400" y1="60" x2="400" y2="380" stroke="#d1fae5" stroke-width="1.2"/><line x1="460" y1="60" x2="460" y2="380" stroke="#d1fae5" stroke-width="1.2"/><line x1="520" y1="60" x2="520" y2="380" stroke="#d1fae5" stroke-width="1.2"/><line x1="580" y1="60" x2="580" y2="380" stroke="#d1fae5" stroke-width="1.2"/><line x1="640" y1="60" x2="640" y2="380" stroke="#d1fae5" stroke-width="1.2"/>
<line x1="100" y1="80" x2="720" y2="80" stroke="#d1fae5" stroke-width="1.2"/><line x1="100" y1="140" x2="720" y2="140" stroke="#d1fae5" stroke-width="1.2"/><line x1="100" y1="200" x2="720" y2="200" stroke="#d1fae5" stroke-width="1.2"/><line x1="100" y1="260" x2="720" y2="260" stroke="#d1fae5" stroke-width="1.2"/><line x1="100" y1="320" x2="720" y2="320" stroke="#d1fae5" stroke-width="1.2"/><line x1="100" y1="380" x2="720" y2="380" stroke="#d1fae5" stroke-width="1.2"/>
<!-- Axes -->
<line x1="100" y1="200" x2="720" y2="200" stroke="#374151" stroke-width="2.5"/>
<line x1="400" y1="60" x2="400" y2="380" stroke="#374151" stroke-width="2.5"/>
<polygon points="720,193 740,200 720,207" fill="#374151"/>
<polygon points="393,60 400,40 407,60" fill="#374151"/>
<text x="730" y="205" font-size="14" font-family="sans-serif" fill="#374151">X</text>
<text x="405" y="36" font-size="14" font-family="sans-serif" fill="#374151">Y</text>
<!-- Points and line -->
<circle cx="280" cy="260" r="8" fill="#dc2626"/>
<circle cx="520" cy="140" r="8" fill="#dc2626"/>
<line x1="160" y1="320" x2="700" y2="100" stroke="#16a34a" stroke-width="2.5"/>
<text x="275" y="285" font-size="13" font-weight="700" font-family="sans-serif" fill="#dc2626">A(−2,−2)</text>
<text x="525" y="135" font-size="13" font-weight="700" font-family="sans-serif" fill="#dc2626">B(3, 2)</text>
<!-- Quadrant labels -->
<text x="560" y="155" font-size="13" font-family="sans-serif" fill="#6b7280">I (+,+)</text>
<text x="210" y="155" font-size="13" font-family="sans-serif" fill="#6b7280">II (−,+)</text>
<text x="210" y="275" font-size="13" font-family="sans-serif" fill="#6b7280">III (−,−)</text>
<text x="560" y="275" font-size="13" font-family="sans-serif" fill="#6b7280">IV (+,−)</text>
<text x="400" y="410" text-anchor="middle" font-size="26" font-family="sans-serif" font-weight="800" fill="#14532d">Coordinate Geometry</text>
</svg>