<?xml version="1.0" encoding="UTF-8"?>
<svg xmlns="http://www.w3.org/2000/svg" width="800" height="420" viewBox="0 0 800 420">
  <defs>
    <linearGradient id="bg" x1="0%" y1="0%" x2="100%" y2="100%">
      <stop offset="0%" stop-color="#f0fdf4"/>
      <stop offset="100%" stop-color="#dcfce7"/>
    </linearGradient>
  </defs>
  <rect width="800" height="420" fill="url(#bg)" rx="20"/>
  <!-- Ballot box -->
<rect x="270" y="150" width="260" height="200" rx="14" fill="#dcfce7" stroke="#16a34a" stroke-width="3"/>
<rect x="310" y="135" width="180" height="20" rx="6" fill="#15803d"/>
<line x1="360" y1="135" x2="345" y2="100" stroke="#15803d" stroke-width="2.5"/>
<!-- Ballot papers -->
<rect x="350" y="80" width="40" height="30" rx="4" fill="#fff" stroke="#16a34a" stroke-width="1.5"/><rect x="365" y="70" width="40" height="30" rx="4" fill="#fff" stroke="#16a34a" stroke-width="1.5"/><rect x="380" y="75" width="40" height="30" rx="4" fill="#fff" stroke="#16a34a" stroke-width="1.5"/><rect x="395" y="72" width="40" height="30" rx="4" fill="#fff" stroke="#16a34a" stroke-width="1.5"/><rect x="410" y="78" width="40" height="30" rx="4" fill="#fff" stroke="#16a34a" stroke-width="1.5"/>
<!-- Voting arrow -->
<line x1="400" y1="100" x2="400" y2="133" stroke="#059669" stroke-width="3"/>
<polygon points="394,130 400,143 406,130" fill="#059669"/>
<!-- Info boxes -->
<rect x="60" y="380" width="680" height="30" rx="8" fill="#16a34a"/>
<text x="400" y="400" text-anchor="middle" font-size="13" font-family="sans-serif" font-weight="800" fill="#fff">ECI · Model Code · FPTP system · Universal Adult Franchise</text>
<rect x="60" y="65" width="680" height="65" rx="12" fill="#dcfce7" stroke="#16a34a" stroke-width="2"/>
<text x="400" y="92" text-anchor="middle" font-size="15" font-weight="800" font-family="sans-serif" fill="#14532d">Electoral Politics</text>
<text x="400" y="118" text-anchor="middle" font-size="13" font-family="sans-serif" fill="#15803d">Why elections? · Voters list · Nomination · Campaign · Counting</text>
</svg>