<?xml version="1.0" encoding="UTF-8"?>
<svg xmlns="http://www.w3.org/2000/svg" width="800" height="420" viewBox="0 0 800 420">
  <defs>
    <linearGradient id="bg" x1="0%" y1="0%" x2="100%" y2="100%">
      <stop offset="0%" stop-color="#020617"/>
      <stop offset="100%" stop-color="#0f172a"/>
    </linearGradient>
  </defs>
  <rect width="800" height="420" fill="url(#bg)" rx="20"/>
  <rect x="0" y="0" width="800" height="420" fill="#020617"/>
<circle cx="467" cy="167" r="0.5" fill="#fff" opacity="0.22"/><circle cx="196" cy="407" r="2.1" fill="#fff" opacity="0.52"/><circle cx="589" cy="64" r="1.4" fill="#fff" opacity="0.25"/><circle cx="676" cy="231" r="1.0" fill="#fff" opacity="0.62"/><circle cx="346" cy="332" r="0.7" fill="#fff" opacity="0.59"/><circle cx="668" cy="255" r="1.4" fill="#fff" opacity="0.46"/><circle cx="628" cy="323" r="1.7" fill="#fff" opacity="0.25"/><circle cx="171" cy="307" r="1.2" fill="#fff" opacity="0.25"/><circle cx="378" cy="21" r="0.9" fill="#fff" opacity="0.59"/><circle cx="386" cy="133" r="2.2" fill="#fff" opacity="0.42"/><circle cx="685" cy="288" r="1.1" fill="#fff" opacity="0.59"/><circle cx="300" cy="202" r="1.1" fill="#fff" opacity="0.31"/><circle cx="574" cy="364" r="1.8" fill="#fff" opacity="0.31"/><circle cx="646" cy="110" r="0.9" fill="#fff" opacity="0.58"/><circle cx="583" cy="34" r="0.8" fill="#fff" opacity="0.69"/><circle cx="145" cy="168" r="2.1" fill="#fff" opacity="0.20"/><circle cx="248" cy="321" r="2.1" fill="#fff" opacity="0.48"/><circle cx="405" cy="85" r="1.3" fill="#fff" opacity="0.44"/><circle cx="624" cy="413" r="1.2" fill="#fff" opacity="0.28"/><circle cx="108" cy="44" r="1.2" fill="#fff" opacity="0.33"/><circle cx="46" cy="316" r="0.4" fill="#fff" opacity="0.42"/><circle cx="99" cy="135" r="0.5" fill="#fff" opacity="0.69"/><circle cx="245" cy="66" r="2.2" fill="#fff" opacity="0.40"/><circle cx="508" cy="127" r="1.5" fill="#fff" opacity="0.33"/><circle cx="9" cy="287" r="0.8" fill="#fff" opacity="0.29"/><circle cx="739" cy="48" r="1.0" fill="#fff" opacity="0.70"/><circle cx="707" cy="280" r="0.6" fill="#fff" opacity="0.41"/><circle cx="174" cy="140" r="1.0" fill="#fff" opacity="0.40"/><circle cx="678" cy="40" r="1.1" fill="#fff" opacity="0.60"/><circle cx="278" cy="170" r="1.6" fill="#fff" opacity="0.47"/>
<!-- Earth -->
<circle cx="400" cy="250" r="90" fill="#1d4ed8"/>
<ellipse cx="400" cy="250" rx="90" ry="28" fill="none" stroke="#60a5fa" stroke-width="1.5" stroke-dasharray="5,3"/>
<text x="400" y="255" text-anchor="middle" font-size="28">🌍</text>
<!-- Apple falling -->
<text x="400" y="110" text-anchor="middle" font-size="32">🍎</text>
<line x1="400" y1="130" x2="400" y2="158" stroke="#f59e0b" stroke-width="2.5"/>
<polygon points="394,158 400,170 406,158" fill="#f59e0b"/>
<text x="420" y="145" font-size="13" font-weight="700" font-family="sans-serif" fill="#f59e0b">g=9.8m/s²</text>
<!-- Formula -->
<rect x="480" y="90" width="280" height="80" rx="12" fill="rgba(245,158,11,0.15)" stroke="#f59e0b" stroke-width="1.5"/>
<text x="620" y="122" text-anchor="middle" font-size="16" font-family="monospace" font-weight="800" fill="#fbbf24">F = GMm/r²</text>
<text x="620" y="152" text-anchor="middle" font-size="13" font-family="sans-serif" fill="#d97706">Universal Gravitation</text>
<text x="400" y="390" text-anchor="middle" font-size="26" font-family="sans-serif" font-weight="800" fill="#f59e0b">Gravitation</text>
</svg>