<?xml version="1.0" encoding="UTF-8"?>
<svg xmlns="http://www.w3.org/2000/svg" width="800" height="420" viewBox="0 0 800 420">
  <defs>
    <linearGradient id="bg" x1="0%" y1="0%" x2="100%" y2="100%">
      <stop offset="0%" stop-color="#f0f9ff"/>
      <stop offset="100%" stop-color="#e0f2fe"/>
    </linearGradient>
  </defs>
  <rect width="800" height="420" fill="url(#bg)" rx="20"/>
  <!-- States of matter -->

<rect x="80" y="95" width="200" height="235" rx="16" fill="#0284c711" stroke="#0284c7" stroke-width="2.5"/>
<text x="180" y="128" text-anchor="middle" font-size="16" font-weight="900" font-family="sans-serif" fill="#0284c7">Solid</text>
<circle cx="130" cy="175" r="16" fill="#0284c7" opacity=".6"/><circle cx="190" cy="175" r="16" fill="#0284c7" opacity=".6"/><circle cx="250" cy="175" r="16" fill="#0284c7" opacity=".6"/><circle cx="130" cy="210" r="16" fill="#0284c7" opacity=".6"/><circle cx="190" cy="210" r="16" fill="#0284c7" opacity=".6"/><circle cx="250" cy="210" r="16" fill="#0284c7" opacity=".6"/><circle cx="130" cy="245" r="16" fill="#0284c7" opacity=".6"/><circle cx="190" cy="245" r="16" fill="#0284c7" opacity=".6"/><circle cx="250" cy="245" r="16" fill="#0284c7" opacity=".6"/>
<text x="180" y="290" text-anchor="middle" font-size="12" font-family="sans-serif" fill="#0284c7">Fixed shape &amp; volume</text>
<text x="180" y="313" text-anchor="middle" font-size="12" font-family="sans-serif" fill="#0284c7">Tightly packed</text>
<rect x="310" y="95" width="200" height="235" rx="16" fill="#7c3aed11" stroke="#7c3aed" stroke-width="2.5"/>
<text x="410" y="128" text-anchor="middle" font-size="16" font-weight="900" font-family="sans-serif" fill="#7c3aed">Liquid</text>
<circle cx="130" cy="175" r="14" fill="#7c3aed" opacity=".5"/><circle cx="200" cy="165" r="14" fill="#7c3aed" opacity=".5"/><circle cx="265" cy="175" r="14" fill="#7c3aed" opacity=".5"/><circle cx="145" cy="220" r="14" fill="#7c3aed" opacity=".5"/><circle cx="215" cy="210" r="14" fill="#7c3aed" opacity=".5"/><circle cx="270" cy="225" r="14" fill="#7c3aed" opacity=".5"/><circle cx="135" cy="265" r="14" fill="#7c3aed" opacity=".5"/><circle cx="200" cy="258" r="14" fill="#7c3aed" opacity=".5"/><circle cx="270" cy="268" r="14" fill="#7c3aed" opacity=".5"/>
<text x="410" y="290" text-anchor="middle" font-size="12" font-family="sans-serif" fill="#7c3aed">Fixed volume, no shape</text>
<text x="410" y="313" text-anchor="middle" font-size="12" font-family="sans-serif" fill="#7c3aed">Closely packed</text>
<rect x="540" y="95" width="200" height="235" rx="16" fill="#16a34a11" stroke="#16a34a" stroke-width="2.5"/>
<text x="640" y="128" text-anchor="middle" font-size="16" font-weight="900" font-family="sans-serif" fill="#16a34a">Gas</text>
<circle cx="150" cy="165" r="10" fill="#16a34a" opacity=".4"/><circle cx="240" cy="180" r="10" fill="#16a34a" opacity=".4"/><circle cx="310" cy="170" r="10" fill="#16a34a" opacity=".4"/><circle cx="130" cy="215" r="10" fill="#16a34a" opacity=".4"/><circle cx="215" cy="225" r="10" fill="#16a34a" opacity=".4"/><circle cx="300" cy="215" r="10" fill="#16a34a" opacity=".4"/><circle cx="145" cy="265" r="10" fill="#16a34a" opacity=".4"/><circle cx="220" cy="270" r="10" fill="#16a34a" opacity=".4"/><circle cx="295" cy="262" r="10" fill="#16a34a" opacity=".4"/>
<text x="640" y="290" text-anchor="middle" font-size="12" font-family="sans-serif" fill="#16a34a">No fixed shape/volume</text>
<text x="640" y="313" text-anchor="middle" font-size="12" font-family="sans-serif" fill="#16a34a">Far apart</text>
<rect x="80" y="355" width="640" height="40" rx="10" fill="#0284c7"/>
<text x="400" y="380" text-anchor="middle" font-size="14" font-family="sans-serif" font-weight="800" fill="#fff">Matter in Our Surroundings — Physical &amp; Chemical changes</text>
</svg>