<?xml version="1.0" encoding="UTF-8"?>
<svg xmlns="http://www.w3.org/2000/svg" width="800" height="420" viewBox="0 0 800 420">
  <defs>
    <linearGradient id="bg" x1="0%" y1="0%" x2="100%" y2="100%">
      <stop offset="0%" stop-color="#fffbeb"/>
      <stop offset="100%" stop-color="#fef3c7"/>
    </linearGradient>
  </defs>
  <rect width="800" height="420" fill="url(#bg)" rx="20"/>
  <!-- Population pyramid simplified -->
<line x1="400" y1="80" x2="400" y2="350" stroke="#374151" stroke-width="2"/>
<line x1="120" y1="350" x2="680" y2="350" stroke="#374151" stroke-width="2"/>
<!-- Male bars (left) -->

<rect x="160" y="90" width="240" height="22" rx="3" fill="#3b82f6" opacity=".8"/>
<text x="155" y="105" text-anchor="end" font-size="11" font-family="sans-serif" fill="#374151">0-14</text>
<rect x="200" y="110" width="200" height="22" rx="3" fill="#3b82f6" opacity=".8"/>
<text x="195" y="125" text-anchor="end" font-size="11" font-family="sans-serif" fill="#374151">15-29</text>
<rect x="240" y="130" width="160" height="22" rx="3" fill="#3b82f6" opacity=".8"/>
<text x="235" y="145" text-anchor="end" font-size="11" font-family="sans-serif" fill="#374151">30-44</text>
<rect x="280" y="150" width="120" height="22" rx="3" fill="#3b82f6" opacity=".8"/>
<text x="275" y="165" text-anchor="end" font-size="11" font-family="sans-serif" fill="#374151">45-59</text>
<rect x="320" y="170" width="80" height="22" rx="3" fill="#3b82f6" opacity=".8"/>
<text x="315" y="185" text-anchor="end" font-size="11" font-family="sans-serif" fill="#374151">60-74</text>
<rect x="352" y="190" width="48" height="22" rx="3" fill="#3b82f6" opacity=".8"/>
<text x="347" y="205" text-anchor="end" font-size="11" font-family="sans-serif" fill="#374151">75+</text>
<!-- Female bars (right) -->
<rect x="400" y="90" width="232" height="22" rx="3" fill="#ec4899" opacity=".8"/><rect x="400" y="110" width="192" height="22" rx="3" fill="#ec4899" opacity=".8"/><rect x="400" y="130" width="152" height="22" rx="3" fill="#ec4899" opacity=".8"/><rect x="400" y="150" width="112" height="22" rx="3" fill="#ec4899" opacity=".8"/><rect x="400" y="170" width="76" height="22" rx="3" fill="#ec4899" opacity=".8"/><rect x="400" y="190" width="44" height="22" rx="3" fill="#ec4899" opacity=".8"/>
<text x="260" y="370" text-anchor="middle" font-size="13" font-weight="700" font-family="sans-serif" fill="#3b82f6">Male</text>
<text x="540" y="370" text-anchor="middle" font-size="13" font-weight="700" font-family="sans-serif" fill="#ec4899">Female</text>
<rect x="80" y="220" width="280" height="100" rx="12" fill="#fef3c7" stroke="#d97706" stroke-width="2"/>
<text x="220" y="248" text-anchor="middle" font-size="13" font-weight="800" font-family="sans-serif" fill="#92400e">Key Facts</text>
<text x="220" y="272" text-anchor="middle" font-size="12" font-family="sans-serif" fill="#78350f">Density, Growth rate</text>
<text x="220" y="292" text-anchor="middle" font-size="12" font-family="sans-serif" fill="#78350f">Sex ratio, Literacy</text>
<text x="220" y="312" text-anchor="middle" font-size="12" font-family="sans-serif" fill="#78350f">Urban/Rural migration</text>
<text x="400" y="65" text-anchor="middle" font-size="26" font-family="sans-serif" font-weight="800" fill="#78350f">Population</text>
</svg>