<?xml version="1.0" encoding="UTF-8"?>
<svg xmlns="http://www.w3.org/2000/svg" width="800" height="420" viewBox="0 0 800 420">
  <defs>
    <linearGradient id="bg" x1="0%" y1="0%" x2="100%" y2="100%">
      <stop offset="0%" stop-color="#eff6ff"/>
      <stop offset="100%" stop-color="#dbeafe"/>
    </linearGradient>
  </defs>
  <rect width="800" height="420" fill="url(#bg)" rx="20"/>
  <!-- Bar chart -->

<rect x="105" y="180" width="70" height="90" rx="6" fill="#3b82f6" opacity=".85"/>
<text x="140" y="295" text-anchor="middle" font-size="13" font-weight="700" font-family="sans-serif" fill="#1e3a8a">Jan</text>
<rect x="200" y="135" width="70" height="135" rx="6" fill="#2563eb" opacity=".85"/>
<text x="235" y="295" text-anchor="middle" font-size="13" font-weight="700" font-family="sans-serif" fill="#1e3a8a">Feb</text>
<rect x="295" y="190" width="70" height="80" rx="6" fill="#60a5fa" opacity=".85"/>
<text x="330" y="295" text-anchor="middle" font-size="13" font-weight="700" font-family="sans-serif" fill="#1e3a8a">Mar</text>
<rect x="390" y="110" width="70" height="160" rx="6" fill="#1d4ed8" opacity=".85"/>
<text x="425" y="295" text-anchor="middle" font-size="13" font-weight="700" font-family="sans-serif" fill="#1e3a8a">Apr</text>
<rect x="485" y="160" width="70" height="110" rx="6" fill="#93c5fd" opacity=".85"/>
<text x="520" y="295" text-anchor="middle" font-size="13" font-weight="700" font-family="sans-serif" fill="#1e3a8a">May</text>
<rect x="580" y="125" width="70" height="145" rx="6" fill="#1e40af" opacity=".85"/>
<text x="615" y="295" text-anchor="middle" font-size="13" font-weight="700" font-family="sans-serif" fill="#1e3a8a">Jun</text>
<line x1="80" y1="270" x2="720" y2="270" stroke="#374151" stroke-width="2"/>
<line x1="80" y1="270" x2="80" y2="80" stroke="#374151" stroke-width="2"/>
<!-- Mean/Median/Mode box -->
<rect x="80" y="310" width="640" height="68" rx="12" fill="#dbeafe" stroke="#3b82f6" stroke-width="2"/>
<text x="400" y="337" text-anchor="middle" font-size="14" font-weight="800" font-family="sans-serif" fill="#1e3a8a">Measures of Central Tendency</text>
<text x="400" y="360" text-anchor="middle" font-size="13" font-family="sans-serif" fill="#1e40af">Mean = Σx/n · Median = middle value · Mode = most frequent</text>
<text x="400" y="68" text-anchor="middle" font-size="26" font-family="sans-serif" font-weight="800" fill="#1e3a8a">Statistics</text>
</svg>