<?xml version="1.0" encoding="UTF-8"?>
<svg xmlns="http://www.w3.org/2000/svg" width="800" height="420" viewBox="0 0 800 420">
  <defs>
    <linearGradient id="bg" x1="0%" y1="0%" x2="100%" y2="100%">
      <stop offset="0%" stop-color="#0f172a"/>
      <stop offset="100%" stop-color="#1e293b"/>
    </linearGradient>
  </defs>
  <rect width="800" height="420" fill="url(#bg)" rx="20"/>
  <rect x="0" y="0" width="800" height="420" fill="#0f172a"/>
<circle cx="568" cy="221" r="1.1" fill="#fff" opacity="0.29"/><circle cx="266" cy="278" r="0.7" fill="#fff" opacity="0.45"/><circle cx="548" cy="399" r="0.9" fill="#fff" opacity="0.38"/><circle cx="781" cy="410" r="1.7" fill="#fff" opacity="0.14"/><circle cx="573" cy="242" r="0.7" fill="#fff" opacity="0.39"/><circle cx="716" cy="187" r="1.3" fill="#fff" opacity="0.15"/><circle cx="510" cy="143" r="1.0" fill="#fff" opacity="0.37"/><circle cx="360" cy="131" r="0.5" fill="#fff" opacity="0.21"/><circle cx="143" cy="73" r="1.0" fill="#fff" opacity="0.27"/><circle cx="437" cy="143" r="1.6" fill="#fff" opacity="0.10"/><circle cx="45" cy="71" r="1.0" fill="#fff" opacity="0.42"/><circle cx="331" cy="379" r="0.3" fill="#fff" opacity="0.26"/><circle cx="180" cy="56" r="1.8" fill="#fff" opacity="0.49"/><circle cx="97" cy="387" r="0.5" fill="#fff" opacity="0.27"/><circle cx="196" cy="408" r="1.2" fill="#fff" opacity="0.46"/><circle cx="198" cy="385" r="0.5" fill="#fff" opacity="0.29"/><circle cx="381" cy="183" r="0.7" fill="#fff" opacity="0.17"/><circle cx="394" cy="345" r="1.8" fill="#fff" opacity="0.40"/><circle cx="643" cy="111" r="0.6" fill="#fff" opacity="0.36"/><circle cx="299" cy="55" r="0.4" fill="#fff" opacity="0.39"/>
<!-- Nucleus -->
<circle cx="400" cy="210" r="40" fill="#dc2626"/>
<text x="400" y="205" text-anchor="middle" font-size="14" font-weight="800" font-family="sans-serif" fill="#fff">p⁺ n⁰</text>
<text x="400" y="225" text-anchor="middle" font-size="11" font-family="sans-serif" fill="#fca5a5">Nucleus</text>
<!-- Electron shells -->

<circle cx="400" cy="210" r="75" fill="none" stroke="#a78bfa" stroke-width="1.5" stroke-dasharray="5,3"/>
<circle cx="475" cy="210" r="7" fill="#fbbf24"/>
<text x="493" y="213" font-size="12" font-family="sans-serif" fill="#a78bfa">K: 2 e⁻</text>
<circle cx="400" cy="210" r="120" fill="none" stroke="#a78bfa" stroke-width="1.5" stroke-dasharray="5,3"/>
<circle cx="520" cy="210" r="7" fill="#fbbf24"/>
<text x="538" y="213" font-size="12" font-family="sans-serif" fill="#a78bfa">L: 8 e⁻</text>
<circle cx="400" cy="210" r="165" fill="none" stroke="#a78bfa" stroke-width="1.5" stroke-dasharray="5,3"/>
<circle cx="565" cy="210" r="7" fill="#fbbf24"/>
<text x="583" y="213" font-size="12" font-family="sans-serif" fill="#a78bfa">M: 18 e⁻</text>
<!-- Models -->
<rect x="60" y="60" width="280" height="100" rx="12" fill="rgba(167,139,250,0.1)" stroke="#a78bfa" stroke-width="1.5"/>
<text x="200" y="90" text-anchor="middle" font-size="14" font-weight="800" font-family="sans-serif" fill="#a78bfa">Atomic Models</text>
<text x="200" y="115" text-anchor="middle" font-size="12" font-family="sans-serif" fill="#c4b5fd">Thomson: +sphere with e⁻</text>
<text x="200" y="138" text-anchor="middle" font-size="12" font-family="sans-serif" fill="#c4b5fd">Rutherford: small dense nucleus</text>
<rect x="460" y="60" width="280" height="100" rx="12" fill="rgba(167,139,250,0.1)" stroke="#a78bfa" stroke-width="1.5"/>
<text x="600" y="90" text-anchor="middle" font-size="14" font-weight="800" font-family="sans-serif" fill="#a78bfa">Bohr's Model</text>
<text x="600" y="115" text-anchor="middle" font-size="12" font-family="sans-serif" fill="#c4b5fd">Electrons in fixed orbits</text>
<text x="600" y="138" text-anchor="middle" font-size="12" font-family="sans-serif" fill="#c4b5fd">No energy loss in orbit</text>
<text x="400" y="390" text-anchor="middle" font-size="24" font-family="sans-serif" font-weight="800" fill="#a78bfa">Structure of the Atom</text>
</svg>