<?xml version="1.0" encoding="UTF-8"?>
<svg xmlns="http://www.w3.org/2000/svg" width="800" height="420" viewBox="0 0 800 420">
  <defs>
    <linearGradient id="bg" x1="0%" y1="0%" x2="100%" y2="100%">
      <stop offset="0%" stop-color="#f0fdf4"/>
      <stop offset="100%" stop-color="#dcfce7"/>
    </linearGradient>
  </defs>
  <rect width="800" height="420" fill="url(#bg)" rx="20"/>
  <!-- Soil layers -->
<rect x="60" y="240" width="680" height="130" rx="8" fill="#a16207"/>
<rect x="60" y="195" width="680" height="50" rx="4" fill="#ca8a04"/>
<!-- Crops -->
<line x1="100" y1="195" x2="100" y2="115" stroke="#16a34a" stroke-width="3"/>
<path d="M100,125 Q80,100 65,90" fill="none" stroke="#22c55e" stroke-width="2.5"/>
<path d="M100,125 Q120,100 135,90" fill="none" stroke="#22c55e" stroke-width="2.5"/><line x1="172" y1="195" x2="172" y2="115" stroke="#16a34a" stroke-width="3"/>
<path d="M172,125 Q152,100 137,90" fill="none" stroke="#22c55e" stroke-width="2.5"/>
<path d="M172,125 Q192,100 207,90" fill="none" stroke="#22c55e" stroke-width="2.5"/><line x1="244" y1="195" x2="244" y2="115" stroke="#16a34a" stroke-width="3"/>
<path d="M244,125 Q224,100 209,90" fill="none" stroke="#22c55e" stroke-width="2.5"/>
<path d="M244,125 Q264,100 279,90" fill="none" stroke="#22c55e" stroke-width="2.5"/><line x1="316" y1="195" x2="316" y2="115" stroke="#16a34a" stroke-width="3"/>
<path d="M316,125 Q296,100 281,90" fill="none" stroke="#22c55e" stroke-width="2.5"/>
<path d="M316,125 Q336,100 351,90" fill="none" stroke="#22c55e" stroke-width="2.5"/><line x1="388" y1="195" x2="388" y2="115" stroke="#16a34a" stroke-width="3"/>
<path d="M388,125 Q368,100 353,90" fill="none" stroke="#22c55e" stroke-width="2.5"/>
<path d="M388,125 Q408,100 423,90" fill="none" stroke="#22c55e" stroke-width="2.5"/><line x1="460" y1="195" x2="460" y2="115" stroke="#16a34a" stroke-width="3"/>
<path d="M460,125 Q440,100 425,90" fill="none" stroke="#22c55e" stroke-width="2.5"/>
<path d="M460,125 Q480,100 495,90" fill="none" stroke="#22c55e" stroke-width="2.5"/><line x1="532" y1="195" x2="532" y2="115" stroke="#16a34a" stroke-width="3"/>
<path d="M532,125 Q512,100 497,90" fill="none" stroke="#22c55e" stroke-width="2.5"/>
<path d="M532,125 Q552,100 567,90" fill="none" stroke="#22c55e" stroke-width="2.5"/><line x1="604" y1="195" x2="604" y2="115" stroke="#16a34a" stroke-width="3"/>
<path d="M604,125 Q584,100 569,90" fill="none" stroke="#22c55e" stroke-width="2.5"/>
<path d="M604,125 Q624,100 639,90" fill="none" stroke="#22c55e" stroke-width="2.5"/><line x1="676" y1="195" x2="676" y2="115" stroke="#16a34a" stroke-width="3"/>
<path d="M676,125 Q656,100 641,90" fill="none" stroke="#22c55e" stroke-width="2.5"/>
<path d="M676,125 Q696,100 711,90" fill="none" stroke="#22c55e" stroke-width="2.5"/>
<!-- Sun -->
<circle cx="680" cy="90" r="42" fill="#fbbf24" stroke="#f59e0b" stroke-width="2.5"/>
<text x="680" y="95" text-anchor="middle" font-size="22" font-family="sans-serif">☀️</text>
<!-- Labels -->
<rect x="80" y="60" width="340" height="45" rx="12" fill="#dcfce7" stroke="#22c55e" stroke-width="2"/>
<text x="250" y="88" text-anchor="middle" font-size="15" font-weight="800" font-family="sans-serif" fill="#14532d">Kharif · Rabi · Zaid Crops</text>
<text x="400" y="390" text-anchor="middle" font-size="24" font-family="sans-serif" font-weight="800" fill="#14532d">Crop Production and Management</text>
</svg>