<?xml version="1.0" encoding="UTF-8"?>
<svg xmlns="http://www.w3.org/2000/svg" width="800" height="420" viewBox="0 0 800 420">
  <defs>
    <linearGradient id="bg" x1="0%" y1="0%" x2="100%" y2="100%">
      <stop offset="0%" stop-color="#f0fdf4"/>
      <stop offset="100%" stop-color="#bbf7d0"/>
    </linearGradient>
  </defs>
  <rect width="800" height="420" fill="url(#bg)" rx="20"/>
  <!-- Direct graph -->
<line x1="90" y1="330" x2="90" y2="90" stroke="#374151" stroke-width="2.5"/>
<line x1="90" y1="330" x2="380" y2="330" stroke="#374151" stroke-width="2.5"/>
<line x1="90" y1="330" x2="370" y2="100" stroke="#16a34a" stroke-width="3"/>
<text x="230" y="370" text-anchor="middle" font-size="14" font-family="sans-serif" font-weight="700" fill="#15803d">Direct Proportion  y=kx</text>
<text x="65" y="90" font-size="13" fill="#374151" font-family="sans-serif">y</text>
<text x="385" y="335" font-size="13" fill="#374151" font-family="sans-serif">x</text>
<!-- Inverse graph -->
<line x1="440" y1="330" x2="440" y2="90" stroke="#374151" stroke-width="2.5"/>
<line x1="440" y1="330" x2="740" y2="330" stroke="#374151" stroke-width="2.5"/>
<path d="M460,105 Q500,175 600,265 Q650,300 730,320" fill="none" stroke="#ea580c" stroke-width="3"/>
<text x="590" y="370" text-anchor="middle" font-size="14" font-family="sans-serif" font-weight="700" fill="#c2410c">Inverse Proportion  xy=k</text>
<text x="415" y="90" font-size="13" fill="#374151" font-family="sans-serif">y</text>
<text x="745" y="335" font-size="13" fill="#374151" font-family="sans-serif">x</text>
<!-- Formula boxes -->
<rect x="100" y="88" width="220" height="38" rx="8" fill="#dcfce7" stroke="#16a34a" stroke-width="1.5"/>
<text x="210" y="112" text-anchor="middle" font-size="15" font-family="monospace" font-weight="700" fill="#166534">x₁/y₁ = x₂/y₂</text>
<rect x="455" y="88" width="220" height="38" rx="8" fill="#fed7aa" stroke="#ea580c" stroke-width="1.5"/>
<text x="565" y="112" text-anchor="middle" font-size="15" font-family="monospace" font-weight="700" fill="#9a3412">x₁y₁ = x₂y₂</text>
</svg>