<?xml version="1.0" encoding="UTF-8"?>
<svg xmlns="http://www.w3.org/2000/svg" width="800" height="420" viewBox="0 0 800 420">
  <defs>
    <linearGradient id="bg" x1="0%" y1="0%" x2="100%" y2="100%">
      <stop offset="0%" stop-color="#f0f9ff"/>
      <stop offset="100%" stop-color="#e0f2fe"/>
    </linearGradient>
  </defs>
  <rect width="800" height="420" fill="url(#bg)" rx="20"/>
  <!-- Ship -->
<path d="M 160,230 Q 200,200 280,200 L 320,230 Q 280,250 200,250 Z" fill="#bae6fd" stroke="#0369a1" stroke-width="2.5"/>
<rect x="235" y="150" width="10" height="55" fill="#0369a1"/>
<path d="M 245,155 L 295,175 L 245,190 Z" fill="#bfdbfe" stroke="#0369a1" stroke-width="1.5"/>
<text x="240" y="280" text-anchor="middle" font-size="13" font-weight="700" font-family="sans-serif" fill="#075985">EIC Ship 1600</text>
<!-- Arrow to map -->
<line x1="330" y1="225" x2="420" y2="225" stroke="#0369a1" stroke-width="2.5"/>
<polygon points="418,218 432,225 418,232" fill="#0369a1"/>
<!-- India outline simplified -->
<path d="M 450,120 L 520,105 L 620,125 L 660,200 L 640,280 L 580,330 L 520,340 L 470,300 L 435,240 Z" fill="#e0f2fe" stroke="#0369a1" stroke-width="2.5"/>
<text x="540" y="225" text-anchor="middle" font-size="14" font-weight="700" font-family="sans-serif" fill="#0c4a6e">India</text>
<!-- Key events -->
<rect x="80" y="355" width="640" height="45" rx="10" fill="#bae6fd" stroke="#0369a1" stroke-width="1.5"/>
<text x="400" y="383" text-anchor="middle" font-size="14" font-family="sans-serif" font-weight="700" fill="#0c4a6e">1600 EIC charter → Trade → Revenue → Territory → Crown (1858)</text>
</svg>