<?xml version="1.0" encoding="UTF-8"?>
<svg xmlns="http://www.w3.org/2000/svg" width="800" height="420" viewBox="0 0 800 420">
  <defs>
    <linearGradient id="bg" x1="0%" y1="0%" x2="100%" y2="100%">
      <stop offset="0%" stop-color="#fffbeb"/>
      <stop offset="100%" stop-color="#fef3c7"/>
    </linearGradient>
  </defs>
  <rect width="800" height="420" fill="url(#bg)" rx="20"/>
  <!-- Timeline -->
<line x1="80" y1="210" x2="720" y2="210" stroke="#92400e" stroke-width="3"/>

<circle cx="120" cy="210" r="10" fill="#d97706" stroke="#78350f" stroke-width="2"/>
<line x1="120" y1="200" x2="120" y2="145" stroke="#b45309" stroke-width="1.5" stroke-dasharray="5,3"/>
<text x="120" y="135" text-anchor="middle" font-size="13" font-weight="700" font-family="sans-serif" fill="#92400e">1600</text>
<text x="120" y="250" text-anchor="middle" font-size="11" font-family="sans-serif" fill="#78350f">EIC arrives</text>
<circle cx="230" cy="210" r="10" fill="#d97706" stroke="#78350f" stroke-width="2"/>
<line x1="230" y1="200" x2="230" y2="145" stroke="#b45309" stroke-width="1.5" stroke-dasharray="5,3"/>
<text x="230" y="135" text-anchor="middle" font-size="13" font-weight="700" font-family="sans-serif" fill="#92400e">1757</text>
<text x="230" y="250" text-anchor="middle" font-size="11" font-family="sans-serif" fill="#78350f">Battle of Plassey</text>
<circle cx="340" cy="210" r="10" fill="#d97706" stroke="#78350f" stroke-width="2"/>
<line x1="340" y1="200" x2="340" y2="145" stroke="#b45309" stroke-width="1.5" stroke-dasharray="5,3"/>
<text x="340" y="135" text-anchor="middle" font-size="13" font-weight="700" font-family="sans-serif" fill="#92400e">1857</text>
<text x="340" y="250" text-anchor="middle" font-size="11" font-family="sans-serif" fill="#78350f">Revolt</text>
<circle cx="450" cy="210" r="10" fill="#d97706" stroke="#78350f" stroke-width="2"/>
<line x1="450" y1="200" x2="450" y2="145" stroke="#b45309" stroke-width="1.5" stroke-dasharray="5,3"/>
<text x="450" y="135" text-anchor="middle" font-size="13" font-weight="700" font-family="sans-serif" fill="#92400e">1885</text>
<text x="450" y="250" text-anchor="middle" font-size="11" font-family="sans-serif" fill="#78350f">Congress</text>
<circle cx="560" cy="210" r="10" fill="#d97706" stroke="#78350f" stroke-width="2"/>
<line x1="560" y1="200" x2="560" y2="145" stroke="#b45309" stroke-width="1.5" stroke-dasharray="5,3"/>
<text x="560" y="135" text-anchor="middle" font-size="13" font-weight="700" font-family="sans-serif" fill="#92400e">1919</text>
<text x="560" y="250" text-anchor="middle" font-size="11" font-family="sans-serif" fill="#78350f">Rowlatt</text>
<circle cx="660" cy="210" r="10" fill="#d97706" stroke="#78350f" stroke-width="2"/>
<line x1="660" y1="200" x2="660" y2="145" stroke="#b45309" stroke-width="1.5" stroke-dasharray="5,3"/>
<text x="660" y="135" text-anchor="middle" font-size="13" font-weight="700" font-family="sans-serif" fill="#92400e">1947</text>
<text x="660" y="250" text-anchor="middle" font-size="11" font-family="sans-serif" fill="#78350f">Independence</text>
<rect x="150" y="290" width="500" height="55" rx="12" fill="#fde68a" stroke="#d97706" stroke-width="2"/>
<text x="400" y="325" text-anchor="middle" font-size="15" font-family="sans-serif" font-weight="700" fill="#78350f">History: Who, When, Where &amp; How we know it</text>
<text x="400" y="380" text-anchor="middle" font-size="26" font-family="sans-serif" font-weight="800" fill="#78350f">How, When and Where</text>
</svg>