<?xml version="1.0" encoding="UTF-8"?>
<svg xmlns="http://www.w3.org/2000/svg" width="800" height="420" viewBox="0 0 800 420">
  <defs>
    <linearGradient id="bg" x1="0%" y1="0%" x2="100%" y2="100%">
      <stop offset="0%" stop-color="#fdf4ff"/>
      <stop offset="100%" stop-color="#f3e8ff"/>
    </linearGradient>
  </defs>
  <rect width="800" height="420" fill="url(#bg)" rx="20"/>
  <!-- Balance of justice -->
<line x1="400" y1="90" x2="400" y2="320" stroke="#6b21a8" stroke-width="4"/>
<line x1="200" y1="160" x2="600" y2="160" stroke="#7c3aed" stroke-width="3.5"/>
<!-- Left pan -->
<path d="M 200,160 Q 240,220 280,220 Q 320,220 360,160" fill="none" stroke="#7c3aed" stroke-width="2.5"/>
<rect x="205" y="218" width="150" height="45" rx="8" fill="#e9d5ff" stroke="#9333ea" stroke-width="2"/>
<text x="280" y="245" text-anchor="middle" font-size="13" font-weight="700" font-family="sans-serif" fill="#5b21b6">Justice</text>
<!-- Right pan -->
<path d="M 440,160 Q 480,220 520,220 Q 560,220 600,160" fill="none" stroke="#7c3aed" stroke-width="2.5"/>
<rect x="445" y="218" width="150" height="45" rx="8" fill="#ede9fe" stroke="#8b5cf6" stroke-width="2"/>
<text x="520" y="245" text-anchor="middle" font-size="13" font-weight="700" font-family="sans-serif" fill="#5b21b6">Law</text>
<!-- Court levels -->
<rect x="80" y="310" width="640" height="80" rx="12" fill="#f3e8ff" stroke="#9333ea" stroke-width="2"/>
<text x="400" y="338" text-anchor="middle" font-size="14" font-weight="800" font-family="sans-serif" fill="#6b21a8">Judiciary Structure</text>
<text x="400" y="362" text-anchor="middle" font-size="13" font-family="sans-serif" fill="#7e22ce">Supreme Court → High Court → District Court → Lok Adalat</text>
<text x="400" y="83" text-anchor="middle" font-size="26" font-family="sans-serif" font-weight="800" fill="#581c87">Judiciary</text>
</svg>