<?xml version="1.0" encoding="UTF-8"?>
<svg xmlns="http://www.w3.org/2000/svg" width="800" height="420" viewBox="0 0 800 420">
  <defs>
    <linearGradient id="bg" x1="0%" y1="0%" x2="100%" y2="100%">
      <stop offset="0%" stop-color="#0f172a"/>
      <stop offset="100%" stop-color="#1e293b"/>
    </linearGradient>
  </defs>
  <rect width="800" height="420" fill="url(#bg)" rx="20"/>
  <rect x="0" y="0" width="800" height="420" fill="#0f172a"/>
<!-- Mirror -->
<rect x="360" y="80" width="14" height="260" rx="4" fill="#94a3b8"/>
<line x1="374" y1="80" x2="374" y2="340" stroke="#38bdf8" stroke-width="2.5"/>
<!-- Incident ray -->
<line x1="90" y1="120" x2="374" y2="210" stroke="#fbbf24" stroke-width="3"/>
<polygon points="360,205 374,210 362,220" fill="#fbbf24"/>
<text x="210" y="148" font-size="13" font-family="sans-serif" font-weight="700" fill="#fbbf24">Incident ray</text>
<!-- Reflected ray -->
<line x1="374" y1="210" x2="90" y2="300" stroke="#38bdf8" stroke-width="3"/>
<polygon points="102,298 90,300 99,291" fill="#38bdf8"/>
<text x="200" y="295" font-size="13" font-family="sans-serif" font-weight="700" fill="#38bdf8">Reflected ray</text>
<!-- Normal -->
<line x1="374" y1="210" x2="550" y2="210" stroke="#94a3b8" stroke-width="1.5" stroke-dasharray="8,4"/>
<text x="470" y="205" font-size="13" font-family="sans-serif" fill="#94a3b8">Normal</text>
<!-- Angle arcs -->
<path d="M 374,210 L 340,165" stroke="#fbbf24" stroke-width="1.5"/>
<path d="M 374,210 L 340,255" stroke="#38bdf8" stroke-width="1.5"/>
<text x="330" y="200" font-size="13" font-family="sans-serif" fill="#fbbf24">∠i</text>
<text x="330" y="255" font-size="13" font-family="sans-serif" fill="#38bdf8">∠r</text>
<rect x="420" y="100" width="320" height="70" rx="12" fill="rgba(56,189,248,0.15)" stroke="#38bdf8" stroke-width="1.5"/>
<text x="580" y="130" text-anchor="middle" font-size="15" font-weight="700" font-family="sans-serif" fill="#7dd3fc">Laws of Reflection</text>
<text x="580" y="155" text-anchor="middle" font-size="13" font-family="sans-serif" fill="#38bdf8">∠i = ∠r · Same plane</text>
<rect x="420" y="195" width="320" height="100" rx="12" fill="rgba(56,189,248,0.1)" stroke="#38bdf8" stroke-width="1.5"/>
<text x="580" y="228" text-anchor="middle" font-size="13" font-weight="700" font-family="sans-serif" fill="#7dd3fc">Real image: convex lens</text>
<text x="580" y="252" text-anchor="middle" font-size="13" font-family="sans-serif" fill="#38bdf8">Virtual image: plane mirror</text>
<text x="580" y="275" text-anchor="middle" font-size="12" font-family="sans-serif" fill="#94a3b8">Lateral inversion</text>
<text x="400" y="388" text-anchor="middle" font-size="22" font-family="sans-serif" font-weight="800" fill="#38bdf8">Light — Reflection and Refraction</text>
</svg>