<?xml version="1.0" encoding="UTF-8"?>
<svg xmlns="http://www.w3.org/2000/svg" width="800" height="420" viewBox="0 0 800 420">
  <defs>
    <linearGradient id="bg" x1="0%" y1="0%" x2="100%" y2="100%">
      <stop offset="0%" stop-color="#fdf4ff"/>
      <stop offset="100%" stop-color="#f3e8ff"/>
    </linearGradient>
  </defs>
  <rect width="800" height="420" fill="url(#bg)" rx="20"/>
  <!-- Bacteria -->
<ellipse cx="160" cy="160" rx="65" ry="40" fill="#e9d5ff" stroke="#a855f7" stroke-width="2.5"/>
<line x1="160" y1="120" x2="160" y2="80" stroke="#a855f7" stroke-width="2" stroke-dasharray="5,3"/>
<line x1="225" y1="160" x2="270" y2="145" stroke="#a855f7" stroke-width="2" stroke-dasharray="5,3"/>
<line x1="95" y1="160" x2="50" y2="145" stroke="#a855f7" stroke-width="2" stroke-dasharray="5,3"/>
<text x="160" y="165" text-anchor="middle" font-size="14" font-weight="700" font-family="sans-serif" fill="#6b21a8">Bacteria</text>
<text x="160" y="210" text-anchor="middle" font-size="12" font-family="sans-serif" fill="#7e22ce">Harmful · Helpful</text>
<!-- Virus -->
<circle cx="400" cy="165" r="50" fill="#fce7f3" stroke="#ec4899" stroke-width="2.5"/>
<line x1="450" y1="165" x2="468" y2="165" stroke="#ec4899" stroke-width="2.5"/><line x1="435" y1="200" x2="448" y2="213" stroke="#ec4899" stroke-width="2.5"/><line x1="400" y1="215" x2="400" y2="233" stroke="#ec4899" stroke-width="2.5"/><line x1="365" y1="200" x2="352" y2="213" stroke="#ec4899" stroke-width="2.5"/><line x1="350" y1="165" x2="332" y2="165" stroke="#ec4899" stroke-width="2.5"/><line x1="365" y1="130" x2="352" y2="117" stroke="#ec4899" stroke-width="2.5"/><line x1="400" y1="115" x2="400" y2="97" stroke="#ec4899" stroke-width="2.5"/><line x1="435" y1="130" x2="448" y2="117" stroke="#ec4899" stroke-width="2.5"/>
<text x="400" y="170" text-anchor="middle" font-size="14" font-weight="700" font-family="sans-serif" fill="#9d174d">Virus</text>
<!-- Fungus -->
<circle cx="620" cy="140" r="30" fill="#fef9c3" stroke="#ca8a04" stroke-width="2"/>
<line x1="620" y1="170" x2="620" y2="220" stroke="#92400e" stroke-width="3"/>
<ellipse cx="620" cy="220" rx="45" ry="12" fill="#fde68a" stroke="#ca8a04" stroke-width="1.5"/>
<text x="620" y="210" text-anchor="middle" font-size="13" font-weight="700" font-family="sans-serif" fill="#78350f">Fungus</text>
<rect x="100" y="268" width="600" height="55" rx="12" fill="#e9d5ff" stroke="#a855f7" stroke-width="2"/>
<text x="400" y="298" text-anchor="middle" font-size="15" font-family="sans-serif" font-weight="700" fill="#581c87">Friend: curd, bread, vaccines · Foe: disease, spoilage</text>
<text x="400" y="383" text-anchor="middle" font-size="24" font-family="sans-serif" font-weight="800" fill="#581c87">Microorganisms: Friend and Foe</text>
</svg>