<?xml version="1.0" encoding="UTF-8"?>
<svg xmlns="http://www.w3.org/2000/svg" width="800" height="420" viewBox="0 0 800 420">
  <defs>
    <linearGradient id="bg" x1="0%" y1="0%" x2="100%" y2="100%">
      <stop offset="0%" stop-color="#f5f3ff"/>
      <stop offset="100%" stop-color="#ddd6fe"/>
    </linearGradient>
  </defs>
  <rect width="800" height="420" fill="url(#bg)" rx="20"/>
  <!-- Wave -->
<path d="M 60,210 Q 120,130 180,210 Q 240,290 300,210 Q 360,130 420,210 Q 480,290 540,210 Q 600,130 660,210 Q 720,290 740,210" fill="none" stroke="#8b5cf6" stroke-width="4"/>
<!-- Amplitude label -->
<line x1="60" y1="210" x2="60" y2="130" stroke="#dc2626" stroke-width="2" stroke-dasharray="5,3"/>
<line x1="120" y1="210" x2="120" y2="130" stroke="#dc2626" stroke-width="2" stroke-dasharray="5,3"/>
<line x1="60" y1="130" x2="120" y2="130" stroke="#dc2626" stroke-width="2"/>
<text x="90" y="120" text-anchor="middle" font-size="12" font-family="sans-serif" font-weight="700" fill="#dc2626">Amplitude</text>
<!-- Wavelength -->
<line x1="60" y1="290" x2="300" y2="290" stroke="#16a34a" stroke-width="2"/>
<text x="180" y="310" text-anchor="middle" font-size="12" font-family="sans-serif" font-weight="700" fill="#166534">Wavelength (λ)</text>
<!-- Boxes -->
<rect x="80" y="60" width="280" height="52" rx="10" fill="#ede9fe" stroke="#8b5cf6" stroke-width="2"/>
<text x="220" y="92" text-anchor="middle" font-size="15" font-family="monospace" font-weight="700" fill="#5b21b6">Speed = Freq × Wavelength</text>
<rect x="420" y="60" width="300" height="52" rx="10" fill="#ddd6fe" stroke="#7c3aed" stroke-width="2"/>
<text x="570" y="92" text-anchor="middle" font-size="15" font-family="monospace" font-weight="700" fill="#4c1d95">v = f × λ  (343 m/s in air)</text>
<text x="400" y="382" text-anchor="middle" font-size="26" font-family="sans-serif" font-weight="800" fill="#3b0764">Sound</text>
</svg>