<?xml version="1.0" encoding="UTF-8"?>
<svg xmlns="http://www.w3.org/2000/svg" width="800" height="420" viewBox="0 0 800 420">
  <defs>
    <linearGradient id="bg" x1="0%" y1="0%" x2="100%" y2="100%">
      <stop offset="0%" stop-color="#020617"/>
      <stop offset="100%" stop-color="#0f172a"/>
    </linearGradient>
  </defs>
  <rect width="800" height="420" fill="url(#bg)" rx="20"/>
  <rect x="0" y="0" width="800" height="420" fill="#020617"/>
<!-- Stars background -->
<circle cx="361" cy="86" r="0.7" fill="#fff" opacity="0.79"/><circle cx="269" cy="255" r="0.9" fill="#fff" opacity="0.76"/><circle cx="621" cy="207" r="0.5" fill="#fff" opacity="0.67"/><circle cx="641" cy="171" r="1.2" fill="#fff" opacity="0.42"/><circle cx="460" cy="194" r="2.1" fill="#fff" opacity="0.78"/><circle cx="706" cy="266" r="1.9" fill="#fff" opacity="0.73"/><circle cx="539" cy="263" r="1.2" fill="#fff" opacity="0.88"/><circle cx="440" cy="274" r="0.9" fill="#fff" opacity="0.86"/><circle cx="116" cy="248" r="1.6" fill="#fff" opacity="0.77"/><circle cx="791" cy="68" r="2.3" fill="#fff" opacity="0.69"/><circle cx="214" cy="62" r="0.9" fill="#fff" opacity="0.72"/><circle cx="401" cy="104" r="1.7" fill="#fff" opacity="0.37"/><circle cx="484" cy="204" r="1.8" fill="#fff" opacity="0.41"/><circle cx="417" cy="57" r="1.4" fill="#fff" opacity="0.58"/><circle cx="291" cy="54" r="1.7" fill="#fff" opacity="0.51"/><circle cx="337" cy="191" r="2.1" fill="#fff" opacity="0.54"/><circle cx="280" cy="31" r="2.5" fill="#fff" opacity="0.35"/><circle cx="632" cy="200" r="0.9" fill="#fff" opacity="0.70"/><circle cx="130" cy="104" r="2.3" fill="#fff" opacity="0.37"/><circle cx="529" cy="139" r="1.9" fill="#fff" opacity="0.83"/><circle cx="746" cy="118" r="2.4" fill="#fff" opacity="0.66"/><circle cx="742" cy="118" r="2.0" fill="#fff" opacity="0.36"/><circle cx="4" cy="150" r="2.3" fill="#fff" opacity="0.67"/><circle cx="43" cy="144" r="1.9" fill="#fff" opacity="0.33"/><circle cx="20" cy="292" r="2.1" fill="#fff" opacity="0.85"/><circle cx="363" cy="79" r="1.1" fill="#fff" opacity="0.57"/><circle cx="315" cy="14" r="0.6" fill="#fff" opacity="0.66"/><circle cx="404" cy="229" r="2.3" fill="#fff" opacity="0.83"/><circle cx="2" cy="40" r="0.7" fill="#fff" opacity="0.79"/><circle cx="713" cy="265" r="2.3" fill="#fff" opacity="0.48"/><circle cx="138" cy="128" r="0.7" fill="#fff" opacity="0.46"/><circle cx="351" cy="4" r="1.7" fill="#fff" opacity="0.68"/><circle cx="285" cy="121" r="1.1" fill="#fff" opacity="0.59"/><circle cx="540" cy="71" r="1.6" fill="#fff" opacity="0.40"/><circle cx="241" cy="49" r="2.4" fill="#fff" opacity="0.53"/><circle cx="183" cy="250" r="2.3" fill="#fff" opacity="0.82"/><circle cx="325" cy="60" r="1.1" fill="#fff" opacity="0.80"/><circle cx="259" cy="30" r="1.5" fill="#fff" opacity="0.33"/><circle cx="521" cy="30" r="1.5" fill="#fff" opacity="0.37"/><circle cx="362" cy="129" r="1.3" fill="#fff" opacity="0.32"/>
<!-- Sun -->
<circle cx="400" cy="210" r="52" fill="#fbbf24" stroke="#f59e0b" stroke-width="3"/>
<text x="400" y="215" text-anchor="middle" font-size="26">☀️</text>
<!-- Orbits and planets -->
<circle cx="400" cy="210" r="90" fill="none" stroke="#94a3b8" stroke-width="0.8" opacity=".4"/>
<circle cx="453" cy="283" r="5" fill="#94a3b8"/><circle cx="400" cy="210" r="130" fill="none" stroke="#fde68a" stroke-width="0.8" opacity=".4"/>
<circle cx="400" cy="340" r="5" fill="#fde68a"/><circle cx="400" cy="210" r="175" fill="none" stroke="#60a5fa" stroke-width="0.8" opacity=".4"/>
<circle cx="297" cy="352" r="7" fill="#60a5fa"/><circle cx="400" cy="210" r="210" fill="none" stroke="#f97316" stroke-width="0.8" opacity=".4"/>
<circle cx="200" cy="275" r="5" fill="#f97316"/><circle cx="400" cy="210" r="265" fill="none" stroke="#c4b5fd" stroke-width="0.8" opacity=".4"/>
<circle cx="556" cy="424" r="12" fill="#c4b5fd"/><circle cx="400" cy="210" r="330" fill="none" stroke="#fcd34d" stroke-width="0.8" opacity=".4"/>
<circle cx="462" cy="534" r="10" fill="#fcd34d"/>
<rect x="0" y="355" width="800" height="65" fill="#020617"/>
<text x="400" y="388" text-anchor="middle" font-size="22" font-family="sans-serif" font-weight="800" fill="#818cf8">Stars and the Solar System</text>
</svg>