<?xml version="1.0" encoding="UTF-8"?>
<svg xmlns="http://www.w3.org/2000/svg" width="800" height="420" viewBox="0 0 800 420">
  <defs>
    <linearGradient id="bg" x1="0%" y1="0%" x2="100%" y2="100%">
      <stop offset="0%" stop-color="#fdf4ff"/>
      <stop offset="100%" stop-color="#f3e8ff"/>
    </linearGradient>
  </defs>
  <rect width="800" height="420" fill="url(#bg)" rx="20"/>
  <!-- Fibre strands -->
<path d="M 60,85 Q 200,70 400,85 Q 600,100 740,85" fill="none" stroke="#d946ef" stroke-width="4" opacity=".75"/><path d="M 60,125 Q 200,110 400,125 Q 600,140 740,125" fill="none" stroke="#c026d3" stroke-width="4" opacity=".75"/><path d="M 60,165 Q 200,150 400,165 Q 600,180 740,165" fill="none" stroke="#a21caf" stroke-width="4" opacity=".75"/><path d="M 60,205 Q 200,190 400,205 Q 600,220 740,205" fill="none" stroke="#86198f" stroke-width="4" opacity=".75"/><path d="M 60,245 Q 200,230 400,245 Q 600,260 740,245" fill="none" stroke="#701a75" stroke-width="4" opacity=".75"/><path d="M 60,285 Q 200,270 400,285 Q 600,300 740,285" fill="none" stroke="#4a044e" stroke-width="4" opacity=".75"/>
<!-- Type boxes -->
<rect x="80" y="310" width="150" height="65" rx="12" fill="#fae8ff" stroke="#c026d3" stroke-width="2"/>
<text x="155" y="338" text-anchor="middle" font-size="13" font-weight="800" font-family="sans-serif" fill="#701a75">Nylon</text>
<text x="155" y="360" text-anchor="middle" font-size="11" font-family="sans-serif" fill="#86198f">Strongest</text>
<rect x="250" y="310" width="150" height="65" rx="12" fill="#fce7f3" stroke="#db2777" stroke-width="2"/>
<text x="325" y="338" text-anchor="middle" font-size="13" font-weight="800" font-family="sans-serif" fill="#9d174d">Rayon</text>
<text x="325" y="360" text-anchor="middle" font-size="11" font-family="sans-serif" fill="#be185d">Semi-synthetic</text>
<rect x="420" y="310" width="150" height="65" rx="12" fill="#f5d0fe" stroke="#a21caf" stroke-width="2"/>
<text x="495" y="338" text-anchor="middle" font-size="13" font-weight="800" font-family="sans-serif" fill="#701a75">Polyester</text>
<text x="495" y="360" text-anchor="middle" font-size="11" font-family="sans-serif" fill="#86198f">Wrinkle-free</text>
<rect x="590" y="310" width="140" height="65" rx="12" fill="#ede9fe" stroke="#7c3aed" stroke-width="2"/>
<text x="660" y="338" text-anchor="middle" font-size="13" font-weight="800" font-family="sans-serif" fill="#5b21b6">Acrylic</text>
<text x="660" y="360" text-anchor="middle" font-size="11" font-family="sans-serif" fill="#6d28d9">Wool-like</text>
<text x="400" y="65" text-anchor="middle" font-size="26" font-family="sans-serif" font-weight="800" fill="#4a044e">Synthetic Fibres and Plastics</text>
</svg>