<?xml version="1.0" encoding="UTF-8"?>
<svg xmlns="http://www.w3.org/2000/svg" width="800" height="420" viewBox="0 0 800 420">
  <defs>
    <linearGradient id="bg" x1="0%" y1="0%" x2="100%" y2="100%">
      <stop offset="0%" stop-color="#fef2f2"/>
      <stop offset="100%" stop-color="#fee2e2"/>
    </linearGradient>
  </defs>
  <rect width="800" height="420" fill="url(#bg)" rx="20"/>
  <!-- Flames/revolt symbolism -->
<path d="M120,310 Q100,230 120,206 Q140,230 120,310 Z" fill="#ef4444" opacity=".7"/>
<path d="M120,310 Q108,254 120,230 Q132,254 120,310 Z" fill="#f97316" opacity=".8"/><path d="M250,310 Q230,196.34116060768415 250,162.2435087899894 Q270,196.34116060768415 250,310 Z" fill="#ef4444" opacity=".7"/>
<path d="M250,310 Q238,230.4388124253789 250,196.34116060768415 Q262,230.4388124253789 250,310 Z" fill="#f97316" opacity=".8"/><path d="M380,310 Q360,193.62810292697273 380,158.71653380506456 Q400,193.62810292697273 380,310 Z" fill="#ef4444" opacity=".7"/>
<path d="M380,310 Q368,228.5396720488809 380,193.62810292697273 Q392,228.5396720488809 380,310 Z" fill="#f97316" opacity=".8"/><path d="M510,310 Q490,224.3551996776053 510,198.6617595808869 Q530,224.3551996776053 510,310 Z" fill="#ef4444" opacity=".7"/>
<path d="M510,310 Q498,250.04863977432373 510,224.3551996776053 Q522,250.04863977432373 510,310 Z" fill="#f97316" opacity=".8"/><path d="M640,310 Q620,199.72790018768288 640,166.64627024398774 Q660,199.72790018768288 640,310 Z" fill="#ef4444" opacity=".7"/>
<path d="M640,310 Q628,232.80953013137804 640,199.72790018768288 Q652,232.80953013137804 640,310 Z" fill="#f97316" opacity=".8"/>
<!-- Key events box -->
<rect x="80" y="60" width="640" height="130" rx="14" fill="rgba(220,38,38,0.1)" stroke="#dc2626" stroke-width="2"/>
<text x="400" y="95" text-anchor="middle" font-size="18" font-weight="900" font-family="sans-serif" fill="#7f1d1d">The Revolt of 1857</text>
<text x="400" y="123" text-anchor="middle" font-size="14" font-family="sans-serif" fill="#991b1b">Greased cartridges → Sepoy mutiny → Widespread revolt</text>
<text x="400" y="150" text-anchor="middle" font-size="14" font-family="sans-serif" fill="#991b1b">Bahadur Shah Zafar · Rani Lakshmibai · Nana Sahib</text>
<text x="400" y="173" text-anchor="middle" font-size="14" font-family="sans-serif" fill="#7f1d1d">Result: Crown Rule; East India Company dissolved</text>
<text x="400" y="383" text-anchor="middle" font-size="24" font-family="sans-serif" font-weight="800" fill="#7f1d1d">When People Rebel — 1857</text>
</svg>